G04 #@! TF.GenerationSoftware,KiCad,Pcbnew,7.0.7*
G04 #@! TF.CreationDate,2024-06-01T11:55:00+01:00*
G04 #@! TF.ProjectId,Controller,436f6e74-726f-46c6-9c65-722e6b696361,rev?*
G04 #@! TF.SameCoordinates,PX78a3ca0PY7e5ca20*
G04 #@! TF.FileFunction,Copper,L1,Top*
G04 #@! TF.FilePolarity,Positive*
%FSLAX46Y46*%
G04 Gerber Fmt 4.6, Leading zero omitted, Abs format (unit mm)*
G04 Created by KiCad (PCBNEW 7.0.7) date 2024-06-01 11:55:00*
%MOMM*%
%LPD*%
G01*
G04 APERTURE LIST*
G04 Aperture macros list*
%AMRoundRect*
0 Rectangle with rounded corners*
0 $1 Rounding radius*
0 $2 $3 $4 $5 $6 $7 $8 $9 X,Y pos of 4 corners*
0 Add a 4 corners polygon primitive as box body*
4,1,4,$2,$3,$4,$5,$6,$7,$8,$9,$2,$3,0*
0 Add four circle primitives for the rounded corners*
1,1,$1+$1,$2,$3*
1,1,$1+$1,$4,$5*
1,1,$1+$1,$6,$7*
1,1,$1+$1,$8,$9*
0 Add four rect primitives between the rounded corners*
20,1,$1+$1,$2,$3,$4,$5,0*
20,1,$1+$1,$4,$5,$6,$7,0*
20,1,$1+$1,$6,$7,$8,$9,0*
20,1,$1+$1,$8,$9,$2,$3,0*%
G04 Aperture macros list end*
G04 #@! TA.AperFunction,NonConductor*
%ADD10C,0.200000*%
G04 #@! TD*
G04 #@! TA.AperFunction,NonConductor*
%ADD11C,1.000000*%
G04 #@! TD*
G04 #@! TA.AperFunction,ComponentPad*
%ADD12C,4.000000*%
G04 #@! TD*
G04 #@! TA.AperFunction,SMDPad,CuDef*
%ADD13R,1.000000X2.500000*%
G04 #@! TD*
G04 #@! TA.AperFunction,SMDPad,CuDef*
%ADD14RoundRect,0.250000X-0.250000X0.893000X-0.250000X-0.893000X0.250000X-0.893000X0.250000X0.893000X0*%
G04 #@! TD*
G04 #@! TA.AperFunction,SMDPad,CuDef*
%ADD15RoundRect,0.381000X-0.762000X-0.381000X0.762000X-0.381000X0.762000X0.381000X-0.762000X0.381000X0*%
G04 #@! TD*
G04 #@! TA.AperFunction,SMDPad,CuDef*
%ADD16R,2.750000X1.000000*%
G04 #@! TD*
G04 #@! TA.AperFunction,ComponentPad*
%ADD17O,2.000000X1.200000*%
G04 #@! TD*
G04 #@! TA.AperFunction,SMDPad,CuDef*
%ADD18RoundRect,0.250000X0.450000X-0.350000X0.450000X0.350000X-0.450000X0.350000X-0.450000X-0.350000X0*%
G04 #@! TD*
G04 #@! TA.AperFunction,SMDPad,CuDef*
%ADD19R,1.500000X1.000000*%
G04 #@! TD*
G04 #@! TA.AperFunction,SMDPad,CuDef*
%ADD20RoundRect,0.243750X-0.243750X-0.456250X0.243750X-0.456250X0.243750X0.456250X-0.243750X0.456250X0*%
G04 #@! TD*
G04 #@! TA.AperFunction,ViaPad*
%ADD21C,2.000000*%
G04 #@! TD*
G04 #@! TA.AperFunction,Conductor*
%ADD22C,1.000000*%
G04 #@! TD*
G04 #@! TA.AperFunction,Conductor*
%ADD23C,0.200000*%
G04 #@! TD*
G04 APERTURE END LIST*
D10*
X16933800Y86551400D02*
X33647000Y86551400D01*
X33647000Y53175800D01*
X16933800Y53175800D01*
X16933800Y86551400D01*
D11*
X22344000Y43473000D02*
X22344000Y43473000D01*
D10*
X28000000Y39500000D02*
X28500000Y39500000D01*
D12*
G04 #@! TO.P,BT1,1,+*
G04 #@! TO.N,Net-(BT1-+)*
X17880000Y51220000D03*
X31850000Y51220000D03*
G04 #@! TO.P,BT1,2,-*
G04 #@! TO.N,Net-(BT1--)*
X19150000Y89000000D03*
X31850000Y89000000D03*
G04 #@! TD*
D13*
G04 #@! TO.P,J1,1,Pin_1*
G04 #@! TO.N,Batt-*
X5420000Y47500000D03*
G04 #@! TO.P,J1,2,Pin_2*
G04 #@! TO.N,Net-(J1-Pin_2)*
X7960000Y47500000D03*
G04 #@! TO.P,J1,3,Pin_3*
G04 #@! TO.N,Net-(J1-Pin_3)*
X10500000Y47500000D03*
G04 #@! TO.P,J1,4,Pin_4*
G04 #@! TO.N,Batt+*
X13040000Y47500000D03*
G04 #@! TD*
D14*
G04 #@! TO.P,U1,1,GPIO1*
G04 #@! TO.N,Net-(U1-GPIO1)*
X29796500Y39448500D03*
G04 #@! TO.P,U1,2,GPIO2*
G04 #@! TO.N,Net-(U1-GPIO2)*
X28296500Y39448500D03*
G04 #@! TO.P,U1,3,GPIO3*
G04 #@! TO.N,unconnected-(U1-GPIO3-Pad3)*
X26796500Y39448500D03*
G04 #@! TO.P,U1,4,GPIO4*
G04 #@! TO.N,unconnected-(U1-GPIO4-Pad4)*
X25296500Y39448500D03*
G04 #@! TO.P,U1,5,GPIO5*
G04 #@! TO.N,unconnected-(U1-GPIO5-Pad5)*
X23686500Y39458500D03*
G04 #@! TO.P,U1,6,GPIO6*
G04 #@! TO.N,unconnected-(U1-GPIO6-Pad6)*
X22216500Y39448500D03*
G04 #@! TO.P,U1,7,GPIO7*
G04 #@! TO.N,unconnected-(U1-GPIO7-Pad7)*
X20796500Y39448500D03*
G04 #@! TO.P,U1,8,GPIO8*
G04 #@! TO.N,Net-(D1-A)*
X19296500Y39448500D03*
D15*
G04 #@! TO.P,U1,9,Vcc*
G04 #@! TO.N,Batt+*
X15796500Y37448500D03*
G04 #@! TO.P,U1,10,RXD*
G04 #@! TO.N,Net-(J1-Pin_3)*
X15796500Y35448500D03*
G04 #@! TO.P,U1,11,TXD*
G04 #@! TO.N,Net-(J1-Pin_2)*
X15796500Y33448500D03*
G04 #@! TO.P,U1,12,Set*
G04 #@! TO.N,Net-(U1-CS)*
X15796500Y31448500D03*
G04 #@! TO.P,U1,13,CS*
X15796500Y29448500D03*
G04 #@! TO.P,U1,14,GND*
G04 #@! TO.N,Batt-*
X15796500Y27448500D03*
G04 #@! TD*
D16*
G04 #@! TO.P,SW3,1,1*
G04 #@! TO.N,Net-(U1-GPIO1)*
X22620000Y23000000D03*
X28380000Y23000000D03*
G04 #@! TO.P,SW3,2,2*
G04 #@! TO.N,Batt-*
X22620000Y19000000D03*
X28380000Y19000000D03*
G04 #@! TD*
G04 #@! TO.P,SW2,2,2*
G04 #@! TO.N,Batt-*
X22620000Y47500000D03*
X28380000Y47500000D03*
G04 #@! TO.P,SW2,1,1*
G04 #@! TO.N,Net-(U1-GPIO2)*
X22620000Y43500000D03*
X28380000Y43500000D03*
G04 #@! TD*
D17*
G04 #@! TO.P,SW1,1,A*
G04 #@! TO.N,unconnected-(SW1-A-Pad1)*
X23100000Y95300000D03*
G04 #@! TO.P,SW1,2,B*
G04 #@! TO.N,Batt-*
X23100000Y93500000D03*
G04 #@! TO.P,SW1,3,C*
G04 #@! TO.N,Net-(BT1--)*
X23100000Y91700000D03*
G04 #@! TO.P,SW1,4,A*
G04 #@! TO.N,unconnected-(SW1-A-Pad4)*
X27900000Y95300000D03*
G04 #@! TO.P,SW1,5,B*
G04 #@! TO.N,Batt+*
X27900000Y93500000D03*
G04 #@! TO.P,SW1,6,C*
G04 #@! TO.N,Net-(BT1-+)*
X27900000Y91700000D03*
G04 #@! TD*
D18*
G04 #@! TO.P,R1,1*
G04 #@! TO.N,Net-(D1-K)*
X21500000Y11000000D03*
G04 #@! TO.P,R1,2*
G04 #@! TO.N,Batt-*
X21500000Y13000000D03*
G04 #@! TD*
D19*
G04 #@! TO.P,JP1,1,1*
G04 #@! TO.N,Batt-*
X10000000Y29200000D03*
G04 #@! TO.P,JP1,2,2*
G04 #@! TO.N,Net-(U1-CS)*
X10000000Y30500000D03*
G04 #@! TD*
D20*
G04 #@! TO.P,D1,1,K*
G04 #@! TO.N,Net-(D1-K)*
X24562500Y7000000D03*
G04 #@! TO.P,D1,2,A*
G04 #@! TO.N,Net-(D1-A)*
X26437500Y7000000D03*
G04 #@! TD*
D21*
G04 #@! TO.N,Batt-*
X3675000Y43447600D03*
G04 #@! TO.N,Batt+*
X18534000Y45251000D03*
G04 #@! TO.N,Net-(U1-GPIO1)*
X18788000Y23153000D03*
X34155000Y43727000D03*
G04 #@! TO.N,Net-(D1-A)*
X16248000Y42965000D03*
X28567000Y9437000D03*
G04 #@! TD*
D22*
G04 #@! TO.N,Batt-*
X22620000Y47500000D02*
X16285000Y47500000D01*
X16285000Y47500000D02*
X14880000Y48905000D01*
X14880000Y48905000D02*
X14880000Y53400800D01*
X14880000Y53400800D02*
X14749400Y53531400D01*
X5199000Y53201200D02*
X5420000Y52980200D01*
X5420000Y52980200D02*
X5420000Y47500000D01*
X14749400Y53531400D02*
X5529200Y53531400D01*
X5529200Y53531400D02*
X5199000Y53201200D01*
X28380000Y47500000D02*
X22620000Y47500000D01*
G04 #@! TO.N,Net-(U1-GPIO2)*
X28380000Y43500000D02*
X28296500Y43416500D01*
X28296500Y43416500D02*
X28296500Y40600000D01*
X28380000Y43500000D02*
X23844000Y43500000D01*
G04 #@! TO.N,Batt-*
X5420000Y44895400D02*
X5122800Y44895400D01*
X3319400Y43092000D02*
X3675000Y43447600D01*
X5420000Y47500000D02*
X5420000Y44895400D01*
X5420000Y44895400D02*
X5420000Y36869000D01*
X5122800Y44895400D02*
X3675000Y43447600D01*
G04 #@! TO.N,Batt+*
X13040000Y45886000D02*
X13040000Y47500000D01*
X17899000Y45886000D02*
X18534000Y45251000D01*
X13040000Y39540000D02*
X13040000Y45886000D01*
X13040000Y45886000D02*
X17899000Y45886000D01*
G04 #@! TO.N,Batt-*
X5420000Y36869000D02*
X5420000Y36267000D01*
G04 #@! TO.N,Net-(U1-GPIO1)*
X33266000Y43727000D02*
X34155000Y43727000D01*
X32250000Y42711000D02*
X33266000Y43727000D01*
X18788000Y23153000D02*
X22467000Y23153000D01*
X22467000Y23153000D02*
X22620000Y23000000D01*
G04 #@! TO.N,Net-(D1-A)*
X19296500Y39916500D02*
X16248000Y42965000D01*
X19296500Y39448500D02*
X19296500Y39916500D01*
X28567000Y9437000D02*
X28567000Y9129500D01*
X28567000Y9129500D02*
X26437500Y7000000D01*
G04 #@! TO.N,Batt-*
X22620000Y19000000D02*
X20000000Y19000000D01*
X20000000Y19000000D02*
X11500000Y27500000D01*
G04 #@! TO.N,Net-(D1-K)*
X21500000Y11000000D02*
X21500000Y8884000D01*
X21500000Y8884000D02*
X23384000Y7000000D01*
X23384000Y7000000D02*
X24562500Y7000000D01*
G04 #@! TO.N,Batt-*
X22255000Y19000000D02*
X21455000Y18200000D01*
X22620000Y19000000D02*
X22255000Y19000000D01*
X21500000Y18155000D02*
X21500000Y13000000D01*
X21455000Y18200000D02*
X21500000Y18155000D01*
X22620000Y19000000D02*
X28380000Y19000000D01*
G04 #@! TO.N,Net-(U1-GPIO1)*
X28380000Y23000000D02*
X22620000Y23000000D01*
X29796500Y39448500D02*
X29796500Y40257500D01*
X29796500Y40257500D02*
X32250000Y42711000D01*
G04 #@! TO.N,Batt-*
X5420000Y36267000D02*
X7612000Y34075000D01*
X7612000Y34075000D02*
X7612000Y29376000D01*
D23*
X7612000Y29376000D02*
X7788000Y29200000D01*
D22*
X7788000Y29200000D02*
X10000000Y29200000D01*
G04 #@! TO.N,Batt+*
X15051500Y37448500D02*
X13000000Y39500000D01*
D23*
X15796500Y37448500D02*
X15051500Y37448500D01*
X13000000Y39500000D02*
X13040000Y39540000D01*
D22*
G04 #@! TO.N,Net-(J1-Pin_3)*
X15796500Y35448500D02*
X13551500Y35448500D01*
X13551500Y35448500D02*
X10500000Y38500000D01*
X10500000Y38500000D02*
X10500000Y47500000D01*
G04 #@! TO.N,Net-(J1-Pin_2)*
X15796500Y33448500D02*
X11551500Y33448500D01*
X11551500Y33448500D02*
X7960000Y37040000D01*
X7960000Y37040000D02*
X7960000Y47500000D01*
G04 #@! TO.N,Batt-*
X11500000Y27500000D02*
X10000000Y29000000D01*
X14000000Y27500000D02*
X11500000Y27500000D01*
X14051500Y27448500D02*
X14000000Y27500000D01*
X15796500Y27448500D02*
X14051500Y27448500D01*
G04 #@! TO.N,Net-(U1-CS)*
X14000000Y31500000D02*
X13200000Y30700000D01*
X13200000Y30700000D02*
X12300000Y30700000D01*
X15796500Y29448500D02*
X13051500Y29448500D01*
X13051500Y29448500D02*
X12500000Y30000000D01*
X12500000Y30000000D02*
X12500000Y30500000D01*
X12300000Y30700000D02*
X10000000Y30700000D01*
X12500000Y30500000D02*
X12300000Y30700000D01*
X15796500Y31448500D02*
X14051500Y31448500D01*
X14051500Y31448500D02*
X14000000Y31500000D01*
G04 #@! TD*
G04 #@! TA.AperFunction,Conductor*
G04 #@! TO.N,Batt-*
G36*
X49473830Y101997363D02*
G01*
X49516012Y101991810D01*
X49652754Y101953420D01*
X49773143Y101878060D01*
X49867424Y101771835D01*
X49927958Y101643351D01*
X49945607Y101562226D01*
X49951662Y101516242D01*
X49953800Y101483634D01*
X49953800Y46054800D01*
X49933587Y45914215D01*
X49874586Y45785020D01*
X49781576Y45677681D01*
X49662092Y45600894D01*
X49525815Y45560879D01*
X49454800Y45555800D01*
X35066306Y45555800D01*
X34925721Y45576013D01*
X34891923Y45587262D01*
X34720044Y45651370D01*
X34440436Y45712195D01*
X34440430Y45712196D01*
X34440428Y45712196D01*
X34155000Y45732610D01*
X33869572Y45712196D01*
X33869569Y45712196D01*
X33869563Y45712195D01*
X33589955Y45651370D01*
X33418077Y45587262D01*
X33279293Y45557071D01*
X33243694Y45555800D01*
X25555799Y45555800D01*
X25500000Y45500001D01*
X25500000Y45499500D01*
X25479787Y45358915D01*
X25420786Y45229720D01*
X25327776Y45122381D01*
X25208292Y45045594D01*
X25072015Y45005579D01*
X25001000Y45000500D01*
X23781933Y45000500D01*
X23781931Y45000500D01*
X21186964Y45000499D01*
X21113776Y44993993D01*
X21067197Y44989852D01*
X20925375Y44997537D01*
X20791463Y45044868D01*
X20676310Y45128008D01*
X20589244Y45240223D01*
X20537320Y45372421D01*
X20525285Y45451286D01*
X20519196Y45536428D01*
X20494192Y45651370D01*
X20458370Y45816044D01*
X20369318Y46054800D01*
X20358367Y46084161D01*
X20221226Y46335315D01*
X20118333Y46472764D01*
X20049741Y46564393D01*
X19847392Y46766742D01*
X19709946Y46869632D01*
X19618315Y46938226D01*
X19618313Y46938227D01*
X19618312Y46938228D01*
X19367161Y47075367D01*
X19099043Y47175371D01*
X18819436Y47236195D01*
X18819430Y47236196D01*
X18819428Y47236196D01*
X18590954Y47252537D01*
X18452173Y47282727D01*
X18426114Y47293293D01*
X18387886Y47310061D01*
X18387883Y47310062D01*
X18387881Y47310063D01*
X18387877Y47310064D01*
X18387347Y47310246D01*
X18386650Y47310604D01*
X18368984Y47318352D01*
X18369450Y47319417D01*
X18260944Y47375015D01*
X18157910Y47472772D01*
X18086590Y47595597D01*
X18052763Y47733540D01*
X18059169Y47875426D01*
X18105289Y48009760D01*
X18187388Y48125658D01*
X18298813Y48213732D01*
X18430538Y48266846D01*
X18434180Y48267725D01*
X18742011Y48340681D01*
X19070451Y48460223D01*
X19382793Y48617087D01*
X19674811Y48809151D01*
X19942558Y49033817D01*
X20182412Y49288047D01*
X20391130Y49568404D01*
X20413637Y49607388D01*
X20565879Y49871078D01*
X20565888Y49871094D01*
X20565889Y49871096D01*
X20704326Y50192029D01*
X20804569Y50526864D01*
X20865262Y50871073D01*
X20885585Y51220000D01*
X20873433Y51428625D01*
X20866523Y51547286D01*
X20878528Y51688808D01*
X20929918Y51821216D01*
X21016529Y51933781D01*
X21131346Y52017386D01*
X21265066Y52065256D01*
X21364679Y52075300D01*
X28365321Y52075300D01*
X28505906Y52055087D01*
X28635101Y51996086D01*
X28742440Y51903076D01*
X28819227Y51783592D01*
X28859242Y51647315D01*
X28863477Y51547286D01*
X28844415Y51220001D01*
X28864737Y50871076D01*
X28925427Y50526879D01*
X28925432Y50526858D01*
X29025671Y50192035D01*
X29025674Y50192028D01*
X29164111Y49871094D01*
X29164120Y49871078D01*
X29338865Y49568411D01*
X29338867Y49568407D01*
X29418748Y49461109D01*
X29547588Y49288047D01*
X29787442Y49033817D01*
X30055189Y48809151D01*
X30347207Y48617088D01*
X30347207Y48617087D01*
X30659534Y48460230D01*
X30659541Y48460227D01*
X30659549Y48460223D01*
X30987989Y48340681D01*
X30987993Y48340680D01*
X30987996Y48340679D01*
X31328076Y48260079D01*
X31328079Y48260079D01*
X31328086Y48260077D01*
X31599030Y48228408D01*
X31675239Y48219500D01*
X31675241Y48219500D01*
X32024761Y48219500D01*
X32093431Y48227527D01*
X32371914Y48260077D01*
X32371921Y48260079D01*
X32371923Y48260079D01*
X32712003Y48340679D01*
X32712003Y48340680D01*
X32712011Y48340681D01*
X33040451Y48460223D01*
X33352793Y48617087D01*
X33644811Y48809151D01*
X33912558Y49033817D01*
X34152412Y49288047D01*
X34361130Y49568404D01*
X34383637Y49607388D01*
X34535879Y49871078D01*
X34535888Y49871094D01*
X34535889Y49871096D01*
X34674326Y50192029D01*
X34774569Y50526864D01*
X34835262Y50871073D01*
X34855585Y51220000D01*
X34835262Y51568927D01*
X34776343Y51903076D01*
X34774572Y51913122D01*
X34774570Y51913128D01*
X34774569Y51913136D01*
X34674326Y52247971D01*
X34647573Y52309989D01*
X34610452Y52447078D01*
X34613455Y52589076D01*
X34645437Y52693873D01*
X34644827Y52694084D01*
X34650534Y52710577D01*
X34651868Y52714945D01*
X34652600Y52716550D01*
X34652604Y52716556D01*
X34676466Y52785507D01*
X34680620Y52796641D01*
X34707725Y52864343D01*
X34707726Y52864353D01*
X34714425Y52887161D01*
X34714522Y52887133D01*
X34715834Y52892033D01*
X34715737Y52892056D01*
X34721341Y52915160D01*
X34721344Y52915167D01*
X34731726Y52987384D01*
X34733691Y52999074D01*
X34747500Y53070715D01*
X34747500Y53070725D01*
X34749759Y53094374D01*
X34749858Y53094365D01*
X34750221Y53099448D01*
X34750123Y53099452D01*
X34751254Y53123199D01*
X34747783Y53196078D01*
X34747500Y53207951D01*
X34747500Y86436997D01*
X34750221Y86475048D01*
X34750123Y86475052D01*
X34751254Y86498799D01*
X34747783Y86571678D01*
X34747500Y86583551D01*
X34747500Y86603821D01*
X34747499Y86603834D01*
X34745572Y86624012D01*
X34744724Y86635870D01*
X34743742Y86656485D01*
X34741254Y86708730D01*
X34741252Y86708736D01*
X34737870Y86732269D01*
X34737969Y86732284D01*
X34737127Y86737289D01*
X34737028Y86737269D01*
X34732527Y86760621D01*
X34717432Y86812027D01*
X34711975Y86830612D01*
X34708905Y86842070D01*
X34691705Y86912971D01*
X34691704Y86912976D01*
X34691700Y86912983D01*
X34683929Y86935440D01*
X34684022Y86935473D01*
X34682240Y86940251D01*
X34682148Y86940213D01*
X34673317Y86962270D01*
X34673316Y86962275D01*
X34639888Y87027117D01*
X34634700Y87037798D01*
X34620423Y87069059D01*
X34604396Y87104153D01*
X34604393Y87104157D01*
X34592510Y87124740D01*
X34592596Y87124790D01*
X34589944Y87129140D01*
X34589861Y87129086D01*
X34566261Y87165809D01*
X34507261Y87295005D01*
X34487049Y87435589D01*
X34507263Y87576174D01*
X34531346Y87637243D01*
X34530138Y87637764D01*
X34589557Y87775513D01*
X34674326Y87972029D01*
X34686547Y88012848D01*
X34749137Y88221915D01*
X34774569Y88306864D01*
X34835262Y88651073D01*
X34855585Y89000000D01*
X34835262Y89348927D01*
X34805901Y89515441D01*
X34774572Y89693122D01*
X34774567Y89693143D01*
X34674328Y90027966D01*
X34674325Y90027973D01*
X34668380Y90041754D01*
X34570126Y90269534D01*
X34535888Y90348907D01*
X34535879Y90348923D01*
X34361134Y90651590D01*
X34361132Y90651594D01*
X34256771Y90791775D01*
X34152412Y90931953D01*
X33912558Y91186183D01*
X33644811Y91410849D01*
X33613379Y91431522D01*
X33352792Y91602914D01*
X33040465Y91759771D01*
X33040451Y91759777D01*
X32712011Y91879319D01*
X32712003Y91879322D01*
X32371923Y91959922D01*
X32024761Y92000500D01*
X32024759Y92000500D01*
X31675241Y92000500D01*
X31675239Y92000500D01*
X31328076Y91959922D01*
X30987996Y91879322D01*
X30987988Y91879319D01*
X30659548Y91759777D01*
X30659546Y91759776D01*
X30572225Y91715922D01*
X30437522Y91670892D01*
X30295589Y91665636D01*
X30157925Y91700581D01*
X30035682Y91772894D01*
X29938763Y91876718D01*
X29875021Y92003641D01*
X29863065Y92045359D01*
X29850643Y92097101D01*
X29826873Y92196111D01*
X29738671Y92409048D01*
X29703549Y92546659D01*
X29708618Y92688598D01*
X29738670Y92790950D01*
X29826873Y93003889D01*
X29885683Y93248852D01*
X29905449Y93500000D01*
X29885683Y93751148D01*
X29826873Y93996111D01*
X29738671Y94209048D01*
X29703549Y94346659D01*
X29708618Y94488598D01*
X29738670Y94590950D01*
X29826873Y94803889D01*
X29885683Y95048852D01*
X29905449Y95300000D01*
X29885683Y95551148D01*
X29826873Y95796111D01*
X29730466Y96028859D01*
X29598836Y96243659D01*
X29598832Y96243663D01*
X29598830Y96243667D01*
X29435226Y96435223D01*
X29435222Y96435227D01*
X29243666Y96598831D01*
X29243660Y96598835D01*
X29243659Y96598836D01*
X29028859Y96730466D01*
X28796111Y96826873D01*
X28796110Y96826873D01*
X28551154Y96885682D01*
X28551151Y96885683D01*
X28551148Y96885683D01*
X28433226Y96894964D01*
X28362886Y96900500D01*
X28362882Y96900500D01*
X27437118Y96900500D01*
X27437114Y96900500D01*
X27372782Y96895437D01*
X27248852Y96885683D01*
X27248848Y96885683D01*
X27248847Y96885682D01*
X27248843Y96885682D01*
X27003889Y96826873D01*
X27003887Y96826873D01*
X26771140Y96730466D01*
X26556348Y96598841D01*
X26556333Y96598831D01*
X26364777Y96435227D01*
X26364773Y96435223D01*
X26201169Y96243667D01*
X26201159Y96243652D01*
X26069534Y96028860D01*
X25965624Y95777997D01*
X25963840Y95778736D01*
X25911905Y95673110D01*
X25815865Y95568472D01*
X25694237Y95495130D01*
X25556872Y95459026D01*
X25414900Y95463085D01*
X25279822Y95506978D01*
X25162581Y95587148D01*
X25072677Y95697101D01*
X25035517Y95778470D01*
X25034376Y95777997D01*
X25026872Y95796113D01*
X24930466Y96028859D01*
X24798836Y96243659D01*
X24798832Y96243663D01*
X24798830Y96243667D01*
X24635226Y96435223D01*
X24635222Y96435227D01*
X24443666Y96598831D01*
X24443660Y96598835D01*
X24443659Y96598836D01*
X24228859Y96730466D01*
X23996111Y96826873D01*
X23751154Y96885682D01*
X23751151Y96885683D01*
X23751148Y96885683D01*
X23633226Y96894964D01*
X23562886Y96900500D01*
X23562882Y96900500D01*
X22637118Y96900500D01*
X22637114Y96900500D01*
X22572782Y96895437D01*
X22448852Y96885683D01*
X22448848Y96885683D01*
X22448847Y96885682D01*
X22448843Y96885682D01*
X22203889Y96826873D01*
X22203887Y96826873D01*
X21971140Y96730466D01*
X21756348Y96598841D01*
X21756333Y96598831D01*
X21564777Y96435227D01*
X21564773Y96435223D01*
X21401169Y96243667D01*
X21401159Y96243652D01*
X21269534Y96028860D01*
X21173127Y95796113D01*
X21173127Y95796111D01*
X21122960Y95587148D01*
X21114317Y95551148D01*
X21094551Y95300000D01*
X21114317Y95048852D01*
X21114317Y95048849D01*
X21114318Y95048847D01*
X21122958Y95012860D01*
X21173126Y94803892D01*
X21173127Y94803890D01*
X21173127Y94803888D01*
X21269534Y94571141D01*
X21401159Y94356349D01*
X21401169Y94356334D01*
X21564773Y94164778D01*
X21564777Y94164774D01*
X21756333Y94001170D01*
X21756336Y94001168D01*
X21756341Y94001164D01*
X21879868Y93925466D01*
X21989172Y93834780D01*
X22068501Y93716968D01*
X22111425Y93581580D01*
X22114468Y93439582D01*
X22077382Y93302479D01*
X22003171Y93181379D01*
X21897849Y93086091D01*
X21879869Y93074536D01*
X21756351Y92998843D01*
X21756333Y92998831D01*
X21564777Y92835227D01*
X21564773Y92835223D01*
X21401169Y92643667D01*
X21401159Y92643652D01*
X21269534Y92428860D01*
X21173127Y92196113D01*
X21173124Y92196105D01*
X21136933Y92045356D01*
X21084460Y91913375D01*
X20996928Y91801523D01*
X20881430Y91718863D01*
X20747322Y91672090D01*
X20605469Y91664995D01*
X20467363Y91698152D01*
X20427772Y91715923D01*
X20399286Y91730229D01*
X20340451Y91759777D01*
X20012011Y91879319D01*
X20012003Y91879322D01*
X19671923Y91959922D01*
X19324761Y92000500D01*
X19324759Y92000500D01*
X18975241Y92000500D01*
X18975239Y92000500D01*
X18628076Y91959922D01*
X18287996Y91879322D01*
X18287988Y91879319D01*
X17959548Y91759777D01*
X17959534Y91759771D01*
X17647207Y91602914D01*
X17355191Y91410851D01*
X17087444Y91186185D01*
X16847589Y90931955D01*
X16638867Y90651594D01*
X16638865Y90651590D01*
X16464120Y90348923D01*
X16464111Y90348907D01*
X16325674Y90027973D01*
X16325671Y90027966D01*
X16225432Y89693143D01*
X16225427Y89693122D01*
X16164737Y89348925D01*
X16144415Y89000000D01*
X16164737Y88651076D01*
X16225427Y88306879D01*
X16225432Y88306858D01*
X16325671Y87972035D01*
X16325673Y87972030D01*
X16333176Y87954637D01*
X16370297Y87817544D01*
X16367291Y87675545D01*
X16324402Y87540146D01*
X16245103Y87422314D01*
X16222911Y87400587D01*
X16216241Y87393592D01*
X16209620Y87387574D01*
X16201775Y87379892D01*
X16191904Y87371338D01*
X16191841Y87371411D01*
X16188047Y87367962D01*
X16188114Y87367892D01*
X16170910Y87351489D01*
X16123131Y87296351D01*
X16115151Y87287572D01*
X16064812Y87234777D01*
X16050120Y87216094D01*
X16050044Y87216154D01*
X16046986Y87212070D01*
X16047066Y87212013D01*
X16033275Y87192648D01*
X15996797Y87129469D01*
X15990622Y87119339D01*
X15951185Y87057972D01*
X15940296Y87036848D01*
X15940210Y87036893D01*
X15937984Y87032310D01*
X15938072Y87032269D01*
X15928194Y87010640D01*
X15904329Y86941690D01*
X15900182Y86930569D01*
X15873074Y86862857D01*
X15866378Y86840050D01*
X15866285Y86840078D01*
X15864966Y86835155D01*
X15865060Y86835132D01*
X15859454Y86812027D01*
X15849070Y86739807D01*
X15847102Y86728103D01*
X15833299Y86656482D01*
X15831040Y86632821D01*
X15830941Y86632831D01*
X15830578Y86627750D01*
X15830677Y86627745D01*
X15829546Y86604002D01*
X15833017Y86531125D01*
X15833300Y86519251D01*
X15833300Y53621232D01*
X15813087Y53480647D01*
X15754086Y53351452D01*
X15697259Y53278797D01*
X15577589Y53151955D01*
X15368867Y52871594D01*
X15368865Y52871590D01*
X15194120Y52568923D01*
X15194111Y52568907D01*
X15055674Y52247973D01*
X15055671Y52247966D01*
X14955432Y51913143D01*
X14955427Y51913122D01*
X14894737Y51568925D01*
X14874415Y51220000D01*
X14894737Y50871076D01*
X14955427Y50526879D01*
X14955432Y50526858D01*
X15055671Y50192035D01*
X15055674Y50192028D01*
X15194111Y49871094D01*
X15200631Y49858113D01*
X15198203Y49856894D01*
X15241702Y49748229D01*
X15243694Y49727358D01*
X15273504Y49704173D01*
X15346361Y49607391D01*
X15368870Y49568404D01*
X15577588Y49288047D01*
X15817442Y49033817D01*
X16085189Y48809151D01*
X16377206Y48617088D01*
X16377207Y48617087D01*
X16689534Y48460230D01*
X16689541Y48460227D01*
X16689549Y48460223D01*
X16979632Y48354642D01*
X16980277Y48354407D01*
X17105470Y48287330D01*
X17206694Y48187699D01*
X17275749Y48063586D01*
X17307040Y47925046D01*
X17298031Y47783301D01*
X17249454Y47649837D01*
X17165243Y47535464D01*
X17052221Y47449449D01*
X16919544Y47398761D01*
X16809609Y47386500D01*
X15039499Y47386500D01*
X14898914Y47406713D01*
X14769719Y47465714D01*
X14662380Y47558724D01*
X14585593Y47678208D01*
X14545578Y47814485D01*
X14540499Y47885500D01*
X14540499Y48808032D01*
X14540400Y48809151D01*
X14529886Y48927418D01*
X14473909Y49123049D01*
X14471922Y49126853D01*
X14468446Y49136724D01*
X14464520Y49146553D01*
X14464927Y49146716D01*
X14424815Y49260630D01*
X14412405Y49269467D01*
X14370035Y49315258D01*
X14251109Y49461109D01*
X14251106Y49461113D01*
X14093410Y49589696D01*
X14093407Y49589698D01*
X13913057Y49683905D01*
X13913054Y49683907D01*
X13913049Y49683909D01*
X13842229Y49704173D01*
X13717418Y49739886D01*
X13717417Y49739886D01*
X13598037Y49750500D01*
X13598035Y49750500D01*
X13278925Y49750500D01*
X12481964Y49750499D01*
X12362581Y49739886D01*
X12362582Y49739886D01*
X12166953Y49683910D01*
X12166945Y49683907D01*
X12001035Y49597242D01*
X11867067Y49550068D01*
X11725236Y49542548D01*
X11587032Y49575291D01*
X11538965Y49597242D01*
X11373054Y49683907D01*
X11373046Y49683910D01*
X11177418Y49739886D01*
X11058037Y49750500D01*
X11058035Y49750500D01*
X10739405Y49750500D01*
X9941964Y49750499D01*
X9822582Y49739886D01*
X9626953Y49683910D01*
X9626945Y49683907D01*
X9461035Y49597242D01*
X9327067Y49550068D01*
X9185236Y49542548D01*
X9047032Y49575291D01*
X8998965Y49597242D01*
X8833054Y49683907D01*
X8833046Y49683910D01*
X8637418Y49739886D01*
X8637417Y49739886D01*
X8518037Y49750500D01*
X8518035Y49750500D01*
X8197545Y49750500D01*
X7401964Y49750499D01*
X7282582Y49739886D01*
X7086953Y49683910D01*
X7086942Y49683905D01*
X6906592Y49589698D01*
X6906589Y49589696D01*
X6748891Y49461111D01*
X6748889Y49461109D01*
X6620304Y49303411D01*
X6620302Y49303408D01*
X6526095Y49123058D01*
X6526090Y49123047D01*
X6470114Y48927419D01*
X6459500Y48808035D01*
X6459500Y37148668D01*
X6457582Y37117777D01*
X6455643Y37102224D01*
X6455643Y37102221D01*
X6459500Y37008966D01*
X6459500Y36977928D01*
X6462062Y36947010D01*
X6465919Y36853763D01*
X6465919Y36853759D01*
X6469136Y36838419D01*
X6473597Y36807800D01*
X6474891Y36792185D01*
X6474893Y36792172D01*
X6484878Y36752745D01*
X6497801Y36701712D01*
X6516951Y36610386D01*
X6522648Y36595784D01*
X6532084Y36566329D01*
X6535933Y36551128D01*
X6573420Y36465665D01*
X6607341Y36378731D01*
X6607345Y36378724D01*
X6615371Y36365254D01*
X6629530Y36337748D01*
X6635824Y36323399D01*
X6635826Y36323395D01*
X6686861Y36245278D01*
X6734628Y36165114D01*
X6734637Y36165102D01*
X6744768Y36153140D01*
X6763265Y36128333D01*
X6771836Y36115215D01*
X6835034Y36046564D01*
X6855100Y36022872D01*
X6877050Y36000922D01*
X6940252Y35932265D01*
X6940259Y35932259D01*
X6952629Y35922631D01*
X6975820Y35902152D01*
X8429472Y34448500D01*
X9881796Y32996176D01*
X9966912Y32882475D01*
X10016546Y32749400D01*
X10026679Y32607732D01*
X9996488Y32468947D01*
X9928420Y32344290D01*
X9827990Y32243860D01*
X9703333Y32175792D01*
X9651448Y32159600D01*
X9511124Y32124065D01*
X9511117Y32124063D01*
X9313790Y32037507D01*
X9176927Y31999545D01*
X9157538Y31997439D01*
X9112277Y31993415D01*
X9072581Y31989886D01*
X8876953Y31933910D01*
X8876942Y31933905D01*
X8696592Y31839698D01*
X8696589Y31839696D01*
X8538891Y31711111D01*
X8538889Y31711109D01*
X8410304Y31553411D01*
X8410302Y31553408D01*
X8316095Y31373058D01*
X8316091Y31373049D01*
X8260114Y31177418D01*
X8249500Y31058037D01*
X8249501Y29941964D01*
X8260114Y29822583D01*
X8316090Y29626954D01*
X8316095Y29626943D01*
X8410302Y29446593D01*
X8410304Y29446590D01*
X8538889Y29288892D01*
X8538891Y29288890D01*
X8696589Y29160305D01*
X8696593Y29160302D01*
X8876951Y29066091D01*
X9072582Y29010114D01*
X9191963Y28999500D01*
X9191964Y28999501D01*
X9191965Y28999500D01*
X9655721Y28999501D01*
X10808036Y28999501D01*
X10927418Y29010114D01*
X10983199Y29026075D01*
X11123913Y29045315D01*
X11264355Y29024132D01*
X11393140Y28964239D01*
X11463582Y28904619D01*
X11465074Y28906238D01*
X11480259Y28892259D01*
X11492629Y28882631D01*
X11515820Y28862152D01*
X11913652Y28464320D01*
X11934129Y28441132D01*
X11943762Y28428756D01*
X12012421Y28365551D01*
X12034374Y28343598D01*
X12058064Y28323534D01*
X12119594Y28266891D01*
X12126713Y28260338D01*
X12126717Y28260334D01*
X12139826Y28251770D01*
X12164645Y28233264D01*
X12174011Y28225332D01*
X12176606Y28223134D01*
X12256775Y28175364D01*
X12334893Y28124327D01*
X12334895Y28124326D01*
X12349237Y28118035D01*
X12376752Y28103873D01*
X12390227Y28095844D01*
X12477167Y28061920D01*
X12562619Y28024437D01*
X12577814Y28020590D01*
X12607274Y28011152D01*
X12621886Y28005450D01*
X12669385Y27995491D01*
X12713227Y27986297D01*
X12803671Y27963394D01*
X12803679Y27963392D01*
X12819291Y27962099D01*
X12849918Y27957637D01*
X12865263Y27954419D01*
X12958509Y27950563D01*
X12989433Y27948000D01*
X12989437Y27948000D01*
X13020465Y27948000D01*
X13113721Y27944143D01*
X13123678Y27945385D01*
X13129279Y27946082D01*
X13160170Y27948000D01*
X14077012Y27948000D01*
X14217597Y27927787D01*
X14329564Y27879370D01*
X14436709Y27816495D01*
X14436710Y27816495D01*
X14436713Y27816493D01*
X14561054Y27769569D01*
X14656732Y27733461D01*
X14763101Y27712890D01*
X14887621Y27688807D01*
X14940465Y27686000D01*
X16652534Y27686001D01*
X16652535Y27686001D01*
X16661341Y27686469D01*
X16705379Y27688807D01*
X16936267Y27733461D01*
X17156287Y27816493D01*
X17359109Y27935514D01*
X17538900Y28087100D01*
X17690486Y28266891D01*
X17809507Y28469713D01*
X17892539Y28689733D01*
X17937193Y28920621D01*
X17940000Y28973465D01*
X17939999Y29923534D01*
X17937193Y29976379D01*
X17892539Y30207267D01*
X17867991Y30272313D01*
X17837265Y30410978D01*
X17846849Y30552685D01*
X17867988Y30624679D01*
X17892539Y30689733D01*
X17937193Y30920621D01*
X17940000Y30973465D01*
X17939999Y31923534D01*
X17937193Y31976379D01*
X17892539Y32207267D01*
X17867992Y32272311D01*
X17837265Y32410976D01*
X17846849Y32552682D01*
X17867993Y32624691D01*
X17892538Y32689731D01*
X17892539Y32689733D01*
X17937193Y32920621D01*
X17940000Y32973465D01*
X17939999Y33923534D01*
X17937193Y33976379D01*
X17892539Y34207267D01*
X17867992Y34272311D01*
X17837265Y34410976D01*
X17846849Y34552682D01*
X17867993Y34624691D01*
X17892538Y34689731D01*
X17892539Y34689733D01*
X17937193Y34920621D01*
X17940000Y34973465D01*
X17939999Y35923534D01*
X17937193Y35976379D01*
X17892539Y36207267D01*
X17867991Y36272313D01*
X17837265Y36410978D01*
X17846849Y36552685D01*
X17867988Y36624679D01*
X17892539Y36689733D01*
X17937193Y36920621D01*
X17938093Y36937581D01*
X17965735Y37076891D01*
X18031506Y37202774D01*
X18130079Y37305029D01*
X18253467Y37375371D01*
X18391675Y37408100D01*
X18533505Y37400567D01*
X18610021Y37375960D01*
X18610667Y37377805D01*
X18631812Y37370406D01*
X18631813Y37370406D01*
X18631817Y37370404D01*
X18850088Y37315404D01*
X18982283Y37305000D01*
X19610716Y37305001D01*
X19610718Y37305001D01*
X19648486Y37307974D01*
X19742912Y37315404D01*
X19924575Y37361180D01*
X20065832Y37375930D01*
X20168426Y37361180D01*
X20350088Y37315404D01*
X20482283Y37305000D01*
X21110716Y37305001D01*
X21110718Y37305001D01*
X21148486Y37307974D01*
X21242912Y37315404D01*
X21384577Y37351101D01*
X21525831Y37365851D01*
X21628423Y37351101D01*
X21770088Y37315404D01*
X21902283Y37305000D01*
X22530716Y37305001D01*
X22530718Y37305001D01*
X22568486Y37307974D01*
X22662912Y37315404D01*
X22849421Y37362401D01*
X22990678Y37377150D01*
X23093269Y37362400D01*
X23240088Y37325404D01*
X23372283Y37315000D01*
X24000716Y37315001D01*
X24000718Y37315001D01*
X24038486Y37317974D01*
X24132912Y37325404D01*
X24351183Y37380404D01*
X24351185Y37380406D01*
X24352415Y37380715D01*
X24493677Y37395465D01*
X24609658Y37374174D01*
X24610088Y37375880D01*
X24631813Y37370406D01*
X24631817Y37370404D01*
X24850088Y37315404D01*
X24982283Y37305000D01*
X25000989Y37305001D01*
X25141568Y37284793D01*
X25270765Y37225796D01*
X25378108Y37132790D01*
X25454899Y37013309D01*
X25494918Y36877033D01*
X25500000Y36806001D01*
X25500000Y24999500D01*
X25479787Y24858915D01*
X25420786Y24729720D01*
X25327776Y24622381D01*
X25208292Y24545594D01*
X25072015Y24505579D01*
X25001000Y24500500D01*
X23235396Y24500500D01*
X23094811Y24520713D01*
X23053979Y24534647D01*
X23041324Y24539585D01*
X23027624Y24545594D01*
X22955881Y24577063D01*
X22955875Y24577065D01*
X22955872Y24577066D01*
X22940671Y24580916D01*
X22911216Y24590352D01*
X22896614Y24596049D01*
X22896613Y24596050D01*
X22896611Y24596050D01*
X22871901Y24601231D01*
X22805288Y24615199D01*
X22754255Y24628122D01*
X22714828Y24638107D01*
X22714815Y24638109D01*
X22699200Y24639403D01*
X22668581Y24643864D01*
X22653239Y24647081D01*
X22559990Y24650938D01*
X22529072Y24653500D01*
X22529067Y24653500D01*
X22498035Y24653500D01*
X22451661Y24655418D01*
X22404781Y24657357D01*
X22404774Y24657357D01*
X22389221Y24655418D01*
X22358330Y24653500D01*
X20287835Y24653500D01*
X20147250Y24673713D01*
X20018055Y24732714D01*
X19988797Y24753029D01*
X19948914Y24782885D01*
X19872315Y24840226D01*
X19872313Y24840227D01*
X19872312Y24840228D01*
X19621161Y24977367D01*
X19353043Y25077371D01*
X19073436Y25138195D01*
X19073430Y25138196D01*
X19073428Y25138196D01*
X18788000Y25158610D01*
X18787999Y25158610D01*
X18740282Y25155198D01*
X18502572Y25138196D01*
X18502569Y25138196D01*
X18502563Y25138195D01*
X18222956Y25077371D01*
X17954838Y24977367D01*
X17703687Y24840228D01*
X17703682Y24840224D01*
X17474607Y24668742D01*
X17272258Y24466393D01*
X17100776Y24237318D01*
X17100772Y24237313D01*
X16963633Y23986162D01*
X16863629Y23718044D01*
X16802805Y23438437D01*
X16782390Y23153001D01*
X16802805Y22867564D01*
X16863629Y22587957D01*
X16963633Y22319839D01*
X17100774Y22068685D01*
X17169368Y21977053D01*
X17272258Y21839608D01*
X17474607Y21637259D01*
X17481249Y21632287D01*
X17703685Y21465774D01*
X17954839Y21328633D01*
X18145648Y21257465D01*
X18222956Y21228630D01*
X18483138Y21172032D01*
X18502572Y21167804D01*
X18788000Y21147390D01*
X19073428Y21167804D01*
X19193048Y21193826D01*
X19353043Y21228630D01*
X19353046Y21228631D01*
X19621161Y21328633D01*
X19872315Y21465774D01*
X19988795Y21552971D01*
X20113454Y21621039D01*
X20252239Y21651229D01*
X20287835Y21652500D01*
X20584052Y21652500D01*
X20724637Y21632287D01*
X20815086Y21595794D01*
X20871941Y21566096D01*
X20871951Y21566091D01*
X21067582Y21510114D01*
X21186963Y21499500D01*
X21186964Y21499501D01*
X21186965Y21499500D01*
X21187230Y21499501D01*
X22547680Y21499501D01*
X22547704Y21499500D01*
X22588965Y21499500D01*
X22682221Y21495643D01*
X22692178Y21496885D01*
X22697779Y21497582D01*
X22728670Y21499500D01*
X25001000Y21499500D01*
X25141585Y21479287D01*
X25270780Y21420286D01*
X25378119Y21327276D01*
X25454906Y21207792D01*
X25494921Y21071515D01*
X25500000Y21000501D01*
X25500000Y21000000D01*
X49096199Y21000000D01*
X49096200Y21000000D01*
X49101954Y21005755D01*
X49215652Y21090868D01*
X49348727Y21140504D01*
X49490395Y21150637D01*
X49629180Y21120447D01*
X49753837Y21052380D01*
X49854268Y20951950D01*
X49922337Y20827294D01*
X49952528Y20688510D01*
X49953800Y20652908D01*
X49953800Y580767D01*
X49951662Y548159D01*
X49945607Y502175D01*
X49907213Y365433D01*
X49831850Y245046D01*
X49725622Y150769D01*
X49597136Y90238D01*
X49516027Y72593D01*
X49489655Y69121D01*
X49470035Y66538D01*
X49437435Y64400D01*
X516366Y64400D01*
X483762Y66538D01*
X472467Y68025D01*
X437774Y72593D01*
X301032Y110987D01*
X180645Y186350D01*
X86368Y292578D01*
X25837Y421064D01*
X8193Y502169D01*
X7682Y506047D01*
X2633Y544393D01*
X500Y576943D01*
X500Y11414221D01*
X19799500Y11414221D01*
X19799501Y10585781D01*
X19799501Y10585782D01*
X19809903Y10453593D01*
X19809903Y10453590D01*
X19809904Y10453588D01*
X19864904Y10235317D01*
X19954830Y10037336D01*
X19994565Y9900984D01*
X19999500Y9830977D01*
X19999500Y8992668D01*
X19997582Y8961777D01*
X19995643Y8946224D01*
X19995643Y8946221D01*
X19999500Y8852966D01*
X19999500Y8821928D01*
X20002062Y8791010D01*
X20005919Y8697763D01*
X20005919Y8697759D01*
X20009136Y8682419D01*
X20013597Y8651800D01*
X20014891Y8636185D01*
X20014893Y8636172D01*
X20023081Y8603839D01*
X20037801Y8545712D01*
X20056951Y8454386D01*
X20062648Y8439784D01*
X20072084Y8410329D01*
X20075933Y8395128D01*
X20113420Y8309665D01*
X20147341Y8222731D01*
X20147345Y8222724D01*
X20155371Y8209254D01*
X20169530Y8181748D01*
X20175824Y8167399D01*
X20175826Y8167395D01*
X20226861Y8089278D01*
X20274628Y8009114D01*
X20274637Y8009102D01*
X20284768Y7997140D01*
X20303265Y7972333D01*
X20311836Y7959215D01*
X20375034Y7890564D01*
X20395100Y7866872D01*
X20417050Y7844922D01*
X20480252Y7776265D01*
X20480259Y7776259D01*
X20492629Y7766631D01*
X20515820Y7746152D01*
X21806511Y6455462D01*
X22246141Y6015832D01*
X22266626Y5992636D01*
X22276262Y5980256D01*
X22344933Y5917040D01*
X22366874Y5895099D01*
X22366877Y5895096D01*
X22390551Y5875045D01*
X22459212Y5811839D01*
X22459217Y5811834D01*
X22472326Y5803270D01*
X22497145Y5784764D01*
X22507734Y5775796D01*
X22509106Y5774634D01*
X22531328Y5761393D01*
X22589272Y5726865D01*
X22647281Y5688967D01*
X22667393Y5675827D01*
X22681744Y5669532D01*
X22709260Y5655369D01*
X22722726Y5647345D01*
X22809651Y5613427D01*
X22895119Y5575937D01*
X22910322Y5572088D01*
X22939783Y5562650D01*
X22954386Y5556951D01*
X22954389Y5556951D01*
X22954390Y5556950D01*
X22954389Y5556950D01*
X23045701Y5537804D01*
X23045702Y5537804D01*
X23136179Y5514892D01*
X23151802Y5513598D01*
X23182419Y5509138D01*
X23197763Y5505920D01*
X23277675Y5502615D01*
X23290993Y5502064D01*
X23297181Y5501552D01*
X23321933Y5499500D01*
X23321937Y5499500D01*
X23352974Y5499500D01*
X23446221Y5495643D01*
X23446233Y5495645D01*
X23466841Y5496496D01*
X23466924Y5494487D01*
X23582873Y5492310D01*
X23708968Y5454136D01*
X23743885Y5438276D01*
X23906139Y5364576D01*
X24123320Y5309852D01*
X24254847Y5299500D01*
X24254852Y5299500D01*
X24870153Y5299500D01*
X24952355Y5305970D01*
X25001680Y5309852D01*
X25218861Y5364576D01*
X25293629Y5398538D01*
X25429988Y5438276D01*
X25572018Y5437988D01*
X25706370Y5398538D01*
X25781139Y5364576D01*
X25998320Y5309852D01*
X26129847Y5299500D01*
X26129852Y5299500D01*
X26745153Y5299500D01*
X26827355Y5305970D01*
X26876680Y5309852D01*
X27093861Y5364576D01*
X27297779Y5457201D01*
X27481882Y5584748D01*
X27640252Y5743118D01*
X27767799Y5927221D01*
X27803067Y6004865D01*
X27860424Y6131138D01*
X27883958Y6224538D01*
X27937908Y6355923D01*
X28014984Y6455458D01*
X28959779Y7400253D01*
X29073477Y7485366D01*
X29138236Y7514940D01*
X29267315Y7563085D01*
X29400154Y7612630D01*
X29400161Y7612633D01*
X29651315Y7749774D01*
X29880395Y7921261D01*
X30082739Y8123605D01*
X30254226Y8352685D01*
X30391367Y8603839D01*
X30491369Y8871954D01*
X30507526Y8946224D01*
X30552194Y9151564D01*
X30552196Y9151572D01*
X30572610Y9437000D01*
X30552196Y9722428D01*
X30513354Y9900984D01*
X30491370Y10002044D01*
X30404362Y10235320D01*
X30391367Y10270161D01*
X30254226Y10521315D01*
X30151333Y10658763D01*
X30082741Y10750393D01*
X29880392Y10952742D01*
X29742946Y11055632D01*
X29651315Y11124226D01*
X29651313Y11124227D01*
X29651312Y11124228D01*
X29400161Y11261367D01*
X29132043Y11361371D01*
X28852436Y11422195D01*
X28852430Y11422196D01*
X28852428Y11422196D01*
X28567000Y11442610D01*
X28281572Y11422196D01*
X28281569Y11422196D01*
X28281563Y11422195D01*
X28001956Y11361371D01*
X27733838Y11261367D01*
X27482687Y11124228D01*
X27482682Y11124224D01*
X27253607Y10952742D01*
X27051258Y10750393D01*
X26879776Y10521318D01*
X26879772Y10521313D01*
X26742633Y10270162D01*
X26642629Y10002044D01*
X26581805Y9722437D01*
X26581804Y9722431D01*
X26581804Y9722428D01*
X26563970Y9473075D01*
X26560119Y9419224D01*
X26556625Y9419474D01*
X26541177Y9312026D01*
X26482176Y9182831D01*
X26415240Y9099770D01*
X26187428Y8871957D01*
X26105458Y8789987D01*
X25991757Y8704872D01*
X25874538Y8658959D01*
X25781139Y8635425D01*
X25781138Y8635425D01*
X25706366Y8601461D01*
X25570007Y8561724D01*
X25427977Y8562014D01*
X25293634Y8601461D01*
X25218863Y8635424D01*
X25075567Y8671531D01*
X25001680Y8690148D01*
X25001678Y8690149D01*
X25001679Y8690149D01*
X24870153Y8700500D01*
X24870148Y8700500D01*
X24254852Y8700500D01*
X24254847Y8700500D01*
X24123314Y8690148D01*
X24111849Y8688266D01*
X23969847Y8685445D01*
X23832802Y8722746D01*
X23711818Y8797145D01*
X23678207Y8827821D01*
X23146650Y9359378D01*
X23061538Y9473075D01*
X23011904Y9606150D01*
X23000500Y9712220D01*
X23000500Y9830977D01*
X23020713Y9971562D01*
X23045166Y10037330D01*
X23135096Y10235317D01*
X23190096Y10453588D01*
X23200500Y10585783D01*
X23200499Y11414216D01*
X23190096Y11546412D01*
X23135096Y11764683D01*
X23088551Y11867155D01*
X23042008Y11969625D01*
X22913820Y12154653D01*
X22913812Y12154662D01*
X22754661Y12313813D01*
X22754652Y12313821D01*
X22569624Y12442009D01*
X22432997Y12504067D01*
X22364683Y12535096D01*
X22146412Y12590096D01*
X22050176Y12597670D01*
X22014221Y12600500D01*
X22014217Y12600500D01*
X21426454Y12600500D01*
X20985781Y12600499D01*
X20853593Y12590097D01*
X20853588Y12590096D01*
X20635316Y12535096D01*
X20430375Y12442009D01*
X20245347Y12313821D01*
X20245338Y12313813D01*
X20086187Y12154662D01*
X20086179Y12154653D01*
X19957991Y11969625D01*
X19870110Y11776146D01*
X19864904Y11764683D01*
X19809904Y11546412D01*
X19809904Y11546408D01*
X19799500Y11414221D01*
X500Y11414221D01*
X500Y101487459D01*
X2633Y101520007D01*
X8192Y101562232D01*
X46588Y101698974D01*
X121953Y101819359D01*
X228182Y101913636D01*
X356669Y101974165D01*
X437791Y101991810D01*
X479972Y101997363D01*
X512572Y101999500D01*
X49441229Y101999500D01*
X49473830Y101997363D01*
G37*
G04 #@! TD.AperFunction*
G04 #@! TA.AperFunction,Conductor*
G36*
X25585090Y95136918D02*
G01*
X25720169Y95093028D01*
X25837411Y95012860D01*
X25927318Y94902909D01*
X25964482Y94821530D01*
X25965624Y94822002D01*
X26061325Y94590958D01*
X26096450Y94453340D01*
X26091380Y94311400D01*
X26061325Y94209042D01*
X25973129Y93996118D01*
X25973127Y93996111D01*
X25919594Y93773127D01*
X25914317Y93751148D01*
X25894551Y93500000D01*
X25914317Y93248852D01*
X25914317Y93248849D01*
X25914318Y93248847D01*
X25930516Y93181379D01*
X25973127Y93003889D01*
X26042990Y92835223D01*
X26061325Y92790960D01*
X26096450Y92653341D01*
X26091380Y92511402D01*
X26061326Y92409044D01*
X25965625Y92177999D01*
X25963841Y92178738D01*
X25911905Y92073110D01*
X25815865Y91968472D01*
X25694237Y91895130D01*
X25556872Y91859026D01*
X25414900Y91863085D01*
X25279822Y91906978D01*
X25162581Y91987148D01*
X25072677Y92097101D01*
X25035517Y92178470D01*
X25034376Y92177997D01*
X24938675Y92409040D01*
X24930466Y92428859D01*
X24798836Y92643659D01*
X24798832Y92643663D01*
X24798830Y92643667D01*
X24635226Y92835223D01*
X24635222Y92835227D01*
X24443666Y92998831D01*
X24443661Y92998834D01*
X24443659Y92998836D01*
X24408203Y93020564D01*
X24320131Y93074535D01*
X24210825Y93165225D01*
X24131497Y93283037D01*
X24088573Y93418426D01*
X24085532Y93560423D01*
X24122619Y93697526D01*
X24196830Y93818626D01*
X24302153Y93913913D01*
X24320073Y93925431D01*
X24443659Y94001164D01*
X24635224Y94164776D01*
X24798836Y94356341D01*
X24930466Y94571141D01*
X25026873Y94803889D01*
X25026874Y94803892D01*
X25034376Y94822003D01*
X25036160Y94821264D01*
X25088089Y94926883D01*
X25184127Y95031522D01*
X25305754Y95104867D01*
X25443118Y95140973D01*
X25585090Y95136918D01*
G37*
G04 #@! TD.AperFunction*
G04 #@! TD*
M02*
