G04 #@! TF.GenerationSoftware,KiCad,Pcbnew,7.0.7*
G04 #@! TF.CreationDate,2024-06-01T11:55:00+01:00*
G04 #@! TF.ProjectId,Controller,436f6e74-726f-46c6-9c65-722e6b696361,rev?*
G04 #@! TF.SameCoordinates,PX78a3ca0PY7e5ca20*
G04 #@! TF.FileFunction,Copper,L2,Bot*
G04 #@! TF.FilePolarity,Positive*
%FSLAX46Y46*%
G04 Gerber Fmt 4.6, Leading zero omitted, Abs format (unit mm)*
G04 Created by KiCad (PCBNEW 7.0.7) date 2024-06-01 11:55:00*
%MOMM*%
%LPD*%
G01*
G04 APERTURE LIST*
G04 #@! TA.AperFunction,ComponentPad*
%ADD10C,4.000000*%
G04 #@! TD*
G04 #@! TA.AperFunction,ComponentPad*
%ADD11O,2.000000X1.200000*%
G04 #@! TD*
G04 #@! TA.AperFunction,ViaPad*
%ADD12C,2.000000*%
G04 #@! TD*
G04 #@! TA.AperFunction,Conductor*
%ADD13C,1.000000*%
G04 #@! TD*
G04 #@! TA.AperFunction,Conductor*
%ADD14C,0.200000*%
G04 #@! TD*
G04 APERTURE END LIST*
D10*
G04 #@! TO.P,BT1,1,+*
G04 #@! TO.N,Net-(BT1-+)*
X17880000Y51220000D03*
X31850000Y51220000D03*
G04 #@! TO.P,BT1,2,-*
G04 #@! TO.N,Net-(BT1--)*
X19150000Y89000000D03*
X31850000Y89000000D03*
G04 #@! TD*
D11*
G04 #@! TO.P,SW1,1,A*
G04 #@! TO.N,unconnected-(SW1-A-Pad1)*
X23100000Y95300000D03*
G04 #@! TO.P,SW1,2,B*
G04 #@! TO.N,Batt-*
X23100000Y93500000D03*
G04 #@! TO.P,SW1,3,C*
G04 #@! TO.N,Net-(BT1--)*
X23100000Y91700000D03*
G04 #@! TO.P,SW1,4,A*
G04 #@! TO.N,unconnected-(SW1-A-Pad4)*
X27900000Y95300000D03*
G04 #@! TO.P,SW1,5,B*
G04 #@! TO.N,Batt+*
X27900000Y93500000D03*
G04 #@! TO.P,SW1,6,C*
G04 #@! TO.N,Net-(BT1-+)*
X27900000Y91700000D03*
G04 #@! TD*
D12*
G04 #@! TO.N,Batt-*
X3675000Y43447600D03*
G04 #@! TO.N,Batt+*
X18534000Y45251000D03*
G04 #@! TO.N,Net-(U1-GPIO1)*
X18788000Y23153000D03*
X34155000Y43727000D03*
G04 #@! TO.N,Net-(D1-A)*
X16248000Y42965000D03*
X28567000Y9437000D03*
G04 #@! TD*
D13*
G04 #@! TO.N,Batt-*
X3675000Y43447600D02*
X3624200Y43498400D01*
X3624200Y43498400D02*
X3624200Y66917200D01*
X3624200Y66917200D02*
X12184000Y75477000D01*
X12184000Y75477000D02*
X12184000Y87647000D01*
X12184000Y87647000D02*
X18037000Y93500000D01*
G04 #@! TO.N,Net-(BT1-+)*
X31850000Y51220000D02*
X37711000Y51220000D01*
X37711000Y51220000D02*
X39489000Y52998000D01*
X39489000Y86817680D02*
X33811680Y92495000D01*
X39489000Y52998000D02*
X39489000Y86817680D01*
X30185000Y91700000D02*
X27900000Y91700000D01*
X33811680Y92495000D02*
X30980000Y92495000D01*
X30980000Y92495000D02*
X30185000Y91700000D01*
G04 #@! TO.N,Batt+*
X18534000Y45251000D02*
X31323320Y45251000D01*
X35792320Y49720000D02*
X38332320Y49720000D01*
X38332320Y49720000D02*
X40989000Y52376680D01*
X31323320Y45251000D02*
X35792320Y49720000D01*
X40989000Y52376680D02*
X40989000Y87439000D01*
X40989000Y87439000D02*
X34409000Y94019000D01*
X34409000Y94019000D02*
X30345000Y94019000D01*
D14*
G04 #@! TO.N,Batt-*
X18037000Y93500000D02*
X17899000Y93638000D01*
D13*
X23100000Y93500000D02*
X18037000Y93500000D01*
G04 #@! TO.N,Batt+*
X29826000Y93500000D02*
X27900000Y93500000D01*
X29826000Y93500000D02*
X30345000Y94019000D01*
D14*
X30345000Y94019000D02*
X30726000Y94019000D01*
D13*
G04 #@! TO.N,Net-(BT1-+)*
X18915000Y47791000D02*
X31234000Y47791000D01*
X17880000Y51220000D02*
X17880000Y48826000D01*
X31850000Y47899000D02*
X31850000Y51220000D01*
X31234000Y47791000D02*
X31488000Y47537000D01*
X17880000Y48826000D02*
X18915000Y47791000D01*
X31488000Y47537000D02*
X31850000Y47899000D01*
G04 #@! TO.N,Net-(BT1--)*
X19150000Y89000000D02*
X20400000Y89000000D01*
X20400000Y89000000D02*
X23100000Y91700000D01*
X31850000Y89000000D02*
X19150000Y89000000D01*
G04 #@! TO.N,Net-(U1-GPIO1)*
X18280000Y39917000D02*
X18280000Y23661000D01*
X18280000Y23661000D02*
X18788000Y23153000D01*
X34155000Y43727000D02*
X22090000Y43727000D01*
X22090000Y43727000D02*
X18280000Y39917000D01*
G04 #@! TO.N,Net-(D1-A)*
X28313000Y9691000D02*
X28567000Y9437000D01*
X16248000Y42965000D02*
X16248000Y16803000D01*
X23360000Y9691000D02*
X28313000Y9691000D01*
X16248000Y16803000D02*
X23360000Y9691000D01*
G04 #@! TD*
G04 #@! TA.AperFunction,Conductor*
G04 #@! TO.N,Batt-*
G36*
X49473830Y101997363D02*
G01*
X49516012Y101991810D01*
X49652754Y101953420D01*
X49773143Y101878060D01*
X49867424Y101771835D01*
X49927958Y101643351D01*
X49945607Y101562226D01*
X49951662Y101516242D01*
X49953800Y101483634D01*
X49953800Y46054800D01*
X49933587Y45914215D01*
X49874586Y45785020D01*
X49781576Y45677681D01*
X49662092Y45600894D01*
X49525815Y45560879D01*
X49454800Y45555800D01*
X35066306Y45555800D01*
X34925721Y45576013D01*
X34891924Y45587262D01*
X34810737Y45617543D01*
X34686080Y45685610D01*
X34585650Y45786041D01*
X34517581Y45910697D01*
X34487390Y46049482D01*
X34497523Y46191150D01*
X34547157Y46324225D01*
X34632266Y46437920D01*
X36267693Y48073347D01*
X36381394Y48158462D01*
X36514469Y48208096D01*
X36620539Y48219500D01*
X38223650Y48219500D01*
X38254541Y48217582D01*
X38261200Y48216753D01*
X38270099Y48215643D01*
X38363355Y48219500D01*
X38394387Y48219500D01*
X38425310Y48222063D01*
X38518557Y48225919D01*
X38533906Y48229138D01*
X38564527Y48233599D01*
X38580141Y48234892D01*
X38670608Y48257802D01*
X38761934Y48276951D01*
X38776541Y48282652D01*
X38805984Y48292084D01*
X38821201Y48295937D01*
X38906650Y48333420D01*
X38918885Y48338194D01*
X38993594Y48367344D01*
X39007073Y48375377D01*
X39034573Y48389532D01*
X39048927Y48395827D01*
X39107511Y48434103D01*
X39127039Y48446860D01*
X39147341Y48458959D01*
X39207214Y48494634D01*
X39219172Y48504763D01*
X39243981Y48523263D01*
X39257105Y48531836D01*
X39325755Y48595034D01*
X39342539Y48609248D01*
X39349446Y48615098D01*
X39349449Y48615101D01*
X39371397Y48637050D01*
X39379392Y48644411D01*
X39440058Y48700256D01*
X39449687Y48712629D01*
X39470158Y48735812D01*
X41973188Y51238842D01*
X41996371Y51259313D01*
X42008744Y51268942D01*
X42071949Y51337602D01*
X42093902Y51359554D01*
X42113966Y51383245D01*
X42177164Y51451895D01*
X42185735Y51465016D01*
X42204233Y51489823D01*
X42214366Y51501786D01*
X42262136Y51581956D01*
X42313173Y51660073D01*
X42319471Y51674433D01*
X42333627Y51701935D01*
X42341656Y51715407D01*
X42375576Y51802340D01*
X42413063Y51887799D01*
X42416910Y51902995D01*
X42426348Y51932458D01*
X42432049Y51947066D01*
X42451198Y52038392D01*
X42474108Y52128859D01*
X42475401Y52144473D01*
X42479862Y52175094D01*
X42483081Y52190443D01*
X42486937Y52283690D01*
X42489500Y52314613D01*
X42489500Y52345645D01*
X42493357Y52438901D01*
X42491417Y52454458D01*
X42489500Y52485348D01*
X42489500Y87330331D01*
X42491418Y87361223D01*
X42493357Y87376780D01*
X42489500Y87470027D01*
X42489500Y87501063D01*
X42486936Y87532007D01*
X42483080Y87625231D01*
X42483080Y87625237D01*
X42479862Y87640581D01*
X42475402Y87671198D01*
X42474108Y87686821D01*
X42451196Y87777298D01*
X42432049Y87868614D01*
X42426350Y87883217D01*
X42416912Y87912678D01*
X42413063Y87927881D01*
X42375579Y88013336D01*
X42341656Y88100274D01*
X42333626Y88113750D01*
X42319460Y88141273D01*
X42313173Y88155607D01*
X42262139Y88233721D01*
X42214366Y88313894D01*
X42204227Y88325865D01*
X42185734Y88350667D01*
X42177164Y88363785D01*
X42177163Y88363786D01*
X42177162Y88363788D01*
X42113966Y88432436D01*
X42093901Y88456127D01*
X42093901Y88456128D01*
X42071949Y88478079D01*
X42008744Y88546738D01*
X41996368Y88556371D01*
X41973180Y88576848D01*
X35546848Y95003180D01*
X35526369Y95026371D01*
X35516741Y95038741D01*
X35516735Y95038748D01*
X35448078Y95101950D01*
X35426128Y95123900D01*
X35402436Y95143966D01*
X35333785Y95207164D01*
X35320667Y95215735D01*
X35295860Y95234232D01*
X35283898Y95244363D01*
X35283886Y95244372D01*
X35203722Y95292139D01*
X35125605Y95343174D01*
X35125601Y95343176D01*
X35111252Y95349470D01*
X35083746Y95363629D01*
X35070276Y95371655D01*
X35070269Y95371659D01*
X34983335Y95405580D01*
X34897872Y95443067D01*
X34882671Y95446916D01*
X34853216Y95456352D01*
X34838614Y95462049D01*
X34838613Y95462050D01*
X34838611Y95462050D01*
X34813901Y95467231D01*
X34747288Y95481199D01*
X34692275Y95495130D01*
X34656828Y95504107D01*
X34656815Y95504109D01*
X34641200Y95505403D01*
X34610581Y95509864D01*
X34595239Y95513081D01*
X34501990Y95516938D01*
X34471072Y95519500D01*
X34471067Y95519500D01*
X34440035Y95519500D01*
X34393661Y95521418D01*
X34346781Y95523357D01*
X34346774Y95523357D01*
X34331221Y95521418D01*
X34300330Y95519500D01*
X30453670Y95519500D01*
X30422779Y95521418D01*
X30407225Y95523357D01*
X30407218Y95523357D01*
X30337279Y95520465D01*
X30313965Y95519500D01*
X30274870Y95519500D01*
X30134285Y95539713D01*
X30005090Y95598714D01*
X29897751Y95691724D01*
X29820964Y95811208D01*
X29813854Y95827541D01*
X29730466Y96028859D01*
X29598836Y96243659D01*
X29598832Y96243663D01*
X29598830Y96243667D01*
X29435226Y96435223D01*
X29435222Y96435227D01*
X29243666Y96598831D01*
X29243660Y96598835D01*
X29243659Y96598836D01*
X29028859Y96730466D01*
X28796111Y96826873D01*
X28796110Y96826873D01*
X28551154Y96885682D01*
X28551151Y96885683D01*
X28551148Y96885683D01*
X28433226Y96894964D01*
X28362886Y96900500D01*
X28362882Y96900500D01*
X27437118Y96900500D01*
X27437114Y96900500D01*
X27372782Y96895437D01*
X27248852Y96885683D01*
X27248848Y96885683D01*
X27248847Y96885682D01*
X27248843Y96885682D01*
X27003889Y96826873D01*
X27003887Y96826873D01*
X26771140Y96730466D01*
X26556348Y96598841D01*
X26556333Y96598831D01*
X26364777Y96435227D01*
X26364773Y96435223D01*
X26201169Y96243667D01*
X26201159Y96243652D01*
X26069534Y96028860D01*
X25965624Y95777997D01*
X25963840Y95778736D01*
X25911905Y95673110D01*
X25815865Y95568472D01*
X25694237Y95495130D01*
X25556872Y95459026D01*
X25414900Y95463085D01*
X25279822Y95506978D01*
X25162581Y95587148D01*
X25072677Y95697101D01*
X25035517Y95778470D01*
X25034376Y95777997D01*
X25013854Y95827541D01*
X24930466Y96028859D01*
X24798836Y96243659D01*
X24798832Y96243663D01*
X24798830Y96243667D01*
X24635226Y96435223D01*
X24635222Y96435227D01*
X24443666Y96598831D01*
X24443660Y96598835D01*
X24443659Y96598836D01*
X24228859Y96730466D01*
X23996111Y96826873D01*
X23751154Y96885682D01*
X23751151Y96885683D01*
X23751148Y96885683D01*
X23633226Y96894964D01*
X23562886Y96900500D01*
X23562882Y96900500D01*
X22637118Y96900500D01*
X22637114Y96900500D01*
X22572782Y96895437D01*
X22448852Y96885683D01*
X22448848Y96885683D01*
X22448847Y96885682D01*
X22448843Y96885682D01*
X22203889Y96826873D01*
X22203887Y96826873D01*
X21971140Y96730466D01*
X21756348Y96598841D01*
X21756333Y96598831D01*
X21564777Y96435227D01*
X21564773Y96435223D01*
X21401169Y96243667D01*
X21401159Y96243652D01*
X21269534Y96028860D01*
X21173127Y95796113D01*
X21173127Y95796111D01*
X21122960Y95587148D01*
X21114317Y95551148D01*
X21094551Y95300000D01*
X21114317Y95048852D01*
X21114317Y95048849D01*
X21114318Y95048847D01*
X21122958Y95012860D01*
X21168778Y94822002D01*
X21173127Y94803890D01*
X21173127Y94803888D01*
X21269534Y94571141D01*
X21401159Y94356349D01*
X21401169Y94356334D01*
X21564773Y94164778D01*
X21564777Y94164774D01*
X21756333Y94001170D01*
X21756336Y94001168D01*
X21756341Y94001164D01*
X21879868Y93925466D01*
X21989172Y93834780D01*
X22068501Y93716968D01*
X22111425Y93581580D01*
X22114468Y93439582D01*
X22077382Y93302479D01*
X22003171Y93181379D01*
X21897849Y93086091D01*
X21879869Y93074536D01*
X21756351Y92998843D01*
X21756333Y92998831D01*
X21564777Y92835227D01*
X21564773Y92835223D01*
X21401169Y92643667D01*
X21401159Y92643652D01*
X21269534Y92428860D01*
X21173127Y92196113D01*
X21173124Y92196102D01*
X21136933Y92045356D01*
X21084460Y91913374D01*
X20996928Y91801523D01*
X20881430Y91718862D01*
X20747322Y91672090D01*
X20605470Y91664994D01*
X20467364Y91698151D01*
X20427773Y91715922D01*
X20398077Y91730836D01*
X20340458Y91759774D01*
X20340451Y91759777D01*
X20012011Y91879319D01*
X20012003Y91879322D01*
X19671923Y91959922D01*
X19324761Y92000500D01*
X19324759Y92000500D01*
X18975241Y92000500D01*
X18975239Y92000500D01*
X18628076Y91959922D01*
X18287996Y91879322D01*
X18287988Y91879319D01*
X17959548Y91759777D01*
X17959534Y91759771D01*
X17647207Y91602914D01*
X17355191Y91410851D01*
X17087444Y91186185D01*
X16847589Y90931955D01*
X16638867Y90651594D01*
X16638865Y90651590D01*
X16464120Y90348923D01*
X16464111Y90348907D01*
X16325674Y90027973D01*
X16325671Y90027966D01*
X16225432Y89693143D01*
X16225427Y89693122D01*
X16164737Y89348925D01*
X16144415Y89000000D01*
X16164737Y88651076D01*
X16225427Y88306879D01*
X16225432Y88306858D01*
X16325671Y87972035D01*
X16325674Y87972028D01*
X16464111Y87651094D01*
X16464120Y87651078D01*
X16638865Y87348411D01*
X16638867Y87348407D01*
X16795408Y87138137D01*
X16847588Y87068047D01*
X17087442Y86813817D01*
X17355189Y86589151D01*
X17355191Y86589150D01*
X17647207Y86397087D01*
X17959534Y86240230D01*
X17959541Y86240227D01*
X17959549Y86240223D01*
X18287989Y86120681D01*
X18287993Y86120680D01*
X18287996Y86120679D01*
X18628076Y86040079D01*
X18628079Y86040079D01*
X18628086Y86040077D01*
X18899030Y86008408D01*
X18975239Y85999500D01*
X18975241Y85999500D01*
X19324761Y85999500D01*
X19393431Y86007527D01*
X19671914Y86040077D01*
X19671921Y86040079D01*
X19671923Y86040079D01*
X20012003Y86120679D01*
X20012003Y86120680D01*
X20012011Y86120681D01*
X20340451Y86240223D01*
X20652793Y86397087D01*
X20944811Y86589151D01*
X21212558Y86813817D01*
X21452412Y87068047D01*
X21623965Y87298484D01*
X21724129Y87399178D01*
X21848605Y87467575D01*
X21987309Y87498133D01*
X22024224Y87499500D01*
X28975776Y87499500D01*
X29116361Y87479287D01*
X29245556Y87420286D01*
X29352895Y87327276D01*
X29376029Y87298490D01*
X29547588Y87068047D01*
X29787442Y86813817D01*
X30055189Y86589151D01*
X30055191Y86589150D01*
X30347207Y86397087D01*
X30659534Y86240230D01*
X30659541Y86240227D01*
X30659549Y86240223D01*
X30987989Y86120681D01*
X30987993Y86120680D01*
X30987996Y86120679D01*
X31328076Y86040079D01*
X31328079Y86040079D01*
X31328086Y86040077D01*
X31599030Y86008408D01*
X31675239Y85999500D01*
X31675241Y85999500D01*
X32024761Y85999500D01*
X32093431Y86007527D01*
X32371914Y86040077D01*
X32371921Y86040079D01*
X32371923Y86040079D01*
X32712003Y86120679D01*
X32712003Y86120680D01*
X32712011Y86120681D01*
X33040451Y86240223D01*
X33352793Y86397087D01*
X33644811Y86589151D01*
X33912558Y86813817D01*
X34152412Y87068047D01*
X34361130Y87348404D01*
X34449270Y87501067D01*
X34535879Y87651078D01*
X34535888Y87651094D01*
X34629717Y87868614D01*
X34674326Y87972029D01*
X34774569Y88306864D01*
X34774572Y88306879D01*
X34777918Y88320996D01*
X34779989Y88320506D01*
X34817779Y88435603D01*
X34898307Y88552598D01*
X35008535Y88642166D01*
X35139531Y88697052D01*
X35280685Y88712808D01*
X35420560Y88688159D01*
X35547824Y88625101D01*
X35617748Y88566904D01*
X37842346Y86342306D01*
X37927462Y86228605D01*
X37977096Y86095530D01*
X37988500Y85989460D01*
X37988500Y53826220D01*
X37968287Y53685635D01*
X37909286Y53556440D01*
X37842346Y53473374D01*
X37235626Y52866654D01*
X37121925Y52781538D01*
X36988850Y52731904D01*
X36882780Y52720500D01*
X34724224Y52720500D01*
X34583639Y52740713D01*
X34454444Y52799714D01*
X34347105Y52892724D01*
X34323964Y52921518D01*
X34152412Y53151953D01*
X33912558Y53406183D01*
X33644811Y53630849D01*
X33561513Y53685635D01*
X33352792Y53822914D01*
X33040465Y53979771D01*
X33040451Y53979777D01*
X32712011Y54099319D01*
X32712003Y54099322D01*
X32371923Y54179922D01*
X32024761Y54220500D01*
X32024759Y54220500D01*
X31675241Y54220500D01*
X31675239Y54220500D01*
X31328076Y54179922D01*
X30987996Y54099322D01*
X30987988Y54099319D01*
X30659548Y53979777D01*
X30659534Y53979771D01*
X30347207Y53822914D01*
X30055191Y53630851D01*
X29787444Y53406185D01*
X29547589Y53151955D01*
X29338867Y52871594D01*
X29338865Y52871590D01*
X29164120Y52568923D01*
X29164111Y52568907D01*
X29025674Y52247973D01*
X29025671Y52247966D01*
X28925432Y51913143D01*
X28925427Y51913122D01*
X28864737Y51568925D01*
X28844415Y51220000D01*
X28864737Y50871076D01*
X28925427Y50526879D01*
X28925432Y50526858D01*
X29025671Y50192035D01*
X29025677Y50192021D01*
X29113621Y49988143D01*
X29150744Y49851050D01*
X29147739Y49709052D01*
X29104851Y49573652D01*
X29025553Y49455820D01*
X28916270Y49365101D01*
X28785855Y49308846D01*
X28655431Y49291500D01*
X21074569Y49291500D01*
X20933984Y49311713D01*
X20804789Y49370714D01*
X20697450Y49463724D01*
X20620663Y49583208D01*
X20580648Y49719485D01*
X20580648Y49861515D01*
X20616379Y49988143D01*
X20669716Y50111795D01*
X20704326Y50192029D01*
X20804569Y50526864D01*
X20865262Y50871073D01*
X20885585Y51220000D01*
X20865262Y51568927D01*
X20824105Y51802343D01*
X20804572Y51913122D01*
X20804567Y51913143D01*
X20704328Y52247966D01*
X20704325Y52247973D01*
X20565888Y52568907D01*
X20565879Y52568923D01*
X20391134Y52871590D01*
X20391132Y52871594D01*
X20286770Y53011775D01*
X20182412Y53151953D01*
X19942558Y53406183D01*
X19674811Y53630849D01*
X19591513Y53685635D01*
X19382792Y53822914D01*
X19070465Y53979771D01*
X19070451Y53979777D01*
X18742011Y54099319D01*
X18742003Y54099322D01*
X18401923Y54179922D01*
X18054761Y54220500D01*
X18054759Y54220500D01*
X17705241Y54220500D01*
X17705239Y54220500D01*
X17358076Y54179922D01*
X17017996Y54099322D01*
X17017988Y54099319D01*
X16689548Y53979777D01*
X16689534Y53979771D01*
X16377207Y53822914D01*
X16085191Y53630851D01*
X15817444Y53406185D01*
X15577589Y53151955D01*
X15368867Y52871594D01*
X15368865Y52871590D01*
X15194120Y52568923D01*
X15194111Y52568907D01*
X15055674Y52247973D01*
X15055671Y52247966D01*
X14955432Y51913143D01*
X14955427Y51913122D01*
X14894737Y51568925D01*
X14874415Y51220000D01*
X14894737Y50871076D01*
X14955427Y50526879D01*
X14955432Y50526858D01*
X15055671Y50192035D01*
X15055674Y50192028D01*
X15194111Y49871094D01*
X15194120Y49871078D01*
X15368865Y49568411D01*
X15368867Y49568407D01*
X15516045Y49370714D01*
X15577588Y49288047D01*
X15817442Y49033817D01*
X16085189Y48809151D01*
X16220888Y48719900D01*
X16327235Y48625762D01*
X16402755Y48505474D01*
X16435061Y48405397D01*
X16436948Y48396393D01*
X16436951Y48396386D01*
X16442648Y48381784D01*
X16452084Y48352329D01*
X16455933Y48337128D01*
X16493420Y48251665D01*
X16527341Y48164731D01*
X16527345Y48164724D01*
X16535371Y48151254D01*
X16549530Y48123748D01*
X16555824Y48109399D01*
X16555826Y48109395D01*
X16606861Y48031278D01*
X16654628Y47951114D01*
X16654637Y47951102D01*
X16664768Y47939140D01*
X16683265Y47914333D01*
X16691836Y47901215D01*
X16755034Y47832564D01*
X16775100Y47808872D01*
X16797050Y47786922D01*
X16860252Y47718265D01*
X16860259Y47718259D01*
X16872629Y47708631D01*
X16895820Y47688152D01*
X17166073Y47417900D01*
X17166073Y47417899D01*
X17251189Y47304198D01*
X17300823Y47171123D01*
X17310956Y47029455D01*
X17280765Y46890670D01*
X17212697Y46766013D01*
X17166073Y46712207D01*
X17018258Y46564393D01*
X16846776Y46335318D01*
X16846772Y46335313D01*
X16709633Y46084162D01*
X16609629Y45816044D01*
X16548805Y45536437D01*
X16540521Y45420609D01*
X16510330Y45281825D01*
X16442262Y45157168D01*
X16341831Y45056738D01*
X16217174Y44988670D01*
X16078394Y44958480D01*
X15962572Y44950196D01*
X15962569Y44950196D01*
X15962563Y44950195D01*
X15682956Y44889371D01*
X15414838Y44789367D01*
X15163687Y44652228D01*
X15163682Y44652224D01*
X14934607Y44480742D01*
X14732258Y44278393D01*
X14560776Y44049318D01*
X14560772Y44049313D01*
X14423633Y43798162D01*
X14323629Y43530044D01*
X14262805Y43250437D01*
X14242390Y42965000D01*
X14262805Y42679564D01*
X14323629Y42399957D01*
X14395865Y42206287D01*
X14423633Y42131839D01*
X14560774Y41880685D01*
X14647972Y41764202D01*
X14716038Y41639549D01*
X14746229Y41500764D01*
X14747500Y41465166D01*
X14747500Y16911668D01*
X14745582Y16880777D01*
X14743643Y16865224D01*
X14743643Y16865221D01*
X14747500Y16771966D01*
X14747500Y16740928D01*
X14750062Y16710010D01*
X14753919Y16616763D01*
X14753919Y16616759D01*
X14757136Y16601419D01*
X14761597Y16570800D01*
X14762891Y16555185D01*
X14762893Y16555172D01*
X14772878Y16515745D01*
X14785801Y16464712D01*
X14804951Y16373386D01*
X14810648Y16358784D01*
X14820084Y16329329D01*
X14823933Y16314128D01*
X14861420Y16228665D01*
X14895341Y16141731D01*
X14895345Y16141724D01*
X14903371Y16128254D01*
X14917530Y16100748D01*
X14923824Y16086399D01*
X14923826Y16086395D01*
X14974861Y16008278D01*
X15022628Y15928114D01*
X15022637Y15928102D01*
X15032768Y15916140D01*
X15051265Y15891333D01*
X15059836Y15878215D01*
X15123034Y15809564D01*
X15143100Y15785872D01*
X15165050Y15763922D01*
X15228252Y15695265D01*
X15228259Y15695259D01*
X15240629Y15685631D01*
X15263820Y15665152D01*
X22222152Y8706820D01*
X22242629Y8683632D01*
X22252262Y8671256D01*
X22320921Y8608051D01*
X22342872Y8586100D01*
X22342873Y8586099D01*
X22366564Y8566034D01*
X22435213Y8502838D01*
X22435217Y8502834D01*
X22448326Y8494270D01*
X22473145Y8475764D01*
X22482511Y8467832D01*
X22485106Y8465634D01*
X22565275Y8417864D01*
X22643393Y8366827D01*
X22657749Y8360530D01*
X22685253Y8346373D01*
X22698727Y8338344D01*
X22698728Y8338344D01*
X22698731Y8338342D01*
X22785659Y8304424D01*
X22871119Y8266937D01*
X22886327Y8263086D01*
X22915789Y8253647D01*
X22930386Y8247951D01*
X23021711Y8228802D01*
X23112179Y8205892D01*
X23127804Y8204598D01*
X23158413Y8200138D01*
X23173763Y8196919D01*
X23267009Y8193063D01*
X23297933Y8190500D01*
X23297937Y8190500D01*
X23328965Y8190500D01*
X23422221Y8186643D01*
X23432178Y8187885D01*
X23437779Y8188582D01*
X23468670Y8190500D01*
X26777674Y8190500D01*
X26918259Y8170287D01*
X27047454Y8111286D01*
X27130520Y8044346D01*
X27253607Y7921259D01*
X27345236Y7852667D01*
X27482685Y7749774D01*
X27733839Y7612633D01*
X27924648Y7541465D01*
X28001956Y7512630D01*
X28262138Y7456032D01*
X28281572Y7451804D01*
X28567000Y7431390D01*
X28852428Y7451804D01*
X28972048Y7477826D01*
X29132043Y7512630D01*
X29132046Y7512631D01*
X29400161Y7612633D01*
X29651315Y7749774D01*
X29880395Y7921261D01*
X30082739Y8123605D01*
X30254226Y8352685D01*
X30391367Y8603839D01*
X30491369Y8871954D01*
X30552196Y9151572D01*
X30572610Y9437000D01*
X30552196Y9722428D01*
X30547968Y9741862D01*
X30491370Y10002044D01*
X30462535Y10079352D01*
X30391367Y10270161D01*
X30254226Y10521315D01*
X30151333Y10658763D01*
X30082741Y10750393D01*
X29880392Y10952742D01*
X29742946Y11055632D01*
X29651315Y11124226D01*
X29651313Y11124227D01*
X29651312Y11124228D01*
X29400161Y11261367D01*
X29132043Y11361371D01*
X28852436Y11422195D01*
X28852430Y11422196D01*
X28852428Y11422196D01*
X28567000Y11442610D01*
X28281572Y11422196D01*
X28281569Y11422196D01*
X28281563Y11422195D01*
X28001956Y11361371D01*
X27733849Y11261371D01*
X27733842Y11261369D01*
X27733839Y11261367D01*
X27717667Y11252537D01*
X27584596Y11202904D01*
X27478526Y11191500D01*
X24188220Y11191500D01*
X24047635Y11211713D01*
X23918440Y11270714D01*
X23835374Y11337654D01*
X17894654Y17278375D01*
X17809538Y17392076D01*
X17759904Y17525151D01*
X17748500Y17631221D01*
X17748500Y20712621D01*
X17768713Y20853206D01*
X17827714Y20982401D01*
X17920724Y21089740D01*
X18040208Y21166527D01*
X18176485Y21206542D01*
X18318515Y21206542D01*
X18353573Y21200217D01*
X18502572Y21167804D01*
X18788000Y21147390D01*
X19073428Y21167804D01*
X19222429Y21200217D01*
X19353043Y21228630D01*
X19353046Y21228631D01*
X19621161Y21328633D01*
X19872315Y21465774D01*
X20101395Y21637261D01*
X20303739Y21839605D01*
X20475226Y22068685D01*
X20612367Y22319839D01*
X20712369Y22587954D01*
X20773196Y22867572D01*
X20793610Y23153000D01*
X20773196Y23438428D01*
X20768968Y23457862D01*
X20712370Y23718044D01*
X20683535Y23795352D01*
X20612367Y23986161D01*
X20475226Y24237315D01*
X20372333Y24374763D01*
X20303741Y24466393D01*
X20101394Y24668740D01*
X19980460Y24759270D01*
X19880030Y24859701D01*
X19811962Y24984357D01*
X19781771Y25123142D01*
X19780500Y25158740D01*
X19780500Y39088782D01*
X19800713Y39229367D01*
X19859714Y39358562D01*
X19926649Y39441623D01*
X22565372Y42080346D01*
X22679074Y42165462D01*
X22812149Y42215096D01*
X22918219Y42226500D01*
X25001000Y42226500D01*
X25141585Y42206287D01*
X25270780Y42147286D01*
X25378119Y42054276D01*
X25454906Y41934792D01*
X25494921Y41798515D01*
X25500000Y41727501D01*
X25500000Y21000000D01*
X49096199Y21000000D01*
X49096200Y21000000D01*
X49101954Y21005755D01*
X49215652Y21090868D01*
X49348727Y21140504D01*
X49490395Y21150637D01*
X49629180Y21120447D01*
X49753837Y21052380D01*
X49854268Y20951950D01*
X49922337Y20827294D01*
X49952528Y20688510D01*
X49953800Y20652908D01*
X49953800Y580767D01*
X49951662Y548159D01*
X49945607Y502175D01*
X49907213Y365433D01*
X49831850Y245046D01*
X49725622Y150769D01*
X49597136Y90238D01*
X49516027Y72593D01*
X49489655Y69121D01*
X49470035Y66538D01*
X49437435Y64400D01*
X516366Y64400D01*
X483762Y66538D01*
X472467Y68025D01*
X437774Y72593D01*
X301032Y110987D01*
X180645Y186350D01*
X86368Y292578D01*
X25837Y421064D01*
X8193Y502169D01*
X7682Y506047D01*
X2633Y544393D01*
X500Y576943D01*
X500Y101487459D01*
X2633Y101520007D01*
X8192Y101562232D01*
X46588Y101698974D01*
X121953Y101819359D01*
X228182Y101913636D01*
X356669Y101974165D01*
X437791Y101991810D01*
X479972Y101997363D01*
X512572Y101999500D01*
X49441229Y101999500D01*
X49473830Y101997363D01*
G37*
G04 #@! TD.AperFunction*
G04 #@! TA.AperFunction,Conductor*
G36*
X25585090Y95136918D02*
G01*
X25720169Y95093028D01*
X25837411Y95012860D01*
X25927318Y94902909D01*
X25964482Y94821530D01*
X25965624Y94822002D01*
X26061325Y94590958D01*
X26096450Y94453340D01*
X26091380Y94311400D01*
X26061325Y94209042D01*
X25973129Y93996118D01*
X25973127Y93996111D01*
X25919594Y93773127D01*
X25914317Y93751148D01*
X25894551Y93500000D01*
X25914317Y93248852D01*
X25914317Y93248849D01*
X25914318Y93248847D01*
X25930516Y93181379D01*
X25973127Y93003889D01*
X26042990Y92835223D01*
X26061325Y92790960D01*
X26096450Y92653341D01*
X26091380Y92511402D01*
X26061326Y92409044D01*
X25965625Y92177999D01*
X25963841Y92178738D01*
X25911905Y92073110D01*
X25815865Y91968472D01*
X25694237Y91895130D01*
X25556872Y91859026D01*
X25414900Y91863085D01*
X25279822Y91906978D01*
X25162581Y91987148D01*
X25072677Y92097101D01*
X25035517Y92178470D01*
X25034376Y92177997D01*
X25026872Y92196113D01*
X24930466Y92428859D01*
X24798836Y92643659D01*
X24798832Y92643663D01*
X24798830Y92643667D01*
X24635226Y92835223D01*
X24635222Y92835227D01*
X24443666Y92998831D01*
X24443661Y92998834D01*
X24443659Y92998836D01*
X24408203Y93020564D01*
X24320131Y93074535D01*
X24210825Y93165225D01*
X24131497Y93283037D01*
X24088573Y93418426D01*
X24085532Y93560423D01*
X24122619Y93697526D01*
X24196830Y93818626D01*
X24302153Y93913913D01*
X24320073Y93925431D01*
X24443659Y94001164D01*
X24635224Y94164776D01*
X24798836Y94356341D01*
X24930466Y94571141D01*
X25026873Y94803889D01*
X25026873Y94803890D01*
X25034376Y94822003D01*
X25036160Y94821264D01*
X25088089Y94926883D01*
X25184127Y95031522D01*
X25305754Y95104867D01*
X25443118Y95140973D01*
X25585090Y95136918D01*
G37*
G04 #@! TD.AperFunction*
G04 #@! TD*
M02*
