M48
; DRILL file {KiCad 7.0.7} date 2024 June 01, Saturday 12:12:19
; FORMAT={-:-/ absolute / metric / decimal}
; #@! TF.CreationDate,2024-06-01T12:12:19+01:00
; #@! TF.GenerationSoftware,Kicad,Pcbnew,7.0.7
; #@! TF.FileFunction,MixedPlating,1,2
FMAT,2
METRIC
; #@! TA.AperFunction,Plated,PTH,ViaDrill
T1C0.800
; #@! TA.AperFunction,Plated,PTH,ComponentDrill
T2C0.800
; #@! TA.AperFunction,Plated,PTH,ComponentDrill
T3C1.000
; #@! TA.AperFunction,Plated,PTH,ComponentDrill
T4C1.800
%
G90
G05
T1
X2.54Y56.769
X13.335Y51.943
X16.764Y61.214
X20.701Y45.466
X30.353Y51.816
X31.877Y17.018
X35.306Y19.939
X38.862Y45.339
X56.515Y41.504
T2
X5.969Y61.849
X5.969Y52.959
X8.509Y61.849
X8.509Y52.959
X23.749Y61.849
X23.749Y52.959
X26.289Y61.849
X26.289Y52.959
T3
X5.907Y40.829
X5.907Y28.829
X11.907Y42.829
X17.907Y40.829
X17.907Y28.829
X23.749Y40.829
X23.749Y28.829
X29.749Y42.829
X35.749Y40.829
X35.749Y28.829
T4
X16.054Y9.369
X20.014Y9.369
X31.219Y8.919
X35.179Y8.919
T0
M30
