G04 #@! TF.GenerationSoftware,KiCad,Pcbnew,7.0.7*
G04 #@! TF.CreationDate,2024-06-01T12:12:09+01:00*
G04 #@! TF.ProjectId,WindlassControl,57696e64-6c61-4737-9343-6f6e74726f6c,rev?*
G04 #@! TF.SameCoordinates,PX63add28PY7483a30*
G04 #@! TF.FileFunction,Copper,L1,Top*
G04 #@! TF.FilePolarity,Positive*
%FSLAX46Y46*%
G04 Gerber Fmt 4.6, Leading zero omitted, Abs format (unit mm)*
G04 Created by KiCad (PCBNEW 7.0.7) date 2024-06-01 12:12:09*
%MOMM*%
%LPD*%
G01*
G04 APERTURE LIST*
G04 Aperture macros list*
%AMRoundRect*
0 Rectangle with rounded corners*
0 $1 Rounding radius*
0 $2 $3 $4 $5 $6 $7 $8 $9 X,Y pos of 4 corners*
0 Add a 4 corners polygon primitive as box body*
4,1,4,$2,$3,$4,$5,$6,$7,$8,$9,$2,$3,0*
0 Add four circle primitives for the rounded corners*
1,1,$1+$1,$2,$3*
1,1,$1+$1,$4,$5*
1,1,$1+$1,$6,$7*
1,1,$1+$1,$8,$9*
0 Add four rect primitives between the rounded corners*
20,1,$1+$1,$2,$3,$4,$5,0*
20,1,$1+$1,$4,$5,$6,$7,0*
20,1,$1+$1,$6,$7,$8,$9,0*
20,1,$1+$1,$8,$9,$2,$3,0*%
G04 Aperture macros list end*
%ADD10C,0.300000*%
G04 #@! TA.AperFunction,NonConductor*
%ADD11C,0.300000*%
G04 #@! TD*
G04 #@! TA.AperFunction,SMDPad,CuDef*
%ADD12RoundRect,0.250000X0.325000X1.100000X-0.325000X1.100000X-0.325000X-1.100000X0.325000X-1.100000X0*%
G04 #@! TD*
G04 #@! TA.AperFunction,SMDPad,CuDef*
%ADD13R,1.000000X2.500000*%
G04 #@! TD*
G04 #@! TA.AperFunction,SMDPad,CuDef*
%ADD14R,2.000000X1.500000*%
G04 #@! TD*
G04 #@! TA.AperFunction,SMDPad,CuDef*
%ADD15R,2.000000X3.800000*%
G04 #@! TD*
G04 #@! TA.AperFunction,SMDPad,CuDef*
%ADD16RoundRect,0.250000X-0.450000X0.350000X-0.450000X-0.350000X0.450000X-0.350000X0.450000X0.350000X0*%
G04 #@! TD*
G04 #@! TA.AperFunction,ComponentPad*
%ADD17C,2.500000*%
G04 #@! TD*
G04 #@! TA.AperFunction,SMDPad,CuDef*
%ADD18R,1.000000X1.500000*%
G04 #@! TD*
G04 #@! TA.AperFunction,ComponentPad*
%ADD19RoundRect,0.250000X-1.330000X-1.850000X1.330000X-1.850000X1.330000X1.850000X-1.330000X1.850000X0*%
G04 #@! TD*
G04 #@! TA.AperFunction,ComponentPad*
%ADD20O,3.160000X4.200000*%
G04 #@! TD*
G04 #@! TA.AperFunction,SMDPad,CuDef*
%ADD21RoundRect,0.250000X0.450000X-0.325000X0.450000X0.325000X-0.450000X0.325000X-0.450000X-0.325000X0*%
G04 #@! TD*
G04 #@! TA.AperFunction,ComponentPad*
%ADD22O,2.000000X2.500000*%
G04 #@! TD*
G04 #@! TA.AperFunction,SMDPad,CuDef*
%ADD23RoundRect,0.250000X-0.893000X-0.250000X0.893000X-0.250000X0.893000X0.250000X-0.893000X0.250000X0*%
G04 #@! TD*
G04 #@! TA.AperFunction,SMDPad,CuDef*
%ADD24RoundRect,0.381000X0.381000X-0.762000X0.381000X0.762000X-0.381000X0.762000X-0.381000X-0.762000X0*%
G04 #@! TD*
G04 #@! TA.AperFunction,SMDPad,CuDef*
%ADD25R,1.000000X2.750000*%
G04 #@! TD*
G04 #@! TA.AperFunction,ComponentPad*
%ADD26RoundRect,0.250000X1.330000X1.850000X-1.330000X1.850000X-1.330000X-1.850000X1.330000X-1.850000X0*%
G04 #@! TD*
G04 #@! TA.AperFunction,SMDPad,CuDef*
%ADD27RoundRect,0.250001X-0.462499X-0.624999X0.462499X-0.624999X0.462499X0.624999X-0.462499X0.624999X0*%
G04 #@! TD*
G04 #@! TA.AperFunction,SMDPad,CuDef*
%ADD28RoundRect,0.243750X0.456250X-0.243750X0.456250X0.243750X-0.456250X0.243750X-0.456250X-0.243750X0*%
G04 #@! TD*
G04 #@! TA.AperFunction,SMDPad,CuDef*
%ADD29RoundRect,0.250000X1.100000X-0.325000X1.100000X0.325000X-1.100000X0.325000X-1.100000X-0.325000X0*%
G04 #@! TD*
G04 #@! TA.AperFunction,SMDPad,CuDef*
%ADD30RoundRect,0.150000X-0.150000X0.587500X-0.150000X-0.587500X0.150000X-0.587500X0.150000X0.587500X0*%
G04 #@! TD*
G04 #@! TA.AperFunction,ViaPad*
%ADD31C,2.000000*%
G04 #@! TD*
G04 #@! TA.AperFunction,Conductor*
%ADD32C,1.000000*%
G04 #@! TD*
G04 #@! TA.AperFunction,Conductor*
%ADD33C,0.700000*%
G04 #@! TD*
G04 APERTURE END LIST*
D10*
D11*
X12968653Y977029D02*
X12897225Y905600D01*
X12897225Y905600D02*
X12682939Y834172D01*
X12682939Y834172D02*
X12540082Y834172D01*
X12540082Y834172D02*
X12325796Y905600D01*
X12325796Y905600D02*
X12182939Y1048458D01*
X12182939Y1048458D02*
X12111510Y1191315D01*
X12111510Y1191315D02*
X12040082Y1477029D01*
X12040082Y1477029D02*
X12040082Y1691315D01*
X12040082Y1691315D02*
X12111510Y1977029D01*
X12111510Y1977029D02*
X12182939Y2119886D01*
X12182939Y2119886D02*
X12325796Y2262743D01*
X12325796Y2262743D02*
X12540082Y2334172D01*
X12540082Y2334172D02*
X12682939Y2334172D01*
X12682939Y2334172D02*
X12897225Y2262743D01*
X12897225Y2262743D02*
X12968653Y2191315D01*
X13611510Y834172D02*
X13611510Y2334172D01*
X13611510Y1619886D02*
X14468653Y1619886D01*
X14468653Y834172D02*
X14468653Y2334172D01*
X15111511Y2191315D02*
X15182939Y2262743D01*
X15182939Y2262743D02*
X15325797Y2334172D01*
X15325797Y2334172D02*
X15682939Y2334172D01*
X15682939Y2334172D02*
X15825797Y2262743D01*
X15825797Y2262743D02*
X15897225Y2191315D01*
X15897225Y2191315D02*
X15968654Y2048458D01*
X15968654Y2048458D02*
X15968654Y1905600D01*
X15968654Y1905600D02*
X15897225Y1691315D01*
X15897225Y1691315D02*
X15040082Y834172D01*
X15040082Y834172D02*
X15968654Y834172D01*
D10*
D11*
X4860314Y25170918D02*
X4931742Y25099490D01*
X4931742Y25099490D02*
X5003171Y24956632D01*
X5003171Y24956632D02*
X5003171Y24599490D01*
X5003171Y24599490D02*
X4931742Y24456632D01*
X4931742Y24456632D02*
X4860314Y24385204D01*
X4860314Y24385204D02*
X4717457Y24313775D01*
X4717457Y24313775D02*
X4574600Y24313775D01*
X4574600Y24313775D02*
X4360314Y24385204D01*
X4360314Y24385204D02*
X3503171Y25242347D01*
X3503171Y25242347D02*
X3503171Y24313775D01*
X3646028Y23670919D02*
X3574600Y23599490D01*
X3574600Y23599490D02*
X3503171Y23670919D01*
X3503171Y23670919D02*
X3574600Y23742347D01*
X3574600Y23742347D02*
X3646028Y23670919D01*
X3646028Y23670919D02*
X3503171Y23670919D01*
X4503171Y22313775D02*
X3503171Y22313775D01*
X5074600Y22670918D02*
X4003171Y23028061D01*
X4003171Y23028061D02*
X4003171Y22099490D01*
X4931742Y20742347D02*
X5003171Y20885204D01*
X5003171Y20885204D02*
X5003171Y21099490D01*
X5003171Y21099490D02*
X4931742Y21313776D01*
X4931742Y21313776D02*
X4788885Y21456633D01*
X4788885Y21456633D02*
X4646028Y21528062D01*
X4646028Y21528062D02*
X4360314Y21599490D01*
X4360314Y21599490D02*
X4146028Y21599490D01*
X4146028Y21599490D02*
X3860314Y21528062D01*
X3860314Y21528062D02*
X3717457Y21456633D01*
X3717457Y21456633D02*
X3574600Y21313776D01*
X3574600Y21313776D02*
X3503171Y21099490D01*
X3503171Y21099490D02*
X3503171Y20956633D01*
X3503171Y20956633D02*
X3574600Y20742347D01*
X3574600Y20742347D02*
X3646028Y20670919D01*
X3646028Y20670919D02*
X4146028Y20670919D01*
X4146028Y20670919D02*
X4146028Y20956633D01*
X3503171Y20028062D02*
X5003171Y20028062D01*
X4288885Y20028062D02*
X4288885Y19170919D01*
X3503171Y19170919D02*
X5003171Y19170919D01*
X4503171Y18599490D02*
X4503171Y17813775D01*
X4503171Y17813775D02*
X3503171Y18599490D01*
X3503171Y18599490D02*
X3503171Y17813775D01*
X5003171Y16242347D02*
X3503171Y15885204D01*
X3503171Y15885204D02*
X4574600Y15599490D01*
X4574600Y15599490D02*
X3503171Y15313775D01*
X3503171Y15313775D02*
X5003171Y14956632D01*
X3503171Y14385204D02*
X4503171Y14385204D01*
X5003171Y14385204D02*
X4931742Y14456632D01*
X4931742Y14456632D02*
X4860314Y14385204D01*
X4860314Y14385204D02*
X4931742Y14313775D01*
X4931742Y14313775D02*
X5003171Y14385204D01*
X5003171Y14385204D02*
X4860314Y14385204D01*
X4503171Y13670918D02*
X3503171Y13670918D01*
X4360314Y13670918D02*
X4431742Y13599489D01*
X4431742Y13599489D02*
X4503171Y13456632D01*
X4503171Y13456632D02*
X4503171Y13242346D01*
X4503171Y13242346D02*
X4431742Y13099489D01*
X4431742Y13099489D02*
X4288885Y13028060D01*
X4288885Y13028060D02*
X3503171Y13028060D01*
X3503171Y11670917D02*
X5003171Y11670917D01*
X3574600Y11670917D02*
X3503171Y11813775D01*
X3503171Y11813775D02*
X3503171Y12099489D01*
X3503171Y12099489D02*
X3574600Y12242346D01*
X3574600Y12242346D02*
X3646028Y12313775D01*
X3646028Y12313775D02*
X3788885Y12385203D01*
X3788885Y12385203D02*
X4217457Y12385203D01*
X4217457Y12385203D02*
X4360314Y12313775D01*
X4360314Y12313775D02*
X4431742Y12242346D01*
X4431742Y12242346D02*
X4503171Y12099489D01*
X4503171Y12099489D02*
X4503171Y11813775D01*
X4503171Y11813775D02*
X4431742Y11670917D01*
X3503171Y10742346D02*
X3574600Y10885203D01*
X3574600Y10885203D02*
X3717457Y10956632D01*
X3717457Y10956632D02*
X5003171Y10956632D01*
X3503171Y9528060D02*
X4288885Y9528060D01*
X4288885Y9528060D02*
X4431742Y9599489D01*
X4431742Y9599489D02*
X4503171Y9742346D01*
X4503171Y9742346D02*
X4503171Y10028060D01*
X4503171Y10028060D02*
X4431742Y10170918D01*
X3574600Y9528060D02*
X3503171Y9670918D01*
X3503171Y9670918D02*
X3503171Y10028060D01*
X3503171Y10028060D02*
X3574600Y10170918D01*
X3574600Y10170918D02*
X3717457Y10242346D01*
X3717457Y10242346D02*
X3860314Y10242346D01*
X3860314Y10242346D02*
X4003171Y10170918D01*
X4003171Y10170918D02*
X4074600Y10028060D01*
X4074600Y10028060D02*
X4074600Y9670918D01*
X4074600Y9670918D02*
X4146028Y9528060D01*
X3574600Y8885203D02*
X3503171Y8742346D01*
X3503171Y8742346D02*
X3503171Y8456632D01*
X3503171Y8456632D02*
X3574600Y8313775D01*
X3574600Y8313775D02*
X3717457Y8242346D01*
X3717457Y8242346D02*
X3788885Y8242346D01*
X3788885Y8242346D02*
X3931742Y8313775D01*
X3931742Y8313775D02*
X4003171Y8456632D01*
X4003171Y8456632D02*
X4003171Y8670917D01*
X4003171Y8670917D02*
X4074600Y8813775D01*
X4074600Y8813775D02*
X4217457Y8885203D01*
X4217457Y8885203D02*
X4288885Y8885203D01*
X4288885Y8885203D02*
X4431742Y8813775D01*
X4431742Y8813775D02*
X4503171Y8670917D01*
X4503171Y8670917D02*
X4503171Y8456632D01*
X4503171Y8456632D02*
X4431742Y8313775D01*
X3574600Y7670917D02*
X3503171Y7528060D01*
X3503171Y7528060D02*
X3503171Y7242346D01*
X3503171Y7242346D02*
X3574600Y7099489D01*
X3574600Y7099489D02*
X3717457Y7028060D01*
X3717457Y7028060D02*
X3788885Y7028060D01*
X3788885Y7028060D02*
X3931742Y7099489D01*
X3931742Y7099489D02*
X4003171Y7242346D01*
X4003171Y7242346D02*
X4003171Y7456631D01*
X4003171Y7456631D02*
X4074600Y7599489D01*
X4074600Y7599489D02*
X4217457Y7670917D01*
X4217457Y7670917D02*
X4288885Y7670917D01*
X4288885Y7670917D02*
X4431742Y7599489D01*
X4431742Y7599489D02*
X4503171Y7456631D01*
X4503171Y7456631D02*
X4503171Y7242346D01*
X4503171Y7242346D02*
X4431742Y7099489D01*
X4288885Y4742346D02*
X4217457Y4528060D01*
X4217457Y4528060D02*
X4146028Y4456631D01*
X4146028Y4456631D02*
X4003171Y4385203D01*
X4003171Y4385203D02*
X3788885Y4385203D01*
X3788885Y4385203D02*
X3646028Y4456631D01*
X3646028Y4456631D02*
X3574600Y4528060D01*
X3574600Y4528060D02*
X3503171Y4670917D01*
X3503171Y4670917D02*
X3503171Y5242346D01*
X3503171Y5242346D02*
X5003171Y5242346D01*
X5003171Y5242346D02*
X5003171Y4742346D01*
X5003171Y4742346D02*
X4931742Y4599488D01*
X4931742Y4599488D02*
X4860314Y4528060D01*
X4860314Y4528060D02*
X4717457Y4456631D01*
X4717457Y4456631D02*
X4574600Y4456631D01*
X4574600Y4456631D02*
X4431742Y4528060D01*
X4431742Y4528060D02*
X4360314Y4599488D01*
X4360314Y4599488D02*
X4288885Y4742346D01*
X4288885Y4742346D02*
X4288885Y5242346D01*
X3503171Y3099488D02*
X4288885Y3099488D01*
X4288885Y3099488D02*
X4431742Y3170917D01*
X4431742Y3170917D02*
X4503171Y3313774D01*
X4503171Y3313774D02*
X4503171Y3599488D01*
X4503171Y3599488D02*
X4431742Y3742346D01*
X3574600Y3099488D02*
X3503171Y3242346D01*
X3503171Y3242346D02*
X3503171Y3599488D01*
X3503171Y3599488D02*
X3574600Y3742346D01*
X3574600Y3742346D02*
X3717457Y3813774D01*
X3717457Y3813774D02*
X3860314Y3813774D01*
X3860314Y3813774D02*
X4003171Y3742346D01*
X4003171Y3742346D02*
X4074600Y3599488D01*
X4074600Y3599488D02*
X4074600Y3242346D01*
X4074600Y3242346D02*
X4146028Y3099488D01*
X3574600Y2456631D02*
X3503171Y2313774D01*
X3503171Y2313774D02*
X3503171Y2028060D01*
X3503171Y2028060D02*
X3574600Y1885203D01*
X3574600Y1885203D02*
X3717457Y1813774D01*
X3717457Y1813774D02*
X3788885Y1813774D01*
X3788885Y1813774D02*
X3931742Y1885203D01*
X3931742Y1885203D02*
X4003171Y2028060D01*
X4003171Y2028060D02*
X4003171Y2242345D01*
X4003171Y2242345D02*
X4074600Y2385203D01*
X4074600Y2385203D02*
X4217457Y2456631D01*
X4217457Y2456631D02*
X4288885Y2456631D01*
X4288885Y2456631D02*
X4431742Y2385203D01*
X4431742Y2385203D02*
X4503171Y2242345D01*
X4503171Y2242345D02*
X4503171Y2028060D01*
X4503171Y2028060D02*
X4431742Y1885203D01*
X3574600Y599488D02*
X3503171Y742345D01*
X3503171Y742345D02*
X3503171Y1028059D01*
X3503171Y1028059D02*
X3574600Y1170917D01*
X3574600Y1170917D02*
X3717457Y1242345D01*
X3717457Y1242345D02*
X4288885Y1242345D01*
X4288885Y1242345D02*
X4431742Y1170917D01*
X4431742Y1170917D02*
X4503171Y1028059D01*
X4503171Y1028059D02*
X4503171Y742345D01*
X4503171Y742345D02*
X4431742Y599488D01*
X4431742Y599488D02*
X4288885Y528059D01*
X4288885Y528059D02*
X4146028Y528059D01*
X4146028Y528059D02*
X4003171Y1242345D01*
X516742Y24670918D02*
X588171Y24742347D01*
X588171Y24742347D02*
X802457Y24885204D01*
X802457Y24885204D02*
X945314Y24956632D01*
X945314Y24956632D02*
X1159600Y25028061D01*
X1159600Y25028061D02*
X1516742Y25099490D01*
X1516742Y25099490D02*
X1802457Y25099490D01*
X1802457Y25099490D02*
X2159600Y25028061D01*
X2159600Y25028061D02*
X2373885Y24956632D01*
X2373885Y24956632D02*
X2516742Y24885204D01*
X2516742Y24885204D02*
X2731028Y24742347D01*
X2731028Y24742347D02*
X2802457Y24670918D01*
X1159600Y23456632D02*
X1088171Y23599490D01*
X1088171Y23599490D02*
X1088171Y23885204D01*
X1088171Y23885204D02*
X1159600Y24028061D01*
X1159600Y24028061D02*
X1231028Y24099490D01*
X1231028Y24099490D02*
X1373885Y24170918D01*
X1373885Y24170918D02*
X1802457Y24170918D01*
X1802457Y24170918D02*
X1945314Y24099490D01*
X1945314Y24099490D02*
X2016742Y24028061D01*
X2016742Y24028061D02*
X2088171Y23885204D01*
X2088171Y23885204D02*
X2088171Y23599490D01*
X2088171Y23599490D02*
X2016742Y23456632D01*
X516742Y22956633D02*
X588171Y22885204D01*
X588171Y22885204D02*
X802457Y22742347D01*
X802457Y22742347D02*
X945314Y22670918D01*
X945314Y22670918D02*
X1159600Y22599490D01*
X1159600Y22599490D02*
X1516742Y22528061D01*
X1516742Y22528061D02*
X1802457Y22528061D01*
X1802457Y22528061D02*
X2159600Y22599490D01*
X2159600Y22599490D02*
X2373885Y22670918D01*
X2373885Y22670918D02*
X2516742Y22742347D01*
X2516742Y22742347D02*
X2731028Y22885204D01*
X2731028Y22885204D02*
X2802457Y22956633D01*
X1088171Y20670919D02*
X2588171Y20670919D01*
X1088171Y19313775D02*
X1873885Y19313775D01*
X1873885Y19313775D02*
X2016742Y19385204D01*
X2016742Y19385204D02*
X2088171Y19528061D01*
X2088171Y19528061D02*
X2088171Y19813775D01*
X2088171Y19813775D02*
X2016742Y19956633D01*
X1159600Y19313775D02*
X1088171Y19456633D01*
X1088171Y19456633D02*
X1088171Y19813775D01*
X1088171Y19813775D02*
X1159600Y19956633D01*
X1159600Y19956633D02*
X1302457Y20028061D01*
X1302457Y20028061D02*
X1445314Y20028061D01*
X1445314Y20028061D02*
X1588171Y19956633D01*
X1588171Y19956633D02*
X1659600Y19813775D01*
X1659600Y19813775D02*
X1659600Y19456633D01*
X1659600Y19456633D02*
X1731028Y19313775D01*
X2088171Y18599490D02*
X1088171Y18599490D01*
X1945314Y18599490D02*
X2016742Y18528061D01*
X2016742Y18528061D02*
X2088171Y18385204D01*
X2088171Y18385204D02*
X2088171Y18170918D01*
X2088171Y18170918D02*
X2016742Y18028061D01*
X2016742Y18028061D02*
X1873885Y17956632D01*
X1873885Y17956632D02*
X1088171Y17956632D01*
X1873885Y15599490D02*
X1802457Y15385204D01*
X1802457Y15385204D02*
X1731028Y15313775D01*
X1731028Y15313775D02*
X1588171Y15242347D01*
X1588171Y15242347D02*
X1373885Y15242347D01*
X1373885Y15242347D02*
X1231028Y15313775D01*
X1231028Y15313775D02*
X1159600Y15385204D01*
X1159600Y15385204D02*
X1088171Y15528061D01*
X1088171Y15528061D02*
X1088171Y16099490D01*
X1088171Y16099490D02*
X2588171Y16099490D01*
X2588171Y16099490D02*
X2588171Y15599490D01*
X2588171Y15599490D02*
X2516742Y15456632D01*
X2516742Y15456632D02*
X2445314Y15385204D01*
X2445314Y15385204D02*
X2302457Y15313775D01*
X2302457Y15313775D02*
X2159600Y15313775D01*
X2159600Y15313775D02*
X2016742Y15385204D01*
X2016742Y15385204D02*
X1945314Y15456632D01*
X1945314Y15456632D02*
X1873885Y15599490D01*
X1873885Y15599490D02*
X1873885Y16099490D01*
X1088171Y14385204D02*
X1159600Y14528061D01*
X1159600Y14528061D02*
X1231028Y14599490D01*
X1231028Y14599490D02*
X1373885Y14670918D01*
X1373885Y14670918D02*
X1802457Y14670918D01*
X1802457Y14670918D02*
X1945314Y14599490D01*
X1945314Y14599490D02*
X2016742Y14528061D01*
X2016742Y14528061D02*
X2088171Y14385204D01*
X2088171Y14385204D02*
X2088171Y14170918D01*
X2088171Y14170918D02*
X2016742Y14028061D01*
X2016742Y14028061D02*
X1945314Y13956632D01*
X1945314Y13956632D02*
X1802457Y13885204D01*
X1802457Y13885204D02*
X1373885Y13885204D01*
X1373885Y13885204D02*
X1231028Y13956632D01*
X1231028Y13956632D02*
X1159600Y14028061D01*
X1159600Y14028061D02*
X1088171Y14170918D01*
X1088171Y14170918D02*
X1088171Y14385204D01*
X1159600Y13313775D02*
X1088171Y13170918D01*
X1088171Y13170918D02*
X1088171Y12885204D01*
X1088171Y12885204D02*
X1159600Y12742347D01*
X1159600Y12742347D02*
X1302457Y12670918D01*
X1302457Y12670918D02*
X1373885Y12670918D01*
X1373885Y12670918D02*
X1516742Y12742347D01*
X1516742Y12742347D02*
X1588171Y12885204D01*
X1588171Y12885204D02*
X1588171Y13099489D01*
X1588171Y13099489D02*
X1659600Y13242347D01*
X1659600Y13242347D02*
X1802457Y13313775D01*
X1802457Y13313775D02*
X1873885Y13313775D01*
X1873885Y13313775D02*
X2016742Y13242347D01*
X2016742Y13242347D02*
X2088171Y13099489D01*
X2088171Y13099489D02*
X2088171Y12885204D01*
X2088171Y12885204D02*
X2016742Y12742347D01*
X2088171Y12242346D02*
X2088171Y11670918D01*
X2588171Y12028061D02*
X1302457Y12028061D01*
X1302457Y12028061D02*
X1159600Y11956632D01*
X1159600Y11956632D02*
X1088171Y11813775D01*
X1088171Y11813775D02*
X1088171Y11670918D01*
X1088171Y10956632D02*
X1159600Y11099489D01*
X1159600Y11099489D02*
X1231028Y11170918D01*
X1231028Y11170918D02*
X1373885Y11242346D01*
X1373885Y11242346D02*
X1802457Y11242346D01*
X1802457Y11242346D02*
X1945314Y11170918D01*
X1945314Y11170918D02*
X2016742Y11099489D01*
X2016742Y11099489D02*
X2088171Y10956632D01*
X2088171Y10956632D02*
X2088171Y10742346D01*
X2088171Y10742346D02*
X2016742Y10599489D01*
X2016742Y10599489D02*
X1945314Y10528060D01*
X1945314Y10528060D02*
X1802457Y10456632D01*
X1802457Y10456632D02*
X1373885Y10456632D01*
X1373885Y10456632D02*
X1231028Y10528060D01*
X1231028Y10528060D02*
X1159600Y10599489D01*
X1159600Y10599489D02*
X1088171Y10742346D01*
X1088171Y10742346D02*
X1088171Y10956632D01*
X2088171Y9813775D02*
X1088171Y9813775D01*
X1945314Y9813775D02*
X2016742Y9742346D01*
X2016742Y9742346D02*
X2088171Y9599489D01*
X2088171Y9599489D02*
X2088171Y9385203D01*
X2088171Y9385203D02*
X2016742Y9242346D01*
X2016742Y9242346D02*
X1873885Y9170917D01*
X1873885Y9170917D02*
X1088171Y9170917D01*
X2445314Y7385203D02*
X2516742Y7313775D01*
X2516742Y7313775D02*
X2588171Y7170917D01*
X2588171Y7170917D02*
X2588171Y6813775D01*
X2588171Y6813775D02*
X2516742Y6670917D01*
X2516742Y6670917D02*
X2445314Y6599489D01*
X2445314Y6599489D02*
X2302457Y6528060D01*
X2302457Y6528060D02*
X2159600Y6528060D01*
X2159600Y6528060D02*
X1945314Y6599489D01*
X1945314Y6599489D02*
X1088171Y7456632D01*
X1088171Y7456632D02*
X1088171Y6528060D01*
X2588171Y5599489D02*
X2588171Y5456632D01*
X2588171Y5456632D02*
X2516742Y5313775D01*
X2516742Y5313775D02*
X2445314Y5242346D01*
X2445314Y5242346D02*
X2302457Y5170918D01*
X2302457Y5170918D02*
X2016742Y5099489D01*
X2016742Y5099489D02*
X1659600Y5099489D01*
X1659600Y5099489D02*
X1373885Y5170918D01*
X1373885Y5170918D02*
X1231028Y5242346D01*
X1231028Y5242346D02*
X1159600Y5313775D01*
X1159600Y5313775D02*
X1088171Y5456632D01*
X1088171Y5456632D02*
X1088171Y5599489D01*
X1088171Y5599489D02*
X1159600Y5742346D01*
X1159600Y5742346D02*
X1231028Y5813775D01*
X1231028Y5813775D02*
X1373885Y5885204D01*
X1373885Y5885204D02*
X1659600Y5956632D01*
X1659600Y5956632D02*
X2016742Y5956632D01*
X2016742Y5956632D02*
X2302457Y5885204D01*
X2302457Y5885204D02*
X2445314Y5813775D01*
X2445314Y5813775D02*
X2516742Y5742346D01*
X2516742Y5742346D02*
X2588171Y5599489D01*
X2445314Y4528061D02*
X2516742Y4456633D01*
X2516742Y4456633D02*
X2588171Y4313775D01*
X2588171Y4313775D02*
X2588171Y3956633D01*
X2588171Y3956633D02*
X2516742Y3813775D01*
X2516742Y3813775D02*
X2445314Y3742347D01*
X2445314Y3742347D02*
X2302457Y3670918D01*
X2302457Y3670918D02*
X2159600Y3670918D01*
X2159600Y3670918D02*
X1945314Y3742347D01*
X1945314Y3742347D02*
X1088171Y4599490D01*
X1088171Y4599490D02*
X1088171Y3670918D01*
X2088171Y2385204D02*
X1088171Y2385204D01*
X2659600Y2742347D02*
X1588171Y3099490D01*
X1588171Y3099490D02*
X1588171Y2170919D01*
D10*
D11*
X26970510Y1278600D02*
X28113368Y1278600D01*
X27541939Y707172D02*
X27541939Y1850029D01*
X29613368Y707172D02*
X28756225Y707172D01*
X29184796Y707172D02*
X29184796Y2207172D01*
X29184796Y2207172D02*
X29041939Y1992886D01*
X29041939Y1992886D02*
X28899082Y1850029D01*
X28899082Y1850029D02*
X28756225Y1778600D01*
X30184796Y2064315D02*
X30256224Y2135743D01*
X30256224Y2135743D02*
X30399082Y2207172D01*
X30399082Y2207172D02*
X30756224Y2207172D01*
X30756224Y2207172D02*
X30899082Y2135743D01*
X30899082Y2135743D02*
X30970510Y2064315D01*
X30970510Y2064315D02*
X31041939Y1921458D01*
X31041939Y1921458D02*
X31041939Y1778600D01*
X31041939Y1778600D02*
X30970510Y1564315D01*
X30970510Y1564315D02*
X30113367Y707172D01*
X30113367Y707172D02*
X31041939Y707172D01*
X31541938Y1707172D02*
X31899081Y707172D01*
X31899081Y707172D02*
X32256224Y1707172D01*
D10*
D11*
X35130225Y2334172D02*
X35273082Y2334172D01*
X35273082Y2334172D02*
X35415939Y2262743D01*
X35415939Y2262743D02*
X35487368Y2191315D01*
X35487368Y2191315D02*
X35558796Y2048458D01*
X35558796Y2048458D02*
X35630225Y1762743D01*
X35630225Y1762743D02*
X35630225Y1405600D01*
X35630225Y1405600D02*
X35558796Y1119886D01*
X35558796Y1119886D02*
X35487368Y977029D01*
X35487368Y977029D02*
X35415939Y905600D01*
X35415939Y905600D02*
X35273082Y834172D01*
X35273082Y834172D02*
X35130225Y834172D01*
X35130225Y834172D02*
X34987368Y905600D01*
X34987368Y905600D02*
X34915939Y977029D01*
X34915939Y977029D02*
X34844510Y1119886D01*
X34844510Y1119886D02*
X34773082Y1405600D01*
X34773082Y1405600D02*
X34773082Y1762743D01*
X34773082Y1762743D02*
X34844510Y2048458D01*
X34844510Y2048458D02*
X34915939Y2191315D01*
X34915939Y2191315D02*
X34987368Y2262743D01*
X34987368Y2262743D02*
X35130225Y2334172D01*
X36058796Y2334172D02*
X36558796Y834172D01*
X36558796Y834172D02*
X37058796Y2334172D01*
D10*
D11*
X20969653Y1231029D02*
X20898225Y1159600D01*
X20898225Y1159600D02*
X20683939Y1088172D01*
X20683939Y1088172D02*
X20541082Y1088172D01*
X20541082Y1088172D02*
X20326796Y1159600D01*
X20326796Y1159600D02*
X20183939Y1302458D01*
X20183939Y1302458D02*
X20112510Y1445315D01*
X20112510Y1445315D02*
X20041082Y1731029D01*
X20041082Y1731029D02*
X20041082Y1945315D01*
X20041082Y1945315D02*
X20112510Y2231029D01*
X20112510Y2231029D02*
X20183939Y2373886D01*
X20183939Y2373886D02*
X20326796Y2516743D01*
X20326796Y2516743D02*
X20541082Y2588172D01*
X20541082Y2588172D02*
X20683939Y2588172D01*
X20683939Y2588172D02*
X20898225Y2516743D01*
X20898225Y2516743D02*
X20969653Y2445315D01*
X21612510Y1088172D02*
X21612510Y2588172D01*
X21612510Y1873886D02*
X22469653Y1873886D01*
X22469653Y1088172D02*
X22469653Y2588172D01*
X23969654Y1088172D02*
X23112511Y1088172D01*
X23541082Y1088172D02*
X23541082Y2588172D01*
X23541082Y2588172D02*
X23398225Y2373886D01*
X23398225Y2373886D02*
X23255368Y2231029D01*
X23255368Y2231029D02*
X23112511Y2159600D01*
D12*
G04 #@! TO.P,C2,1*
G04 #@! TO.N,+3V3*
X43461200Y27711400D03*
G04 #@! TO.P,C2,2*
G04 #@! TO.N,GND*
X40511200Y27711400D03*
G04 #@! TD*
D13*
G04 #@! TO.P,J2,1,Pin_1*
G04 #@! TO.N,GND*
X52933600Y41935400D03*
G04 #@! TO.P,J2,2,Pin_2*
G04 #@! TO.N,Net-(J2-Pin_2)*
X50393600Y41935400D03*
G04 #@! TO.P,J2,3,Pin_3*
G04 #@! TO.N,Net-(J2-Pin_3)*
X47853600Y41935400D03*
G04 #@! TO.P,J2,4,Pin_4*
G04 #@! TO.N,+3V3*
X45313600Y41935400D03*
G04 #@! TD*
D14*
G04 #@! TO.P,U6,1,GND*
G04 #@! TO.N,GND*
X44729000Y20334000D03*
G04 #@! TO.P,U6,2,VO*
G04 #@! TO.N,+3V3*
X44729000Y18034000D03*
D15*
X51029000Y18034000D03*
D14*
G04 #@! TO.P,U6,3,VI*
G04 #@! TO.N,+12V*
X44729000Y15734000D03*
G04 #@! TD*
D16*
G04 #@! TO.P,R2,1*
G04 #@! TO.N,Net-(R2-Pad1)*
X35179000Y52689000D03*
G04 #@! TO.P,R2,2*
G04 #@! TO.N,Net-(Q1-B)*
X35179000Y50689000D03*
G04 #@! TD*
D17*
G04 #@! TO.P,U4,1,nc*
G04 #@! TO.N,unconnected-(U4-nc-Pad1)*
X35749000Y28829000D03*
G04 #@! TO.P,U4,2,no*
G04 #@! TO.N,OP1*
X23749000Y28829000D03*
G04 #@! TO.P,U4,3,coil+*
G04 #@! TO.N,Net-(D2-A)*
X35749000Y40829000D03*
G04 #@! TO.P,U4,4,sw*
G04 #@! TO.N,+12V*
X29749000Y42829000D03*
G04 #@! TO.P,U4,5,c+*
X23749000Y40829000D03*
G04 #@! TD*
D18*
G04 #@! TO.P,JP2,1,1*
G04 #@! TO.N,GND*
X55133000Y44831000D03*
G04 #@! TO.P,JP2,2,2*
G04 #@! TO.N,Net-(U2-CS)*
X53833000Y44831000D03*
G04 #@! TD*
D16*
G04 #@! TO.P,R1,1*
G04 #@! TO.N,CH1*
X29083000Y63865000D03*
G04 #@! TO.P,R1,2*
G04 #@! TO.N,Net-(R1-Pad2)*
X29083000Y61865000D03*
G04 #@! TD*
D19*
G04 #@! TO.P,CON2,1,Pin_1*
G04 #@! TO.N,+12V*
X31219000Y8919000D03*
D20*
G04 #@! TO.P,CON2,2,Pin_2*
G04 #@! TO.N,GND*
X35179000Y8919000D03*
G04 #@! TD*
D21*
G04 #@! TO.P,D1,1,K*
G04 #@! TO.N,GND*
X20574000Y59808000D03*
G04 #@! TO.P,D1,2,A*
G04 #@! TO.N,Net-(D1-A)*
X20574000Y61858000D03*
G04 #@! TD*
D22*
G04 #@! TO.P,U1,1*
G04 #@! TO.N,Net-(R1-Pad2)*
X26289000Y61849000D03*
G04 #@! TO.P,U1,2*
G04 #@! TO.N,Net-(D1-A)*
X23749000Y61849000D03*
G04 #@! TO.P,U1,3*
G04 #@! TO.N,Net-(R2-Pad1)*
X23749000Y52959000D03*
G04 #@! TO.P,U1,4*
G04 #@! TO.N,+12V*
X26289000Y52959000D03*
G04 #@! TD*
D23*
G04 #@! TO.P,U2,1,GPIO1*
G04 #@! TO.N,CH2*
X43054000Y63784000D03*
G04 #@! TO.P,U2,2,GPIO2*
G04 #@! TO.N,CH1*
X43054000Y62284000D03*
G04 #@! TO.P,U2,3,GPIO3*
G04 #@! TO.N,unconnected-(U2-GPIO3-Pad3)*
X43054000Y60784000D03*
G04 #@! TO.P,U2,4,GPIO4*
G04 #@! TO.N,unconnected-(U2-GPIO4-Pad4)*
X43054000Y59284000D03*
G04 #@! TO.P,U2,5,GPIO5*
G04 #@! TO.N,unconnected-(U2-GPIO5-Pad5)*
X43044000Y57674000D03*
G04 #@! TO.P,U2,6,GPIO6*
G04 #@! TO.N,unconnected-(U2-GPIO6-Pad6)*
X43054000Y56204000D03*
G04 #@! TO.P,U2,7,GPIO7*
G04 #@! TO.N,unconnected-(U2-GPIO7-Pad7)*
X43054000Y54784000D03*
G04 #@! TO.P,U2,8,GPIO8*
G04 #@! TO.N,unconnected-(U2-GPIO8-Pad8)*
X43054000Y53284000D03*
D24*
G04 #@! TO.P,U2,9,Vcc*
G04 #@! TO.N,+3V3*
X45054000Y49784000D03*
G04 #@! TO.P,U2,10,RXD*
G04 #@! TO.N,Net-(J2-Pin_3)*
X47054000Y49784000D03*
G04 #@! TO.P,U2,11,TXD*
G04 #@! TO.N,Net-(J2-Pin_2)*
X49054000Y49784000D03*
G04 #@! TO.P,U2,12,Set*
G04 #@! TO.N,Net-(U2-CS)*
X51054000Y49784000D03*
G04 #@! TO.P,U2,13,CS*
X53054000Y49784000D03*
G04 #@! TO.P,U2,14,GND*
G04 #@! TO.N,GND*
X55054000Y49784000D03*
G04 #@! TD*
D25*
G04 #@! TO.P,SW1,1,1*
G04 #@! TO.N,CH2*
X4477000Y67859000D03*
X4477000Y73619000D03*
G04 #@! TO.P,SW1,2,2*
G04 #@! TO.N,+3V3*
X8477000Y67859000D03*
X8477000Y73619000D03*
G04 #@! TD*
D26*
G04 #@! TO.P,CON1,1,Pin_1*
G04 #@! TO.N,OP1*
X20014000Y9369000D03*
D20*
G04 #@! TO.P,CON1,2,Pin_2*
G04 #@! TO.N,OP2*
X16054000Y9369000D03*
G04 #@! TD*
D27*
G04 #@! TO.P,D4,1,K*
G04 #@! TO.N,+12V*
X8291500Y46609000D03*
G04 #@! TO.P,D4,2,A*
G04 #@! TO.N,Net-(D4-A)*
X11266500Y46609000D03*
G04 #@! TD*
D16*
G04 #@! TO.P,R4,1*
G04 #@! TO.N,Net-(R4-Pad1)*
X17399000Y52689000D03*
G04 #@! TO.P,R4,2*
G04 #@! TO.N,Net-(Q2-B)*
X17399000Y50689000D03*
G04 #@! TD*
D28*
G04 #@! TO.P,D3,1,K*
G04 #@! TO.N,GND*
X2540000Y59847000D03*
G04 #@! TO.P,D3,2,A*
G04 #@! TO.N,Net-(D3-A)*
X2540000Y61722000D03*
G04 #@! TD*
D27*
G04 #@! TO.P,D2,1,K*
G04 #@! TO.N,+12V*
X26071500Y46609000D03*
G04 #@! TO.P,D2,2,A*
G04 #@! TO.N,Net-(D2-A)*
X29046500Y46609000D03*
G04 #@! TD*
D16*
G04 #@! TO.P,R3,1*
G04 #@! TO.N,CH2*
X11176000Y63881000D03*
G04 #@! TO.P,R3,2*
G04 #@! TO.N,Net-(R3-Pad2)*
X11176000Y61881000D03*
G04 #@! TD*
D29*
G04 #@! TO.P,C1,1*
G04 #@! TO.N,+12V*
X39624000Y16989000D03*
G04 #@! TO.P,C1,2*
G04 #@! TO.N,GND*
X39624000Y19939000D03*
G04 #@! TD*
D30*
G04 #@! TO.P,Q2,1,B*
G04 #@! TO.N,Net-(Q2-B)*
X17079000Y48484000D03*
G04 #@! TO.P,Q2,2,E*
G04 #@! TO.N,GND*
X15179000Y48484000D03*
G04 #@! TO.P,Q2,3,C*
G04 #@! TO.N,Net-(D4-A)*
X16129000Y46609000D03*
G04 #@! TD*
D22*
G04 #@! TO.P,U3,1*
G04 #@! TO.N,Net-(R3-Pad2)*
X8509000Y61849000D03*
G04 #@! TO.P,U3,2*
G04 #@! TO.N,Net-(D3-A)*
X5969000Y61849000D03*
G04 #@! TO.P,U3,3*
G04 #@! TO.N,Net-(R4-Pad1)*
X5969000Y52959000D03*
G04 #@! TO.P,U3,4*
G04 #@! TO.N,+12V*
X8509000Y52959000D03*
G04 #@! TD*
D17*
G04 #@! TO.P,U7,1,nc*
G04 #@! TO.N,unconnected-(U7-nc-Pad1)*
X17907000Y28829000D03*
G04 #@! TO.P,U7,2,no*
G04 #@! TO.N,OP2*
X5907000Y28829000D03*
G04 #@! TO.P,U7,3,coil+*
G04 #@! TO.N,Net-(D4-A)*
X17907000Y40829000D03*
G04 #@! TO.P,U7,4,sw*
G04 #@! TO.N,+12V*
X11907000Y42829000D03*
G04 #@! TO.P,U7,5,c+*
X5907000Y40829000D03*
G04 #@! TD*
D30*
G04 #@! TO.P,Q1,1,B*
G04 #@! TO.N,Net-(Q1-B)*
X34544000Y48514000D03*
G04 #@! TO.P,Q1,2,E*
G04 #@! TO.N,GND*
X32644000Y48514000D03*
G04 #@! TO.P,Q1,3,C*
G04 #@! TO.N,Net-(D2-A)*
X33594000Y46639000D03*
G04 #@! TD*
D25*
G04 #@! TO.P,SW5,1,1*
G04 #@! TO.N,CH1*
X23146000Y67986000D03*
X23146000Y73746000D03*
G04 #@! TO.P,SW5,2,2*
G04 #@! TO.N,+3V3*
X27146000Y67986000D03*
X27146000Y73746000D03*
G04 #@! TD*
D31*
G04 #@! TO.N,GND*
X56515000Y41503600D03*
G04 #@! TO.N,+12V*
X31877000Y17018000D03*
G04 #@! TO.N,GND*
X13335000Y51943000D03*
X16764000Y61214000D03*
X2540000Y56769000D03*
X35306000Y19939000D03*
X30353000Y51816000D03*
G04 #@! TO.N,Net-(D2-A)*
X38862000Y45339000D03*
G04 #@! TO.N,Net-(D4-A)*
X20701000Y45466000D03*
G04 #@! TD*
D32*
G04 #@! TO.N,Net-(U2-CS)*
X52959000Y45339000D02*
X52959000Y46507400D01*
X52959000Y46507400D02*
X52959000Y49689000D01*
X51054000Y49784000D02*
X51054000Y46761400D01*
X51054000Y46761400D02*
X51308000Y46507400D01*
X51308000Y46507400D02*
X52959000Y46507400D01*
G04 #@! TO.N,GND*
X56083200Y41935400D02*
X56515000Y41503600D01*
X52933600Y41935400D02*
X56083200Y41935400D01*
G04 #@! TO.N,+3V3*
X43461200Y27711400D02*
X43357800Y27814800D01*
X43357800Y27814800D02*
X43357800Y43495160D01*
X43357800Y43495160D02*
X45054000Y45191360D01*
X48590200Y23672800D02*
X44602400Y23672800D01*
X44602400Y23672800D02*
X44602400Y26570200D01*
X51029000Y21234000D02*
X48590200Y23672800D01*
X44602400Y26570200D02*
X43461200Y27711400D01*
G04 #@! TO.N,GND*
X39624000Y19939000D02*
X39624000Y26824200D01*
X39624000Y26824200D02*
X40511200Y27711400D01*
X54079200Y43081000D02*
X55333000Y43081000D01*
X56896000Y47942000D02*
X55054000Y49784000D01*
X55333000Y43081000D02*
X55333000Y44958000D01*
X55333000Y44958000D02*
X56896000Y44958000D01*
X52933600Y41935400D02*
X54079200Y43081000D01*
X56896000Y44958000D02*
X56896000Y47942000D01*
G04 #@! TO.N,+3V3*
X45313600Y41935400D02*
X45313600Y44931760D01*
X45313600Y44931760D02*
X45054000Y45191360D01*
G04 #@! TO.N,Net-(J2-Pin_3)*
X47853600Y41935400D02*
X47853600Y44513080D01*
X47853600Y44513080D02*
X47054000Y45312680D01*
G04 #@! TO.N,Net-(J2-Pin_2)*
X50393600Y44653200D02*
X49149000Y45897800D01*
X49149000Y45897800D02*
X49149000Y49689000D01*
X50393600Y44653200D02*
X50393600Y41935400D01*
X49149000Y45339000D02*
X49149000Y45897800D01*
G04 #@! TO.N,+12V*
X40034000Y16989000D02*
X41529000Y15494000D01*
X31906000Y16989000D02*
X31877000Y17018000D01*
X8509000Y52959000D02*
X8509000Y47461500D01*
X26289000Y52959000D02*
X26289000Y46191500D01*
X8509000Y47461500D02*
X8291500Y47244000D01*
X39624000Y16989000D02*
X40034000Y16989000D01*
X41529000Y15494000D02*
X41769000Y15734000D01*
X39624000Y16989000D02*
X31906000Y16989000D01*
X26289000Y46191500D02*
X26071500Y45974000D01*
X41769000Y15734000D02*
X44729000Y15734000D01*
G04 #@! TO.N,GND*
X37084000Y19939000D02*
X39624000Y19939000D01*
X18170000Y59808000D02*
X16764000Y61214000D01*
X40019000Y20334000D02*
X39624000Y19939000D01*
X44729000Y20334000D02*
X40019000Y20334000D01*
X56896000Y8128000D02*
X54229000Y5461000D01*
X39751000Y5461000D02*
X36293000Y8919000D01*
D33*
X31877000Y48514000D02*
X30353000Y50038000D01*
D32*
X36293000Y8919000D02*
X35179000Y8919000D01*
D33*
X15179000Y48484000D02*
X15143000Y48484000D01*
D32*
X20574000Y59808000D02*
X18170000Y59808000D01*
D33*
X15143000Y48484000D02*
X13335000Y50292000D01*
D32*
X2540000Y59847000D02*
X2540000Y56769000D01*
X30353000Y50038000D02*
X30353000Y51816000D01*
X13335000Y51943000D02*
X13335000Y50292000D01*
X37084000Y19939000D02*
X35306000Y19939000D01*
D33*
X15179000Y48484000D02*
X15179000Y49591000D01*
X32644000Y48514000D02*
X31877000Y48514000D01*
D32*
X54229000Y5461000D02*
X39751000Y5461000D01*
G04 #@! TO.N,+3V3*
X28026000Y67986000D02*
X27146000Y67986000D01*
X32004000Y57277000D02*
X31496000Y57785000D01*
X44729000Y18034000D02*
X51029000Y18034000D01*
X16891000Y57277000D02*
X13589000Y60579000D01*
X45054000Y49784000D02*
X43434000Y49784000D01*
X8477000Y73619000D02*
X8477000Y67859000D01*
X13589000Y60579000D02*
X13589000Y64035767D01*
X31496000Y64516000D02*
X28026000Y67986000D01*
X51029000Y21234000D02*
X51029000Y18034000D01*
X27146000Y67986000D02*
X27146000Y73746000D01*
X35941000Y57277000D02*
X32004000Y57277000D01*
X10695767Y66929000D02*
X9407000Y66929000D01*
X32004000Y57277000D02*
X16891000Y57277000D01*
X13589000Y64035767D02*
X10695767Y66929000D01*
X43434000Y49784000D02*
X35941000Y57277000D01*
X45054000Y45191360D02*
X45054000Y49784000D01*
X9407000Y66929000D02*
X8477000Y67859000D01*
X31496000Y57785000D02*
X31496000Y64516000D01*
G04 #@! TO.N,CH1*
X28796771Y75970229D02*
X28186000Y76581000D01*
X23495000Y76581000D02*
X23146000Y76232000D01*
X23146000Y66643000D02*
X24638000Y65151000D01*
X23146000Y73746000D02*
X23146000Y67986000D01*
X23146000Y76232000D02*
X23146000Y73746000D01*
X43054000Y62284000D02*
X36395000Y62284000D01*
X28186000Y76581000D02*
X23495000Y76581000D01*
X27797000Y65151000D02*
X29083000Y63865000D01*
X36395000Y62284000D02*
X28796771Y69882229D01*
X23146000Y67986000D02*
X23146000Y66643000D01*
X28796771Y69882229D02*
X28796771Y75970229D01*
X24638000Y65151000D02*
X27797000Y65151000D01*
G04 #@! TO.N,Net-(D1-A)*
X23749000Y61849000D02*
X20583000Y61849000D01*
X23359000Y62239000D02*
X23749000Y61849000D01*
X20583000Y61849000D02*
X20574000Y61858000D01*
D33*
G04 #@! TO.N,Net-(D2-A)*
X33594000Y45654000D02*
X33909000Y45339000D01*
D32*
X33909000Y45339000D02*
X29464000Y45339000D01*
D33*
X33594000Y46639000D02*
X33594000Y45654000D01*
D32*
X33909000Y45339000D02*
X35179000Y45339000D01*
X29464000Y46191500D02*
X29046500Y46609000D01*
X35179000Y45339000D02*
X38862000Y45339000D01*
X29464000Y45339000D02*
X29464000Y46191500D01*
G04 #@! TO.N,Net-(D3-A)*
X5842000Y61722000D02*
X5969000Y61849000D01*
X5666500Y62151500D02*
X5969000Y61849000D01*
X2540000Y61722000D02*
X5842000Y61722000D01*
D33*
G04 #@! TO.N,Net-(D4-A)*
X16129000Y46609000D02*
X16129000Y45466000D01*
D32*
X16256000Y45339000D02*
X12536500Y45339000D01*
D33*
X16256000Y45339000D02*
X20574000Y45339000D01*
X20574000Y45339000D02*
X20701000Y45466000D01*
X16129000Y45466000D02*
X16256000Y45339000D01*
D32*
X12536500Y45339000D02*
X11266500Y46609000D01*
G04 #@! TO.N,Net-(J2-Pin_2)*
X49149000Y49689000D02*
X49054000Y49784000D01*
G04 #@! TO.N,Net-(J2-Pin_3)*
X47054000Y45312680D02*
X47054000Y49784000D01*
D33*
G04 #@! TO.N,Net-(Q1-B)*
X34544000Y50054000D02*
X35179000Y50689000D01*
X34544000Y48514000D02*
X34544000Y50054000D01*
G04 #@! TO.N,Net-(Q2-B)*
X17079000Y50369000D02*
X17399000Y50689000D01*
X17079000Y48484000D02*
X17079000Y50369000D01*
D32*
G04 #@! TO.N,Net-(R1-Pad2)*
X26273000Y61865000D02*
X26289000Y61849000D01*
X26305000Y61865000D02*
X26289000Y61849000D01*
X29083000Y61865000D02*
X26305000Y61865000D01*
X26654000Y62214000D02*
X26289000Y61849000D01*
G04 #@! TO.N,Net-(R2-Pad1)*
X23749000Y52959000D02*
X23749000Y54709000D01*
X23749000Y54709000D02*
X24539000Y55499000D01*
X24539000Y55499000D02*
X33909000Y55499000D01*
X33909000Y55499000D02*
X35179000Y54229000D01*
X35179000Y54229000D02*
X35179000Y52689000D01*
G04 #@! TO.N,Net-(R3-Pad2)*
X8541000Y61881000D02*
X8509000Y61849000D01*
X8874000Y62214000D02*
X8509000Y61849000D01*
X11176000Y61881000D02*
X8541000Y61881000D01*
G04 #@! TO.N,Net-(R4-Pad1)*
X5969000Y54864000D02*
X6604000Y55499000D01*
X6604000Y55499000D02*
X16129000Y55499000D01*
X16129000Y55499000D02*
X17399000Y54229000D01*
X5969000Y52959000D02*
X5969000Y54864000D01*
X17399000Y54229000D02*
X17399000Y52689000D01*
G04 #@! TO.N,CH2*
X4477000Y73619000D02*
X4477000Y75994000D01*
X4477000Y70263000D02*
X4477000Y73619000D01*
X4488881Y77386881D02*
X4488881Y76005881D01*
X43054000Y63784000D02*
X37016320Y63784000D01*
X4477000Y75994000D02*
X4488881Y76005881D01*
X5080000Y64770000D02*
X4477000Y65373000D01*
X10287000Y64770000D02*
X5080000Y64770000D01*
X30296771Y76591549D02*
X28807320Y78081000D01*
X4445000Y70231000D02*
X4477000Y70263000D01*
X30296771Y70503549D02*
X30296771Y76591549D01*
X4445000Y70231000D02*
X4445000Y67891000D01*
X28807320Y78081000D02*
X5183000Y78081000D01*
X4477000Y65373000D02*
X4477000Y67859000D01*
X37016320Y63784000D02*
X30296771Y70503549D01*
X11176000Y63881000D02*
X10287000Y64770000D01*
X4445000Y67891000D02*
X4477000Y67859000D01*
X5183000Y78081000D02*
X4488881Y77386881D01*
G04 #@! TO.N,Net-(U2-CS)*
X52959000Y45339000D02*
X53325000Y45339000D01*
X53325000Y45339000D02*
X53633000Y45031000D01*
X53633000Y45031000D02*
X53633000Y44831000D01*
X52959000Y49689000D02*
X53054000Y49784000D01*
G04 #@! TD*
G04 #@! TA.AperFunction,Conductor*
G04 #@! TO.N,+3V3*
G36*
X58180090Y30600923D02*
G01*
X58289160Y30587846D01*
X58320439Y30579863D01*
X58356220Y30565553D01*
X58411089Y30543609D01*
X58439250Y30527819D01*
X58517463Y30469396D01*
X58540595Y30446870D01*
X58601076Y30370232D01*
X58617608Y30342499D01*
X58656252Y30252849D01*
X58665064Y30221788D01*
X58681032Y30113094D01*
X58681682Y30105044D01*
X59045063Y6364190D01*
X59046812Y6249925D01*
X59046967Y6239846D01*
X59046536Y6231528D01*
X59033127Y6119371D01*
X59024808Y6087228D01*
X58986873Y5994294D01*
X58970323Y5965511D01*
X58909089Y5885976D01*
X58885493Y5862615D01*
X58805348Y5802179D01*
X58776401Y5785918D01*
X58683096Y5748916D01*
X58650870Y5740918D01*
X58538578Y5728634D01*
X58530257Y5728285D01*
X56264743Y5785640D01*
X56198223Y5807015D01*
X56153819Y5860960D01*
X56145629Y5930348D01*
X56176253Y5993148D01*
X56180169Y5997249D01*
X57639341Y7456420D01*
X57735698Y7574593D01*
X57829909Y7754951D01*
X57885887Y7950582D01*
X57901337Y8153477D01*
X57875630Y8355328D01*
X57809816Y8547873D01*
X57706591Y8723227D01*
X57570179Y8874214D01*
X57570178Y8874215D01*
X57570177Y8874216D01*
X57406170Y8994647D01*
X57406163Y8994652D01*
X57221273Y9079605D01*
X57221264Y9079608D01*
X57023054Y9125604D01*
X56819639Y9130757D01*
X56819636Y9130757D01*
X56619351Y9094861D01*
X56619345Y9094859D01*
X56430387Y9019381D01*
X56430377Y9019375D01*
X56260481Y8907403D01*
X56260480Y8907402D01*
X53850899Y6497819D01*
X53789576Y6464334D01*
X53763218Y6461500D01*
X45721768Y6461500D01*
X45654729Y6481185D01*
X45608974Y6533989D01*
X45597771Y6586295D01*
X45612437Y8874216D01*
X45647604Y14360300D01*
X45667716Y14427208D01*
X45720813Y14472623D01*
X45771599Y14483501D01*
X45776872Y14483501D01*
X45836483Y14489909D01*
X45971331Y14540204D01*
X46086546Y14626454D01*
X46172796Y14741669D01*
X46223091Y14876517D01*
X46229500Y14936127D01*
X46229499Y16531872D01*
X46223091Y16591483D01*
X46198222Y16658159D01*
X46172797Y16726329D01*
X46172793Y16726336D01*
X46086547Y16841545D01*
X46086544Y16841548D01*
X45971335Y16927794D01*
X45971328Y16927798D01*
X45836482Y16978092D01*
X45836483Y16978092D01*
X45775963Y16984598D01*
X45711412Y17011336D01*
X45671563Y17068728D01*
X45665221Y17108677D01*
X45677103Y18962188D01*
X45697216Y19029098D01*
X45750313Y19074513D01*
X45787845Y19084681D01*
X45836483Y19089909D01*
X45971331Y19140204D01*
X46086546Y19226454D01*
X46172796Y19341669D01*
X46223091Y19476517D01*
X46229500Y19536127D01*
X46229499Y21131872D01*
X46223091Y21191483D01*
X46198222Y21258159D01*
X46172797Y21326329D01*
X46172793Y21326336D01*
X46086547Y21441545D01*
X46086544Y21441548D01*
X45971335Y21527794D01*
X45971328Y21527798D01*
X45836482Y21578092D01*
X45836484Y21578092D01*
X45805429Y21581430D01*
X45740878Y21608168D01*
X45701030Y21665561D01*
X45694688Y21705510D01*
X45716789Y25153166D01*
X45717367Y25161215D01*
X45732323Y25269883D01*
X45740832Y25300976D01*
X45778571Y25390860D01*
X45794809Y25418707D01*
X45854443Y25495826D01*
X45877307Y25518545D01*
X45954808Y25577686D01*
X45982756Y25593742D01*
X46072886Y25630906D01*
X46104026Y25639214D01*
X46155612Y25645978D01*
X46212791Y25653473D01*
X46220858Y25654000D01*
X46756980Y25654000D01*
X46756985Y25654000D01*
X47244000Y25654000D01*
X47358080Y29989074D01*
X47360032Y30007963D01*
X47378396Y30109089D01*
X47382196Y30130014D01*
X47394573Y30165802D01*
X47448040Y30266946D01*
X47470640Y30297326D01*
X47552149Y30377616D01*
X47582870Y30399758D01*
X47684808Y30451694D01*
X47720775Y30463530D01*
X47843154Y30483853D01*
X47862056Y30485518D01*
X54985155Y30565553D01*
X58172013Y30601360D01*
X58180090Y30600923D01*
G37*
G04 #@! TD.AperFunction*
G04 #@! TD*
G04 #@! TA.AperFunction,Conductor*
G04 #@! TO.N,GND*
G36*
X706791Y61204748D02*
G01*
X826274Y61127961D01*
X919285Y61020622D01*
X953825Y60957212D01*
X997197Y60861728D01*
X997200Y60861723D01*
X997201Y60861721D01*
X1040728Y60798894D01*
X1124746Y60677620D01*
X1124754Y60677611D01*
X1283110Y60519255D01*
X1283118Y60519248D01*
X1467221Y60391701D01*
X1467224Y60391700D01*
X1467225Y60391699D01*
X1671136Y60299077D01*
X1671137Y60299077D01*
X1671139Y60299076D01*
X1888320Y60244352D01*
X2019847Y60234000D01*
X2019852Y60234000D01*
X2316753Y60234000D01*
X2337360Y60233149D01*
X2477933Y60221500D01*
X4310674Y60221500D01*
X4451259Y60201287D01*
X4580454Y60142286D01*
X4640943Y60093540D01*
X4642144Y60094925D01*
X4655605Y60083260D01*
X4730591Y60027127D01*
X4884685Y59911774D01*
X5135839Y59774633D01*
X5324907Y59704114D01*
X5403956Y59674630D01*
X5664138Y59618032D01*
X5683572Y59613804D01*
X5969000Y59593390D01*
X6254428Y59613804D01*
X6374048Y59639826D01*
X6534043Y59674630D01*
X6580989Y59692140D01*
X6802161Y59774633D01*
X6999856Y59882584D01*
X7132928Y59932217D01*
X7274596Y59942350D01*
X7413380Y59912160D01*
X7478140Y59882585D01*
X7675839Y59774633D01*
X7864907Y59704114D01*
X7943956Y59674630D01*
X8204138Y59618032D01*
X8223572Y59613804D01*
X8509000Y59593390D01*
X8794428Y59613804D01*
X8914048Y59639826D01*
X9074043Y59674630D01*
X9120989Y59692140D01*
X9342161Y59774633D01*
X9593315Y59911774D01*
X9822395Y60083261D01*
X9930367Y60191235D01*
X10044069Y60276350D01*
X10177144Y60325984D01*
X10318812Y60336117D01*
X10405139Y60322263D01*
X10529588Y60290904D01*
X10661783Y60280500D01*
X11690216Y60280501D01*
X11690218Y60280501D01*
X11713395Y60282325D01*
X11855132Y60273204D01*
X11988558Y60224520D01*
X12102864Y60140218D01*
X12188788Y60027127D01*
X12217406Y59966259D01*
X12236344Y59917726D01*
X12236345Y59917724D01*
X12244371Y59904254D01*
X12258530Y59876748D01*
X12264824Y59862399D01*
X12264826Y59862395D01*
X12315861Y59784278D01*
X12363628Y59704114D01*
X12363637Y59704102D01*
X12373768Y59692140D01*
X12392265Y59667333D01*
X12400836Y59654215D01*
X12464033Y59585565D01*
X12472524Y59575539D01*
X12484100Y59561872D01*
X12506050Y59539922D01*
X12569252Y59471265D01*
X12569259Y59471259D01*
X12581629Y59461631D01*
X12604820Y59441152D01*
X13416316Y58629656D01*
X14194626Y57851346D01*
X14279742Y57737645D01*
X14329376Y57604570D01*
X14339509Y57462902D01*
X14309318Y57324117D01*
X14241250Y57199460D01*
X14140820Y57099030D01*
X14016163Y57030962D01*
X13877378Y57000771D01*
X13841780Y56999500D01*
X6712670Y56999500D01*
X6681779Y57001418D01*
X6666225Y57003357D01*
X6666218Y57003357D01*
X6596279Y57000465D01*
X6572965Y56999500D01*
X6541928Y56999500D01*
X6511007Y56996938D01*
X6448845Y56994367D01*
X6417763Y56993081D01*
X6417761Y56993081D01*
X6417756Y56993080D01*
X6402410Y56989863D01*
X6371808Y56985404D01*
X6356188Y56984110D01*
X6356180Y56984109D01*
X6356179Y56984108D01*
X6265725Y56961203D01*
X6174386Y56942050D01*
X6174378Y56942048D01*
X6159776Y56936350D01*
X6130314Y56926912D01*
X6115128Y56923067D01*
X6115121Y56923064D01*
X6029667Y56885581D01*
X5942719Y56851653D01*
X5929248Y56843627D01*
X5901759Y56829477D01*
X5887404Y56823180D01*
X5887385Y56823169D01*
X5809276Y56772138D01*
X5729108Y56724368D01*
X5729090Y56724355D01*
X5717134Y56714229D01*
X5692346Y56695745D01*
X5679225Y56687173D01*
X5679211Y56687162D01*
X5610552Y56623956D01*
X5586878Y56603905D01*
X5586877Y56603904D01*
X5564929Y56581958D01*
X5496260Y56518744D01*
X5486620Y56506358D01*
X5466141Y56483170D01*
X4984830Y56001859D01*
X4961641Y55981379D01*
X4949257Y55971740D01*
X4949254Y55971737D01*
X4886049Y55903079D01*
X4864102Y55881131D01*
X4864098Y55881126D01*
X4844032Y55857436D01*
X4844033Y55857436D01*
X4780837Y55788787D01*
X4780827Y55788774D01*
X4772253Y55775652D01*
X4753773Y55750868D01*
X4743643Y55738906D01*
X4743629Y55738887D01*
X4695859Y55658719D01*
X4644825Y55580606D01*
X4644824Y55580605D01*
X4638526Y55566246D01*
X4624373Y55538751D01*
X4616350Y55525287D01*
X4616343Y55525272D01*
X4582419Y55438334D01*
X4544936Y55352881D01*
X4541085Y55337675D01*
X4531649Y55308218D01*
X4525951Y55293617D01*
X4525950Y55293613D01*
X4517497Y55253300D01*
X4506801Y55202289D01*
X4491461Y55141715D01*
X4483891Y55111819D01*
X4483890Y55111812D01*
X4482595Y55096190D01*
X4478136Y55065587D01*
X4474919Y55050243D01*
X4474919Y55050241D01*
X4471062Y54956993D01*
X4468500Y54926072D01*
X4468500Y54895035D01*
X4464643Y54801782D01*
X4464643Y54801769D01*
X4466582Y54786211D01*
X4468499Y54755338D01*
X4468500Y54708851D01*
X4448292Y54568266D01*
X4389294Y54439069D01*
X4368971Y54409797D01*
X4281776Y54293318D01*
X4281772Y54293313D01*
X4144633Y54042162D01*
X4044629Y53774044D01*
X3983805Y53494437D01*
X3983804Y53494431D01*
X3983804Y53494428D01*
X3968500Y53280448D01*
X3968500Y53280447D01*
X3968500Y52637553D01*
X3983805Y52423564D01*
X4044629Y52143957D01*
X4144633Y51875839D01*
X4281770Y51624691D01*
X4281774Y51624685D01*
X4350368Y51533053D01*
X4453258Y51395608D01*
X4655607Y51193259D01*
X4747237Y51124667D01*
X4884685Y51021774D01*
X5135839Y50884633D01*
X5326648Y50813465D01*
X5403956Y50784630D01*
X5664138Y50728032D01*
X5683572Y50723804D01*
X5969000Y50703390D01*
X6254428Y50723804D01*
X6403428Y50756217D01*
X6545098Y50766350D01*
X6683882Y50736159D01*
X6808539Y50668091D01*
X6908970Y50567661D01*
X6977038Y50443004D01*
X7007229Y50304220D01*
X7008500Y50268621D01*
X7008500Y48388666D01*
X6988287Y48248081D01*
X6929286Y48118886D01*
X6878912Y48056375D01*
X6879539Y48055852D01*
X6865181Y48038655D01*
X6736991Y47853625D01*
X6643904Y47648684D01*
X6588905Y47430416D01*
X6588904Y47430412D01*
X6578500Y47298220D01*
X6578500Y45919780D01*
X6588904Y45787589D01*
X6588905Y45787585D01*
X6643904Y45569317D01*
X6736991Y45364376D01*
X6865179Y45179348D01*
X6865187Y45179339D01*
X7024338Y45020188D01*
X7024347Y45020180D01*
X7209375Y44891992D01*
X7290579Y44855108D01*
X7414317Y44798904D01*
X7632589Y44743904D01*
X7731113Y44736150D01*
X7764780Y44733500D01*
X7764784Y44733500D01*
X8818220Y44733500D01*
X8849870Y44735992D01*
X8950411Y44743904D01*
X9168683Y44798904D01*
X9373626Y44891993D01*
X9479765Y44965527D01*
X9606829Y45028969D01*
X9746628Y45054046D01*
X9887829Y45038721D01*
X10018993Y44984235D01*
X10129493Y44895004D01*
X10210378Y44778255D01*
X10255095Y44643448D01*
X10260021Y44501503D01*
X10224756Y44363920D01*
X10152159Y44241846D01*
X10139109Y44226340D01*
X10117729Y44201960D01*
X9953829Y43956666D01*
X9823348Y43692078D01*
X9823346Y43692075D01*
X9728520Y43412726D01*
X9728518Y43412718D01*
X9670967Y43123388D01*
X9670966Y43123386D01*
X9651671Y42829000D01*
X9670966Y42534615D01*
X9670967Y42534613D01*
X9728518Y42245283D01*
X9728520Y42245275D01*
X9823348Y41965921D01*
X9953824Y41701341D01*
X9953827Y41701335D01*
X10117724Y41456047D01*
X10117727Y41456043D01*
X10312241Y41234242D01*
X10534042Y41039728D01*
X10534046Y41039725D01*
X10779334Y40875828D01*
X10779340Y40875825D01*
X11043920Y40745349D01*
X11043923Y40745348D01*
X11323278Y40650519D01*
X11612613Y40592968D01*
X11612614Y40592967D01*
X11612615Y40592967D01*
X11612620Y40592966D01*
X11907000Y40573671D01*
X12201380Y40592966D01*
X12490722Y40650519D01*
X12770077Y40745348D01*
X13034665Y40875828D01*
X13279957Y41039727D01*
X13501758Y41234242D01*
X13696273Y41456043D01*
X13860172Y41701335D01*
X13990652Y41965923D01*
X14085481Y42245278D01*
X14143034Y42534620D01*
X14162329Y42829000D01*
X14143034Y43123380D01*
X14119408Y43242154D01*
X14111807Y43383976D01*
X14144470Y43522199D01*
X14214752Y43645621D01*
X14316959Y43744244D01*
X14442811Y43810076D01*
X14582112Y43837785D01*
X14608821Y43838500D01*
X16318061Y43838500D01*
X16318067Y43838500D01*
X16503821Y43853892D01*
X16744881Y43914937D01*
X16800601Y43939378D01*
X16816772Y43946471D01*
X16953635Y43984433D01*
X17017217Y43988500D01*
X17194210Y43988500D01*
X17334795Y43968287D01*
X17463990Y43909286D01*
X17571329Y43816276D01*
X17648116Y43696792D01*
X17688131Y43560515D01*
X17688131Y43418485D01*
X17648116Y43282208D01*
X17571329Y43162724D01*
X17463990Y43069714D01*
X17334795Y43010713D01*
X17323355Y43007501D01*
X17323269Y43007479D01*
X17043925Y42912654D01*
X17043922Y42912652D01*
X16779334Y42782171D01*
X16534042Y42618273D01*
X16312241Y42423759D01*
X16117727Y42201958D01*
X15953829Y41956666D01*
X15823348Y41692078D01*
X15823346Y41692075D01*
X15728520Y41412726D01*
X15728518Y41412718D01*
X15670967Y41123388D01*
X15670966Y41123386D01*
X15651671Y40829001D01*
X15670966Y40534615D01*
X15670967Y40534613D01*
X15728518Y40245283D01*
X15728520Y40245275D01*
X15823348Y39965921D01*
X15953824Y39701341D01*
X15953827Y39701335D01*
X16117724Y39456047D01*
X16117727Y39456043D01*
X16312241Y39234242D01*
X16534042Y39039728D01*
X16534046Y39039725D01*
X16779334Y38875828D01*
X16779340Y38875825D01*
X17043920Y38745349D01*
X17043923Y38745348D01*
X17323278Y38650519D01*
X17612613Y38592968D01*
X17612614Y38592967D01*
X17612615Y38592967D01*
X17612620Y38592966D01*
X17907000Y38573671D01*
X18201380Y38592966D01*
X18490722Y38650519D01*
X18770077Y38745348D01*
X19034665Y38875828D01*
X19279957Y39039727D01*
X19501758Y39234242D01*
X19696273Y39456043D01*
X19860172Y39701335D01*
X19990652Y39965923D01*
X20085481Y40245278D01*
X20143034Y40534620D01*
X20162329Y40829000D01*
X21493671Y40829000D01*
X21512966Y40534615D01*
X21512967Y40534613D01*
X21570518Y40245283D01*
X21570520Y40245275D01*
X21665348Y39965921D01*
X21795824Y39701341D01*
X21795827Y39701335D01*
X21959724Y39456047D01*
X21959727Y39456043D01*
X22154241Y39234242D01*
X22376042Y39039728D01*
X22376046Y39039725D01*
X22621334Y38875828D01*
X22621340Y38875825D01*
X22885920Y38745349D01*
X22885923Y38745348D01*
X23165278Y38650519D01*
X23454613Y38592968D01*
X23454614Y38592967D01*
X23454615Y38592967D01*
X23454620Y38592966D01*
X23749000Y38573671D01*
X24043380Y38592966D01*
X24332722Y38650519D01*
X24612077Y38745348D01*
X24876665Y38875828D01*
X25121957Y39039727D01*
X25343758Y39234242D01*
X25538273Y39456043D01*
X25702172Y39701335D01*
X25832652Y39965923D01*
X25927481Y40245278D01*
X25985034Y40534620D01*
X26004329Y40829000D01*
X25985034Y41123380D01*
X25927481Y41412722D01*
X25832652Y41692077D01*
X25702172Y41956664D01*
X25538273Y42201957D01*
X25343758Y42423758D01*
X25343755Y42423760D01*
X25343754Y42423762D01*
X25121957Y42618273D01*
X25121953Y42618276D01*
X24876665Y42782173D01*
X24876659Y42782176D01*
X24612079Y42912652D01*
X24332725Y43007480D01*
X24332724Y43007481D01*
X24332722Y43007481D01*
X24332471Y43007531D01*
X24043387Y43065033D01*
X24043385Y43065034D01*
X23779559Y43082326D01*
X23749000Y43084329D01*
X23748999Y43084329D01*
X23454614Y43065034D01*
X23454612Y43065033D01*
X23165282Y43007482D01*
X23165274Y43007480D01*
X22885925Y42912654D01*
X22885922Y42912652D01*
X22621334Y42782171D01*
X22376042Y42618273D01*
X22154241Y42423759D01*
X21959727Y42201958D01*
X21795829Y41956666D01*
X21665348Y41692078D01*
X21665346Y41692075D01*
X21570520Y41412726D01*
X21570518Y41412718D01*
X21512967Y41123388D01*
X21512966Y41123386D01*
X21493671Y40829000D01*
X20162329Y40829000D01*
X20143034Y41123380D01*
X20085481Y41412722D01*
X19990652Y41692077D01*
X19860172Y41956664D01*
X19696273Y42201957D01*
X19501758Y42423758D01*
X19501755Y42423760D01*
X19501754Y42423762D01*
X19279957Y42618273D01*
X19279953Y42618276D01*
X19034665Y42782173D01*
X19034659Y42782176D01*
X18770079Y42912652D01*
X18490730Y43007479D01*
X18490645Y43007501D01*
X18490576Y43007531D01*
X18475253Y43012732D01*
X18475656Y43013920D01*
X18360082Y43063410D01*
X18250558Y43153838D01*
X18170948Y43271459D01*
X18127700Y43406745D01*
X18124318Y43548735D01*
X18161077Y43685926D01*
X18234997Y43807204D01*
X18340092Y43902743D01*
X18467845Y43964804D01*
X18607909Y43988359D01*
X18619790Y43988500D01*
X19170441Y43988500D01*
X19311026Y43968287D01*
X19440221Y43909286D01*
X19469465Y43888982D01*
X19616685Y43778774D01*
X19867839Y43641633D01*
X20058648Y43570465D01*
X20135956Y43541630D01*
X20396138Y43485032D01*
X20415572Y43480804D01*
X20701000Y43460390D01*
X20986428Y43480804D01*
X21141938Y43514633D01*
X21266043Y43541630D01*
X21279883Y43546792D01*
X21534161Y43641633D01*
X21785315Y43778774D01*
X22014395Y43950261D01*
X22216739Y44152605D01*
X22388226Y44381685D01*
X22525367Y44632839D01*
X22625369Y44900954D01*
X22657609Y45049157D01*
X22685929Y45179346D01*
X22686196Y45180572D01*
X22706610Y45466000D01*
X22686196Y45751428D01*
X22672826Y45812888D01*
X22625370Y46031044D01*
X22586816Y46134411D01*
X22525367Y46299161D01*
X22388226Y46550315D01*
X22285333Y46687763D01*
X22216741Y46779393D01*
X22014392Y46981742D01*
X21833059Y47117485D01*
X21785315Y47153226D01*
X21785313Y47153227D01*
X21785312Y47153228D01*
X21534161Y47290367D01*
X21266043Y47390371D01*
X20986436Y47451195D01*
X20986430Y47451196D01*
X20986428Y47451196D01*
X20701000Y47471610D01*
X20415572Y47451196D01*
X20415569Y47451196D01*
X20415563Y47451195D01*
X20135956Y47390371D01*
X19867838Y47290367D01*
X19616687Y47153228D01*
X19616682Y47153224D01*
X19387606Y46981742D01*
X19241518Y46835653D01*
X19127817Y46750537D01*
X18994742Y46700903D01*
X18888673Y46689500D01*
X18719526Y46689500D01*
X18578941Y46709713D01*
X18449746Y46768714D01*
X18342407Y46861724D01*
X18265620Y46981208D01*
X18225605Y47117485D01*
X18225605Y47259515D01*
X18263043Y47390055D01*
X18263183Y47390371D01*
X18324532Y47529315D01*
X18373349Y47736870D01*
X18375432Y47766870D01*
X18379500Y47825487D01*
X18379500Y47935383D01*
X18379499Y48053907D01*
X18396502Y48183056D01*
X18414063Y48248592D01*
X18429500Y48425034D01*
X18429500Y48958542D01*
X18449713Y49099126D01*
X18508714Y49228321D01*
X18601724Y49335660D01*
X18644329Y49368721D01*
X18653654Y49375181D01*
X18812819Y49534346D01*
X18941007Y49719374D01*
X19034096Y49924317D01*
X19089096Y50142588D01*
X19099500Y50274783D01*
X19099499Y51103216D01*
X19089096Y51235412D01*
X19034096Y51453683D01*
X19020943Y51482639D01*
X18981209Y51618989D01*
X18981497Y51761019D01*
X19020943Y51895362D01*
X19034096Y51924317D01*
X19089096Y52142588D01*
X19099500Y52274783D01*
X19099499Y53103216D01*
X19089096Y53235412D01*
X19034096Y53453683D01*
X18965106Y53605571D01*
X18944171Y53651662D01*
X18904435Y53788020D01*
X18899500Y53858025D01*
X18899500Y54120331D01*
X18901418Y54151223D01*
X18903357Y54166780D01*
X18899500Y54260027D01*
X18899500Y54291063D01*
X18899313Y54293315D01*
X18896936Y54322006D01*
X18893080Y54415237D01*
X18889862Y54430581D01*
X18885402Y54461198D01*
X18884108Y54476821D01*
X18861196Y54567298D01*
X18842049Y54658614D01*
X18836350Y54673217D01*
X18826912Y54702678D01*
X18823063Y54717881D01*
X18793091Y54786211D01*
X18785579Y54803337D01*
X18751658Y54890270D01*
X18748818Y54895036D01*
X18743626Y54903750D01*
X18729460Y54931273D01*
X18723174Y54945604D01*
X18723173Y54945607D01*
X18684645Y55004579D01*
X18624677Y55133324D01*
X18603409Y55273753D01*
X18622566Y55414485D01*
X18680595Y55544120D01*
X18772797Y55652154D01*
X18891700Y55729837D01*
X19027673Y55770874D01*
X19102395Y55776500D01*
X21826654Y55776500D01*
X21967239Y55756287D01*
X22096434Y55697286D01*
X22203773Y55604276D01*
X22280560Y55484792D01*
X22320575Y55348515D01*
X22320575Y55206485D01*
X22310114Y55158827D01*
X22310186Y55158812D01*
X22305950Y55138614D01*
X22305951Y55138614D01*
X22286801Y55047289D01*
X22275985Y55004575D01*
X22263891Y54956819D01*
X22263890Y54956812D01*
X22262595Y54941190D01*
X22258136Y54910587D01*
X22254919Y54895243D01*
X22254919Y54895241D01*
X22251062Y54801998D01*
X22248500Y54771065D01*
X22248500Y54771058D01*
X22248499Y54740032D01*
X22246255Y54685782D01*
X22220249Y54546153D01*
X22155958Y54419507D01*
X22147153Y54407369D01*
X22061775Y54293316D01*
X22061772Y54293313D01*
X21924633Y54042162D01*
X21824629Y53774044D01*
X21763805Y53494437D01*
X21763804Y53494431D01*
X21763804Y53494428D01*
X21748500Y53280448D01*
X21748500Y53280447D01*
X21748500Y52637553D01*
X21763805Y52423564D01*
X21824629Y52143957D01*
X21924633Y51875839D01*
X22061770Y51624691D01*
X22061774Y51624685D01*
X22130368Y51533054D01*
X22233258Y51395608D01*
X22435607Y51193259D01*
X22527237Y51124667D01*
X22664685Y51021774D01*
X22915839Y50884633D01*
X23106648Y50813465D01*
X23183956Y50784630D01*
X23444138Y50728032D01*
X23463572Y50723804D01*
X23749000Y50703390D01*
X24034428Y50723804D01*
X24183428Y50756217D01*
X24325098Y50766350D01*
X24463882Y50736159D01*
X24588539Y50668091D01*
X24688970Y50567661D01*
X24757038Y50443004D01*
X24787229Y50304220D01*
X24788500Y50268621D01*
X24788500Y48388666D01*
X24768287Y48248081D01*
X24709286Y48118886D01*
X24658916Y48056383D01*
X24659544Y48055858D01*
X24645179Y48038653D01*
X24516991Y47853625D01*
X24423904Y47648684D01*
X24368905Y47430416D01*
X24368904Y47430412D01*
X24358500Y47298220D01*
X24358500Y45919780D01*
X24368904Y45787589D01*
X24368905Y45787585D01*
X24423904Y45569317D01*
X24516991Y45364376D01*
X24645179Y45179348D01*
X24645187Y45179339D01*
X24804338Y45020188D01*
X24804346Y45020181D01*
X24989374Y44891993D01*
X24990904Y44891298D01*
X24993535Y44889632D01*
X25008864Y44880934D01*
X25008442Y44880192D01*
X25080031Y44834855D01*
X25081607Y44837061D01*
X25098403Y44825069D01*
X25098404Y44825068D01*
X25300784Y44680571D01*
X25524187Y44571356D01*
X25762519Y44500401D01*
X26009279Y44469643D01*
X26257737Y44479919D01*
X26501114Y44530951D01*
X26732774Y44621344D01*
X26946394Y44748634D01*
X26988471Y44784273D01*
X27018790Y44809950D01*
X27134932Y44883502D01*
X27153626Y44891993D01*
X27274829Y44975964D01*
X27401897Y45039407D01*
X27541696Y45064483D01*
X27682897Y45049157D01*
X27814060Y44994671D01*
X27843179Y44975957D01*
X27878068Y44951785D01*
X27982117Y44855108D01*
X28054713Y44733033D01*
X28089976Y44595450D01*
X28085049Y44453505D01*
X28040331Y44318698D01*
X27969066Y44212607D01*
X27959728Y44201960D01*
X27795829Y43956666D01*
X27665348Y43692078D01*
X27665346Y43692075D01*
X27570520Y43412726D01*
X27570518Y43412718D01*
X27512967Y43123388D01*
X27512966Y43123386D01*
X27493671Y42829001D01*
X27512966Y42534615D01*
X27512967Y42534613D01*
X27570518Y42245283D01*
X27570520Y42245275D01*
X27665348Y41965921D01*
X27795824Y41701341D01*
X27795827Y41701335D01*
X27959724Y41456047D01*
X27959727Y41456043D01*
X28154241Y41234242D01*
X28376042Y41039728D01*
X28376046Y41039725D01*
X28621334Y40875828D01*
X28621340Y40875825D01*
X28885920Y40745349D01*
X28885923Y40745348D01*
X29165278Y40650519D01*
X29454613Y40592968D01*
X29454614Y40592967D01*
X29454615Y40592967D01*
X29454620Y40592966D01*
X29749000Y40573671D01*
X30043380Y40592966D01*
X30332722Y40650519D01*
X30612077Y40745348D01*
X30876665Y40875828D01*
X31121957Y41039727D01*
X31343758Y41234242D01*
X31538273Y41456043D01*
X31702172Y41701335D01*
X31832652Y41965923D01*
X31927481Y42245278D01*
X31985034Y42534620D01*
X32004329Y42829000D01*
X31985034Y43123380D01*
X31961408Y43242154D01*
X31953807Y43383976D01*
X31986470Y43522199D01*
X32056752Y43645621D01*
X32158959Y43744244D01*
X32284811Y43810076D01*
X32424112Y43837785D01*
X32450821Y43838500D01*
X33846933Y43838500D01*
X34623263Y43838500D01*
X34763848Y43818287D01*
X34893043Y43759286D01*
X35000382Y43666276D01*
X35077169Y43546792D01*
X35117184Y43410515D01*
X35117184Y43268485D01*
X35077169Y43132208D01*
X35000382Y43012724D01*
X34893043Y42919714D01*
X34843966Y42891961D01*
X34621334Y42782171D01*
X34376042Y42618273D01*
X34154241Y42423759D01*
X33959727Y42201958D01*
X33795829Y41956666D01*
X33665348Y41692078D01*
X33665346Y41692075D01*
X33570520Y41412726D01*
X33570518Y41412718D01*
X33512967Y41123388D01*
X33512966Y41123386D01*
X33493671Y40829001D01*
X33512966Y40534615D01*
X33512967Y40534613D01*
X33570518Y40245283D01*
X33570520Y40245275D01*
X33665348Y39965921D01*
X33795824Y39701341D01*
X33795827Y39701335D01*
X33959724Y39456047D01*
X33959727Y39456043D01*
X34154241Y39234242D01*
X34376042Y39039728D01*
X34376046Y39039725D01*
X34621334Y38875828D01*
X34621340Y38875825D01*
X34885920Y38745349D01*
X34885923Y38745348D01*
X35165278Y38650519D01*
X35454613Y38592968D01*
X35454614Y38592967D01*
X35454615Y38592967D01*
X35454620Y38592966D01*
X35749000Y38573671D01*
X36043380Y38592966D01*
X36332722Y38650519D01*
X36612077Y38745348D01*
X36876665Y38875828D01*
X37121957Y39039727D01*
X37343758Y39234242D01*
X37538273Y39456043D01*
X37702172Y39701335D01*
X37832652Y39965923D01*
X37927481Y40245278D01*
X37985034Y40534620D01*
X38004329Y40829000D01*
X37985034Y41123380D01*
X37927481Y41412722D01*
X37832652Y41692077D01*
X37702172Y41956664D01*
X37538273Y42201957D01*
X37343758Y42423758D01*
X37343755Y42423760D01*
X37343754Y42423762D01*
X37121957Y42618273D01*
X37121953Y42618276D01*
X36876665Y42782173D01*
X36876660Y42782175D01*
X36654037Y42891960D01*
X36536890Y42972267D01*
X36447114Y43082326D01*
X36391981Y43213219D01*
X36375959Y43354342D01*
X36400344Y43494263D01*
X36463162Y43621646D01*
X36559324Y43726172D01*
X36681038Y43799371D01*
X36818445Y43835315D01*
X36874738Y43838500D01*
X37362165Y43838500D01*
X37502750Y43818287D01*
X37631945Y43759286D01*
X37661203Y43738971D01*
X37777685Y43651774D01*
X38028839Y43514633D01*
X38174267Y43460391D01*
X38296956Y43414630D01*
X38557138Y43358032D01*
X38576572Y43353804D01*
X38862000Y43333390D01*
X39147428Y43353804D01*
X39297693Y43386492D01*
X39427043Y43414630D01*
X39437379Y43418485D01*
X39695161Y43514633D01*
X39946315Y43651774D01*
X40175395Y43823261D01*
X40377739Y44025605D01*
X40549226Y44254685D01*
X40686367Y44505839D01*
X40786369Y44773954D01*
X40794200Y44809950D01*
X40843965Y45038721D01*
X40847196Y45053572D01*
X40867610Y45339000D01*
X40847196Y45624428D01*
X40819567Y45751437D01*
X40786370Y45904044D01*
X40757535Y45981352D01*
X40686367Y46172161D01*
X40549226Y46423315D01*
X40435366Y46575414D01*
X40377741Y46652393D01*
X40175392Y46854742D01*
X40006452Y46981208D01*
X39946315Y47026226D01*
X39946313Y47026227D01*
X39946312Y47026228D01*
X39695161Y47163367D01*
X39427044Y47263370D01*
X39380917Y47273404D01*
X39247842Y47323038D01*
X39134141Y47408154D01*
X39049026Y47521855D01*
X38999392Y47654930D01*
X38989259Y47796599D01*
X39019450Y47935383D01*
X39087518Y48060040D01*
X39187949Y48160470D01*
X39312606Y48228538D01*
X39451390Y48258729D01*
X39486988Y48260000D01*
X43054500Y48260000D01*
X43195085Y48239787D01*
X43324280Y48180786D01*
X43431619Y48087776D01*
X43508406Y47968292D01*
X43548421Y47832015D01*
X43553500Y47761000D01*
X43553500Y46019581D01*
X43533287Y45878996D01*
X43474286Y45749801D01*
X43407346Y45666735D01*
X42373626Y44633015D01*
X42350438Y44612537D01*
X42338063Y44602905D01*
X42338051Y44602894D01*
X42274849Y44534239D01*
X42252902Y44512291D01*
X42252898Y44512286D01*
X42247438Y44505839D01*
X42232833Y44488596D01*
X42169637Y44419947D01*
X42169627Y44419934D01*
X42161053Y44406812D01*
X42142573Y44382028D01*
X42132443Y44370066D01*
X42132429Y44370047D01*
X42084659Y44289879D01*
X42033625Y44211766D01*
X42033624Y44211765D01*
X42027326Y44197406D01*
X42013173Y44169911D01*
X42005150Y44156447D01*
X42005143Y44156432D01*
X41971219Y44069494D01*
X41933736Y43984041D01*
X41929885Y43968835D01*
X41920449Y43939378D01*
X41914751Y43924777D01*
X41914750Y43924773D01*
X41912688Y43914938D01*
X41895601Y43833449D01*
X41886972Y43799371D01*
X41872691Y43742979D01*
X41872690Y43742972D01*
X41871395Y43727350D01*
X41866936Y43696747D01*
X41863719Y43681403D01*
X41863719Y43681401D01*
X41859862Y43588153D01*
X41857300Y43557232D01*
X41857300Y43526195D01*
X41853443Y43432942D01*
X41853443Y43432940D01*
X41855382Y43417384D01*
X41857300Y43386492D01*
X41857300Y27923468D01*
X41855382Y27892577D01*
X41853443Y27877024D01*
X41853443Y27877021D01*
X41857300Y27783766D01*
X41857300Y27752728D01*
X41859862Y27721810D01*
X41863719Y27628563D01*
X41863719Y27628559D01*
X41866936Y27613219D01*
X41871397Y27582600D01*
X41872691Y27566983D01*
X41876089Y27546623D01*
X41874122Y27546295D01*
X41885700Y27453414D01*
X41885701Y26547181D01*
X41885701Y26547182D01*
X41896103Y26414993D01*
X41896104Y26414989D01*
X41951104Y26196717D01*
X42044191Y25991776D01*
X42172379Y25806748D01*
X42172387Y25806739D01*
X42331538Y25647588D01*
X42331547Y25647580D01*
X42516575Y25519392D01*
X42588935Y25486526D01*
X42721517Y25426304D01*
X42724817Y25425473D01*
X42730141Y25423287D01*
X42742671Y25418902D01*
X42742438Y25418238D01*
X42856202Y25371525D01*
X42967066Y25282747D01*
X43048428Y25166330D01*
X43093696Y25031707D01*
X43101900Y24941596D01*
X43101900Y23548461D01*
X43101899Y23548461D01*
X43110449Y23497226D01*
X43113000Y23476761D01*
X43117291Y23424980D01*
X43130045Y23374612D01*
X43134276Y23354433D01*
X43142828Y23303188D01*
X43142829Y23303186D01*
X43159699Y23254044D01*
X43165586Y23234272D01*
X43178337Y23183919D01*
X43199202Y23136351D01*
X43206700Y23117134D01*
X43223567Y23068002D01*
X43223572Y23067990D01*
X43248304Y23022289D01*
X43257360Y23003765D01*
X43278227Y22956193D01*
X43278228Y22956192D01*
X43306636Y22912709D01*
X43317194Y22894990D01*
X43341922Y22849298D01*
X43341929Y22849287D01*
X43373832Y22808298D01*
X43385818Y22791511D01*
X43414236Y22748015D01*
X43449420Y22709795D01*
X43462754Y22694052D01*
X43494663Y22653055D01*
X43532883Y22617870D01*
X43547467Y22603287D01*
X43582656Y22565062D01*
X43623657Y22533150D01*
X43639395Y22519820D01*
X43677615Y22484636D01*
X43699921Y22470063D01*
X43721098Y22456227D01*
X43737888Y22444240D01*
X43778891Y22412326D01*
X43824592Y22387594D01*
X43842299Y22377043D01*
X43885793Y22348627D01*
X43933365Y22327761D01*
X43951885Y22318707D01*
X43997590Y22293972D01*
X43997594Y22293971D01*
X43997600Y22293968D01*
X44017927Y22286991D01*
X44046749Y22277097D01*
X44065939Y22269609D01*
X44113519Y22248737D01*
X44113523Y22248736D01*
X44163880Y22235984D01*
X44183642Y22230101D01*
X44232786Y22213229D01*
X44268357Y22207294D01*
X44272350Y22206627D01*
X44407690Y22163549D01*
X44525411Y22084086D01*
X44615977Y21974677D01*
X44672050Y21844184D01*
X44689204Y21711281D01*
X44689208Y21711977D01*
X44689209Y21711953D01*
X44701624Y21547862D01*
X44701624Y21547859D01*
X44707966Y21507910D01*
X44715879Y21464297D01*
X44715880Y21464293D01*
X44715881Y21464289D01*
X44715882Y21464285D01*
X44776555Y21270117D01*
X44776557Y21270113D01*
X44776559Y21270108D01*
X44875087Y21092108D01*
X44914935Y21034715D01*
X45020932Y20906237D01*
X45045215Y20885919D01*
X45140061Y20780208D01*
X45201286Y20652052D01*
X45223925Y20511837D01*
X45223999Y20503216D01*
X45223999Y20283500D01*
X45203786Y20142915D01*
X45144785Y20013720D01*
X45051775Y19906381D01*
X44932291Y19829594D01*
X44796014Y19789579D01*
X44724999Y19784500D01*
X43670986Y19784500D01*
X43670964Y19784499D01*
X43551582Y19773887D01*
X43551582Y19773886D01*
X43355953Y19717910D01*
X43355942Y19717905D01*
X43175592Y19623698D01*
X43175589Y19623696D01*
X43017891Y19495111D01*
X43017889Y19495109D01*
X42889304Y19337411D01*
X42889302Y19337408D01*
X42795095Y19157058D01*
X42795091Y19157049D01*
X42739114Y18961418D01*
X42728530Y18842367D01*
X42728500Y18842035D01*
X42728500Y18213015D01*
X42708287Y18072430D01*
X42649286Y17943235D01*
X42556276Y17835896D01*
X42436792Y17759109D01*
X42300515Y17719094D01*
X42158485Y17719094D01*
X42022208Y17759109D01*
X41902724Y17835896D01*
X41819321Y17928842D01*
X41687820Y18118653D01*
X41687812Y18118662D01*
X41528661Y18277813D01*
X41528652Y18277821D01*
X41343624Y18406009D01*
X41159809Y18489500D01*
X41138683Y18499096D01*
X40920412Y18554096D01*
X40824176Y18561670D01*
X40788221Y18564500D01*
X40788217Y18564500D01*
X39461592Y18564500D01*
X38459781Y18564499D01*
X38327593Y18554097D01*
X38327588Y18554096D01*
X38131258Y18504625D01*
X38009333Y18489500D01*
X33415575Y18489500D01*
X33274990Y18509713D01*
X33145795Y18568714D01*
X33116537Y18589029D01*
X33029678Y18654051D01*
X32961315Y18705226D01*
X32961313Y18705227D01*
X32961312Y18705228D01*
X32710161Y18842367D01*
X32442043Y18942371D01*
X32162436Y19003195D01*
X32162430Y19003196D01*
X32162428Y19003196D01*
X31877000Y19023610D01*
X31591572Y19003196D01*
X31591569Y19003196D01*
X31591563Y19003195D01*
X31311956Y18942371D01*
X31043838Y18842367D01*
X30792687Y18705228D01*
X30792682Y18705224D01*
X30563607Y18533742D01*
X30361258Y18331393D01*
X30189776Y18102318D01*
X30189772Y18102313D01*
X30052633Y17851162D01*
X29952629Y17583044D01*
X29891805Y17303437D01*
X29871390Y17018000D01*
X29891805Y16732564D01*
X29952629Y16452957D01*
X30052633Y16184839D01*
X30189774Y15933685D01*
X30258368Y15842054D01*
X30361258Y15704608D01*
X30563607Y15502259D01*
X30583685Y15487229D01*
X30792685Y15330774D01*
X31043839Y15193633D01*
X31234648Y15122465D01*
X31311956Y15093630D01*
X31572138Y15037032D01*
X31591572Y15032804D01*
X31877000Y15012390D01*
X32162428Y15032804D01*
X32282048Y15058826D01*
X32442043Y15093630D01*
X32442046Y15093631D01*
X32710161Y15193633D01*
X32961315Y15330774D01*
X33039056Y15388971D01*
X33163714Y15457038D01*
X33302499Y15487229D01*
X33338096Y15488500D01*
X38009333Y15488500D01*
X38131258Y15473376D01*
X38327588Y15423904D01*
X38459783Y15413500D01*
X39280779Y15413501D01*
X39421363Y15393288D01*
X39550558Y15334287D01*
X39633625Y15267347D01*
X40380067Y14520905D01*
X40380068Y14520904D01*
X40555904Y14345068D01*
X40555910Y14345064D01*
X40555911Y14345063D01*
X40598178Y14314885D01*
X40614456Y14302215D01*
X40654102Y14268637D01*
X40654109Y14268632D01*
X40698736Y14242040D01*
X40715998Y14230763D01*
X40758284Y14200571D01*
X40804964Y14177751D01*
X40823088Y14167944D01*
X40867726Y14141345D01*
X40887865Y14133487D01*
X40916104Y14122468D01*
X40935002Y14114179D01*
X40979943Y14092209D01*
X40981687Y14091356D01*
X41031499Y14076526D01*
X41050982Y14069839D01*
X41099386Y14050951D01*
X41150223Y14040292D01*
X41170203Y14035232D01*
X41220019Y14020401D01*
X41271593Y14013973D01*
X41291932Y14010579D01*
X41342763Y13999920D01*
X41394670Y13997774D01*
X41415216Y13996071D01*
X41466779Y13989643D01*
X41512418Y13991531D01*
X41518684Y13991790D01*
X41539319Y13991790D01*
X41548686Y13991403D01*
X41591221Y13989643D01*
X41642763Y13996069D01*
X41663314Y13997772D01*
X41715237Y13999919D01*
X41766081Y14010581D01*
X41786432Y14013977D01*
X41837981Y14020402D01*
X41887780Y14035229D01*
X41907762Y14040290D01*
X41958614Y14050951D01*
X42007002Y14069833D01*
X42026508Y14076530D01*
X42076313Y14091356D01*
X42122997Y14114180D01*
X42141865Y14122456D01*
X42190274Y14141344D01*
X42234963Y14167974D01*
X42253107Y14177787D01*
X42262819Y14182535D01*
X42263635Y14182932D01*
X42398840Y14226434D01*
X42482518Y14233500D01*
X42890605Y14233500D01*
X43031190Y14213287D01*
X43160385Y14154286D01*
X43165197Y14151153D01*
X43175589Y14144304D01*
X43175593Y14144302D01*
X43355951Y14050091D01*
X43551582Y13994114D01*
X43670963Y13983500D01*
X43670964Y13983501D01*
X43670965Y13983500D01*
X43670966Y13983501D01*
X44137460Y13983501D01*
X44278042Y13963288D01*
X44407237Y13904287D01*
X44514576Y13811277D01*
X44591364Y13691794D01*
X44631379Y13555517D01*
X44636448Y13481302D01*
X44592292Y6592743D01*
X44592306Y6577939D01*
X44592306Y6577932D01*
X44614569Y6375717D01*
X44614571Y6375707D01*
X44625772Y6323410D01*
X44625772Y6323409D01*
X44648375Y6238374D01*
X44650984Y6228562D01*
X44661374Y6204655D01*
X44732072Y6041980D01*
X44732074Y6041976D01*
X44732076Y6041973D01*
X44849068Y5875526D01*
X44894823Y5822722D01*
X45013936Y5706321D01*
X45183032Y5593192D01*
X45371439Y5516417D01*
X45438478Y5496732D01*
X45454672Y5492698D01*
X45519361Y5476583D01*
X45569963Y5471438D01*
X45721768Y5456000D01*
X45721771Y5456000D01*
X53790145Y5456000D01*
X53790149Y5456000D01*
X53809706Y5457049D01*
X53843940Y5458883D01*
X53843937Y5458883D01*
X53861644Y5460788D01*
X53897067Y5464596D01*
X54083951Y5502890D01*
X54271462Y5581828D01*
X54271466Y5581831D01*
X54271468Y5581831D01*
X54332784Y5615312D01*
X54347030Y5623877D01*
X54404219Y5658255D01*
X54445824Y5692181D01*
X54567546Y5765354D01*
X54704959Y5801273D01*
X54846926Y5797023D01*
X54981944Y5752948D01*
X55099076Y5672620D01*
X55188833Y5562546D01*
X55223698Y5492698D01*
X55264751Y5391291D01*
X55377489Y5221944D01*
X55421893Y5167998D01*
X55421893Y5167999D01*
X55421897Y5167994D01*
X55469797Y5118754D01*
X55538027Y5048615D01*
X55538035Y5048608D01*
X55636557Y4979023D01*
X55704210Y4931240D01*
X55890615Y4849723D01*
X55957135Y4828348D01*
X56037475Y4806161D01*
X56239295Y4780462D01*
X57637900Y4745054D01*
X58521702Y4722679D01*
X58521704Y4722680D01*
X58521705Y4722679D01*
X58555506Y4722960D01*
X58587041Y4724283D01*
X58597554Y4724724D01*
X58631168Y4727264D01*
X58793777Y4745052D01*
X58793779Y4745053D01*
X58793780Y4745054D01*
X58793787Y4745054D01*
X58837521Y4752837D01*
X58860282Y4756887D01*
X58860280Y4756886D01*
X58943303Y4777491D01*
X59084617Y4791737D01*
X59224220Y4765593D01*
X59350802Y4701177D01*
X59454110Y4603708D01*
X59525772Y4481082D01*
X59559984Y4343234D01*
X59562500Y4293184D01*
X59562500Y512570D01*
X59560362Y479962D01*
X59554807Y437775D01*
X59516413Y301033D01*
X59441050Y180646D01*
X59334822Y86369D01*
X59206337Y25838D01*
X59125229Y8194D01*
X59098151Y4628D01*
X59083031Y2638D01*
X59050433Y500D01*
X38710434Y500D01*
X38569849Y20713D01*
X38440654Y79714D01*
X38333315Y172724D01*
X38256528Y292208D01*
X38216513Y428485D01*
X38211434Y499500D01*
X38211434Y3489684D01*
X33622271Y3489684D01*
X33615744Y3489684D01*
X33528002Y3424001D01*
X33394927Y3374367D01*
X33288857Y3362963D01*
X25624445Y3362963D01*
X25483860Y3383176D01*
X25354665Y3442177D01*
X25247326Y3535187D01*
X25170539Y3654671D01*
X25152165Y3717244D01*
X25125446Y3743963D01*
X25125445Y3743963D01*
X18890271Y3743963D01*
X18890271Y499500D01*
X18870058Y358915D01*
X18811057Y229720D01*
X18718047Y122381D01*
X18598563Y45594D01*
X18462286Y5579D01*
X18391271Y500D01*
X17623445Y500D01*
X17482860Y20713D01*
X17353665Y79714D01*
X17246326Y172724D01*
X17169539Y292208D01*
X17129524Y428485D01*
X17124445Y499500D01*
X17124445Y3489963D01*
X10889271Y3489963D01*
X10889271Y499500D01*
X10869058Y358915D01*
X10810057Y229720D01*
X10717047Y122381D01*
X10597563Y45594D01*
X10461286Y5579D01*
X10390271Y500D01*
X6726238Y500D01*
X6585653Y20713D01*
X6456458Y79714D01*
X6349119Y172724D01*
X6272332Y292208D01*
X6232317Y428485D01*
X6227238Y499500D01*
X6227238Y8767898D01*
X13473500Y8767898D01*
X13488784Y8524945D01*
X13488786Y8524934D01*
X13549627Y8205995D01*
X13549629Y8205987D01*
X13649968Y7897176D01*
X13719094Y7750277D01*
X13788217Y7603382D01*
X13788219Y7603379D01*
X13788220Y7603377D01*
X13962204Y7329221D01*
X14169177Y7079034D01*
X14405875Y6856759D01*
X14668565Y6665904D01*
X14668567Y6665903D01*
X14668570Y6665901D01*
X14953096Y6509481D01*
X14953100Y6509480D01*
X14953104Y6509477D01*
X15255005Y6389946D01*
X15569506Y6309196D01*
X15622452Y6302508D01*
X15891636Y6268501D01*
X15891646Y6268501D01*
X15891649Y6268500D01*
X15891652Y6268500D01*
X16216348Y6268500D01*
X16216351Y6268500D01*
X16216354Y6268501D01*
X16216363Y6268501D01*
X16402076Y6291963D01*
X16538494Y6309196D01*
X16852995Y6389946D01*
X17154896Y6509477D01*
X17326106Y6603601D01*
X17459037Y6653614D01*
X17600676Y6664151D01*
X17739546Y6634357D01*
X17864397Y6566646D01*
X17875974Y6557517D01*
X18064375Y6426992D01*
X18132688Y6395964D01*
X18269317Y6333904D01*
X18487588Y6278904D01*
X18619783Y6268500D01*
X21408216Y6268501D01*
X21408219Y6268501D01*
X21452281Y6271969D01*
X21540412Y6278904D01*
X21758683Y6333904D01*
X21963626Y6426993D01*
X22148654Y6555181D01*
X22307819Y6714346D01*
X22436007Y6899374D01*
X22529096Y7104317D01*
X22584096Y7322588D01*
X22594500Y7454783D01*
X22594499Y10833222D01*
X28638500Y10833222D01*
X28638501Y7004781D01*
X28648903Y6872594D01*
X28648904Y6872589D01*
X28703904Y6654317D01*
X28796991Y6449376D01*
X28925179Y6264348D01*
X28925187Y6264339D01*
X29084338Y6105188D01*
X29084347Y6105180D01*
X29269375Y5976992D01*
X29337688Y5945964D01*
X29474317Y5883904D01*
X29692588Y5828904D01*
X29824783Y5818500D01*
X32613216Y5818501D01*
X32613219Y5818501D01*
X32666854Y5822722D01*
X32745412Y5828904D01*
X32963683Y5883904D01*
X33168626Y5976993D01*
X33353654Y6105181D01*
X33512819Y6264346D01*
X33641007Y6449374D01*
X33734096Y6654317D01*
X33789096Y6872588D01*
X33799500Y7004783D01*
X33799499Y10833216D01*
X33789096Y10965412D01*
X33734096Y11183683D01*
X33687551Y11286155D01*
X33641008Y11388625D01*
X33512820Y11573653D01*
X33512812Y11573662D01*
X33353661Y11732813D01*
X33353652Y11732821D01*
X33168624Y11861009D01*
X33031997Y11923067D01*
X32963683Y11954096D01*
X32745412Y12009096D01*
X32649176Y12016670D01*
X32613221Y12019500D01*
X32613217Y12019500D01*
X31026172Y12019500D01*
X29824781Y12019499D01*
X29692593Y12009097D01*
X29692588Y12009096D01*
X29474316Y11954096D01*
X29269375Y11861009D01*
X29084347Y11732821D01*
X29084338Y11732813D01*
X28925187Y11573662D01*
X28925179Y11573653D01*
X28796991Y11388625D01*
X28709110Y11195146D01*
X28703904Y11183683D01*
X28648904Y10965412D01*
X28648904Y10965407D01*
X28638500Y10833222D01*
X22594499Y10833222D01*
X22594499Y11283216D01*
X22584096Y11415412D01*
X22529096Y11633683D01*
X22482551Y11736155D01*
X22436008Y11838625D01*
X22307820Y12023653D01*
X22307812Y12023662D01*
X22148661Y12182813D01*
X22148652Y12182821D01*
X21963624Y12311009D01*
X21826997Y12373067D01*
X21758683Y12404096D01*
X21540412Y12459096D01*
X21444176Y12466670D01*
X21408221Y12469500D01*
X21408217Y12469500D01*
X19810154Y12469500D01*
X18619781Y12469499D01*
X18487593Y12459097D01*
X18487588Y12459096D01*
X18269316Y12404096D01*
X18064375Y12311009D01*
X17860925Y12170057D01*
X17859513Y12172095D01*
X17765401Y12114032D01*
X17628411Y12076533D01*
X17486405Y12079147D01*
X17350888Y12121663D01*
X17326115Y12134395D01*
X17237071Y12183347D01*
X17154895Y12228524D01*
X17154892Y12228525D01*
X16852994Y12348055D01*
X16538491Y12428805D01*
X16538492Y12428805D01*
X16216363Y12469500D01*
X16216351Y12469500D01*
X15891649Y12469500D01*
X15891636Y12469500D01*
X15569508Y12428805D01*
X15255005Y12348055D01*
X14953107Y12228525D01*
X14953096Y12228520D01*
X14668570Y12072100D01*
X14668558Y12072092D01*
X14405876Y11881243D01*
X14169175Y11658964D01*
X13962207Y11408783D01*
X13962206Y11408783D01*
X13788217Y11134619D01*
X13668833Y10880915D01*
X13649968Y10840824D01*
X13649965Y10840817D01*
X13649965Y10840815D01*
X13549628Y10532011D01*
X13549627Y10532006D01*
X13488786Y10213067D01*
X13488784Y10213056D01*
X13473500Y9970102D01*
X13473500Y8767898D01*
X6227238Y8767898D01*
X6227238Y26203501D01*
X6247451Y26344086D01*
X6306452Y26473281D01*
X6399462Y26580620D01*
X6518946Y26657407D01*
X6565835Y26676017D01*
X6770077Y26745348D01*
X7034665Y26875828D01*
X7279957Y27039727D01*
X7501758Y27234242D01*
X7696273Y27456043D01*
X7860172Y27701335D01*
X7882293Y27746191D01*
X7990651Y27965921D01*
X8016258Y28041356D01*
X8085481Y28245278D01*
X8143034Y28534620D01*
X8162329Y28829000D01*
X8162329Y28829001D01*
X15651671Y28829001D01*
X15670966Y28534615D01*
X15670967Y28534613D01*
X15728518Y28245283D01*
X15728520Y28245275D01*
X15823348Y27965921D01*
X15953824Y27701341D01*
X15953827Y27701335D01*
X16117724Y27456047D01*
X16117727Y27456043D01*
X16312241Y27234242D01*
X16534042Y27039728D01*
X16534046Y27039725D01*
X16779334Y26875828D01*
X16779340Y26875825D01*
X17043920Y26745349D01*
X17043923Y26745348D01*
X17323278Y26650519D01*
X17612613Y26592968D01*
X17612614Y26592967D01*
X17612615Y26592967D01*
X17612620Y26592966D01*
X17907000Y26573671D01*
X18201380Y26592966D01*
X18490722Y26650519D01*
X18770077Y26745348D01*
X19034665Y26875828D01*
X19279957Y27039727D01*
X19501758Y27234242D01*
X19696273Y27456043D01*
X19860172Y27701335D01*
X19882293Y27746191D01*
X19990651Y27965921D01*
X20016258Y28041356D01*
X20085481Y28245278D01*
X20143034Y28534620D01*
X20162329Y28829000D01*
X21493671Y28829000D01*
X21512966Y28534615D01*
X21512967Y28534613D01*
X21570518Y28245283D01*
X21570520Y28245275D01*
X21665348Y27965921D01*
X21795824Y27701341D01*
X21795827Y27701335D01*
X21959724Y27456047D01*
X21959727Y27456043D01*
X22154241Y27234242D01*
X22376042Y27039728D01*
X22376046Y27039725D01*
X22621334Y26875828D01*
X22621340Y26875825D01*
X22885920Y26745349D01*
X22885923Y26745348D01*
X23165278Y26650519D01*
X23454613Y26592968D01*
X23454614Y26592967D01*
X23454615Y26592967D01*
X23454620Y26592966D01*
X23749000Y26573671D01*
X24043380Y26592966D01*
X24332722Y26650519D01*
X24612077Y26745348D01*
X24876665Y26875828D01*
X25121957Y27039727D01*
X25343758Y27234242D01*
X25538273Y27456043D01*
X25702172Y27701335D01*
X25724293Y27746191D01*
X25832651Y27965921D01*
X25858258Y28041356D01*
X25927481Y28245278D01*
X25985034Y28534620D01*
X26004329Y28829000D01*
X26004329Y28829001D01*
X33493671Y28829001D01*
X33512966Y28534615D01*
X33512967Y28534613D01*
X33570518Y28245283D01*
X33570520Y28245275D01*
X33665348Y27965921D01*
X33795824Y27701341D01*
X33795827Y27701335D01*
X33959724Y27456047D01*
X33959727Y27456043D01*
X34154241Y27234242D01*
X34376042Y27039728D01*
X34376046Y27039725D01*
X34621334Y26875828D01*
X34621340Y26875825D01*
X34885920Y26745349D01*
X34885923Y26745348D01*
X35165278Y26650519D01*
X35454613Y26592968D01*
X35454614Y26592967D01*
X35454615Y26592967D01*
X35454620Y26592966D01*
X35749000Y26573671D01*
X36043380Y26592966D01*
X36332722Y26650519D01*
X36612077Y26745348D01*
X36876665Y26875828D01*
X37121957Y27039727D01*
X37343758Y27234242D01*
X37538273Y27456043D01*
X37702172Y27701335D01*
X37724293Y27746191D01*
X37832651Y27965921D01*
X37858258Y28041356D01*
X37927481Y28245278D01*
X37985034Y28534620D01*
X38004329Y28829000D01*
X37985034Y29123380D01*
X37927481Y29412722D01*
X37832652Y29692077D01*
X37702172Y29956664D01*
X37538273Y30201957D01*
X37343758Y30423758D01*
X37343755Y30423760D01*
X37343754Y30423762D01*
X37121957Y30618273D01*
X37121953Y30618276D01*
X36876665Y30782173D01*
X36876659Y30782176D01*
X36612079Y30912652D01*
X36332725Y31007480D01*
X36332724Y31007481D01*
X36332722Y31007481D01*
X36301643Y31013663D01*
X36043387Y31065033D01*
X36043385Y31065034D01*
X35749000Y31084329D01*
X35454614Y31065034D01*
X35454612Y31065033D01*
X35165282Y31007482D01*
X35165274Y31007480D01*
X34885925Y30912654D01*
X34885922Y30912652D01*
X34621334Y30782171D01*
X34376042Y30618273D01*
X34154241Y30423759D01*
X33959727Y30201958D01*
X33795829Y29956666D01*
X33665348Y29692078D01*
X33665346Y29692075D01*
X33570520Y29412726D01*
X33570518Y29412718D01*
X33512967Y29123388D01*
X33512966Y29123386D01*
X33493671Y28829001D01*
X26004329Y28829001D01*
X25985034Y29123380D01*
X25927481Y29412722D01*
X25832652Y29692077D01*
X25702172Y29956664D01*
X25538273Y30201957D01*
X25343758Y30423758D01*
X25343755Y30423760D01*
X25343754Y30423762D01*
X25121957Y30618273D01*
X25121953Y30618276D01*
X24876665Y30782173D01*
X24876659Y30782176D01*
X24612079Y30912652D01*
X24332725Y31007480D01*
X24332724Y31007481D01*
X24332722Y31007481D01*
X24301643Y31013663D01*
X24043387Y31065033D01*
X24043385Y31065034D01*
X23749000Y31084329D01*
X23454614Y31065034D01*
X23454612Y31065033D01*
X23165282Y31007482D01*
X23165274Y31007480D01*
X22885925Y30912654D01*
X22885922Y30912652D01*
X22621334Y30782171D01*
X22376042Y30618273D01*
X22154241Y30423759D01*
X21959727Y30201958D01*
X21795829Y29956666D01*
X21665348Y29692078D01*
X21665346Y29692075D01*
X21570520Y29412726D01*
X21570518Y29412718D01*
X21512967Y29123388D01*
X21512966Y29123386D01*
X21493671Y28829000D01*
X20162329Y28829000D01*
X20143034Y29123380D01*
X20085481Y29412722D01*
X19990652Y29692077D01*
X19860172Y29956664D01*
X19696273Y30201957D01*
X19501758Y30423758D01*
X19501755Y30423760D01*
X19501754Y30423762D01*
X19279957Y30618273D01*
X19279953Y30618276D01*
X19034665Y30782173D01*
X19034659Y30782176D01*
X18770079Y30912652D01*
X18490725Y31007480D01*
X18490724Y31007481D01*
X18490722Y31007481D01*
X18459643Y31013663D01*
X18201387Y31065033D01*
X18201385Y31065034D01*
X17907000Y31084329D01*
X17612614Y31065034D01*
X17612612Y31065033D01*
X17323282Y31007482D01*
X17323274Y31007480D01*
X17043925Y30912654D01*
X17043922Y30912652D01*
X16779334Y30782171D01*
X16534042Y30618273D01*
X16312241Y30423759D01*
X16117727Y30201958D01*
X15953829Y29956666D01*
X15823348Y29692078D01*
X15823346Y29692075D01*
X15728520Y29412726D01*
X15728518Y29412718D01*
X15670967Y29123388D01*
X15670966Y29123386D01*
X15651671Y28829001D01*
X8162329Y28829001D01*
X8143034Y29123380D01*
X8085481Y29412722D01*
X7990652Y29692077D01*
X7860172Y29956664D01*
X7696273Y30201957D01*
X7501758Y30423758D01*
X7501755Y30423760D01*
X7501754Y30423762D01*
X7279957Y30618273D01*
X7279953Y30618276D01*
X7034665Y30782173D01*
X7034659Y30782176D01*
X6770079Y30912652D01*
X6490725Y31007480D01*
X6490724Y31007481D01*
X6490722Y31007481D01*
X6459643Y31013663D01*
X6201387Y31065033D01*
X6201385Y31065034D01*
X5907000Y31084329D01*
X5612614Y31065034D01*
X5612612Y31065033D01*
X5323282Y31007482D01*
X5323274Y31007480D01*
X5043925Y30912654D01*
X5043922Y30912652D01*
X4779334Y30782171D01*
X4534042Y30618273D01*
X4312241Y30423759D01*
X4117727Y30201958D01*
X3953829Y29956666D01*
X3823348Y29692078D01*
X3823346Y29692075D01*
X3728520Y29412726D01*
X3728518Y29412718D01*
X3670967Y29123388D01*
X3670966Y29123386D01*
X3651671Y28829000D01*
X3670966Y28534615D01*
X3670967Y28534613D01*
X3728518Y28245283D01*
X3728520Y28245275D01*
X3823348Y27965921D01*
X3953824Y27701341D01*
X3953827Y27701335D01*
X4117722Y27456049D01*
X4117724Y27456047D01*
X4117727Y27456043D01*
X4312242Y27234242D01*
X4319337Y27226152D01*
X4396834Y27107127D01*
X4437659Y26971091D01*
X4438504Y26829063D01*
X4399301Y26692550D01*
X4323226Y26572612D01*
X4216442Y26478965D01*
X4087600Y26419196D01*
X3947138Y26398147D01*
X3944169Y26398138D01*
X499500Y26398138D01*
X358915Y26418351D01*
X229720Y26477352D01*
X122381Y26570362D01*
X45594Y26689846D01*
X5579Y26826123D01*
X500Y26897138D01*
X500Y40829000D01*
X3651671Y40829000D01*
X3670966Y40534615D01*
X3670967Y40534613D01*
X3728518Y40245283D01*
X3728520Y40245275D01*
X3823348Y39965921D01*
X3953824Y39701341D01*
X3953827Y39701335D01*
X4117724Y39456047D01*
X4117727Y39456043D01*
X4312241Y39234242D01*
X4534042Y39039728D01*
X4534046Y39039725D01*
X4779334Y38875828D01*
X4779340Y38875825D01*
X5043920Y38745349D01*
X5043923Y38745348D01*
X5323278Y38650519D01*
X5612613Y38592968D01*
X5612614Y38592967D01*
X5612615Y38592967D01*
X5612620Y38592966D01*
X5907000Y38573671D01*
X6201380Y38592966D01*
X6490722Y38650519D01*
X6770077Y38745348D01*
X7034665Y38875828D01*
X7279957Y39039727D01*
X7501758Y39234242D01*
X7696273Y39456043D01*
X7860172Y39701335D01*
X7990652Y39965923D01*
X8085481Y40245278D01*
X8143034Y40534620D01*
X8162329Y40829000D01*
X8143034Y41123380D01*
X8085481Y41412722D01*
X7990652Y41692077D01*
X7860172Y41956664D01*
X7696273Y42201957D01*
X7501758Y42423758D01*
X7501755Y42423760D01*
X7501754Y42423762D01*
X7279957Y42618273D01*
X7279953Y42618276D01*
X7034665Y42782173D01*
X7034659Y42782176D01*
X6770079Y42912652D01*
X6490725Y43007480D01*
X6490724Y43007481D01*
X6490722Y43007481D01*
X6490471Y43007531D01*
X6201387Y43065033D01*
X6201385Y43065034D01*
X5937559Y43082326D01*
X5907000Y43084329D01*
X5906999Y43084329D01*
X5612614Y43065034D01*
X5612612Y43065033D01*
X5323282Y43007482D01*
X5323274Y43007480D01*
X5043925Y42912654D01*
X5043922Y42912652D01*
X4779334Y42782171D01*
X4534042Y42618273D01*
X4312241Y42423759D01*
X4117727Y42201958D01*
X3953829Y41956666D01*
X3823348Y41692078D01*
X3823346Y41692075D01*
X3728520Y41412726D01*
X3728518Y41412718D01*
X3670967Y41123388D01*
X3670966Y41123386D01*
X3651671Y40829000D01*
X500Y40829000D01*
X500Y43823261D01*
X500Y60750849D01*
X20712Y60891427D01*
X79713Y61020622D01*
X172723Y61127961D01*
X292207Y61204748D01*
X428484Y61244763D01*
X570514Y61244763D01*
X706791Y61204748D01*
G37*
G04 #@! TD.AperFunction*
G04 #@! TA.AperFunction,Conductor*
G36*
X59204085Y48239787D02*
G01*
X59333280Y48180786D01*
X59440619Y48087776D01*
X59517406Y47968292D01*
X59557421Y47832015D01*
X59562500Y47761000D01*
X59562500Y31899301D01*
X59542287Y31758716D01*
X59483286Y31629521D01*
X59390276Y31522182D01*
X59270792Y31445395D01*
X59134515Y31405380D01*
X58992485Y31405380D01*
X58856208Y31445395D01*
X58848378Y31449053D01*
X58814956Y31465021D01*
X58814952Y31465023D01*
X58663339Y31525658D01*
X58663334Y31525660D01*
X58600904Y31546014D01*
X58600898Y31546016D01*
X58600902Y31546015D01*
X58554440Y31557873D01*
X58506001Y31570235D01*
X58505997Y31570236D01*
X58487428Y31573704D01*
X58441456Y31582288D01*
X58283497Y31601226D01*
X58250800Y31604068D01*
X58223563Y31605542D01*
X58209946Y31606278D01*
X58177128Y31606981D01*
X58177127Y31606981D01*
X53004309Y31548860D01*
X47831497Y31490738D01*
X47812256Y31489784D01*
X47793016Y31488830D01*
X47735716Y31483783D01*
X47697454Y31478928D01*
X47556051Y31455446D01*
X47406467Y31418643D01*
X47370500Y31406807D01*
X47228348Y31347615D01*
X47174366Y31320113D01*
X47126415Y31295682D01*
X47126410Y31295680D01*
X47126410Y31295679D01*
X46994952Y31215468D01*
X46964231Y31193326D01*
X46846530Y31093948D01*
X46765021Y31013658D01*
X46699530Y30938424D01*
X46677098Y30912652D01*
X46663888Y30897477D01*
X46641288Y30867097D01*
X46559101Y30736859D01*
X46534641Y30690587D01*
X46505635Y30635718D01*
X46505636Y30635718D01*
X46505634Y30635715D01*
X46444298Y30494447D01*
X46431921Y30458659D01*
X46392876Y30309671D01*
X46367268Y30168656D01*
X46362743Y30136838D01*
X46361840Y30130491D01*
X46355925Y30073260D01*
X46353435Y30034792D01*
X46304660Y28181360D01*
X46280756Y28041356D01*
X46218376Y27913757D01*
X46122575Y27808902D01*
X46001113Y27735285D01*
X45863830Y27698869D01*
X45721849Y27702605D01*
X45586672Y27746191D01*
X45469250Y27826095D01*
X45452986Y27841641D01*
X45182852Y28111776D01*
X45097737Y28225478D01*
X45048103Y28358553D01*
X45036699Y28464622D01*
X45036699Y28875619D01*
X45026296Y29007807D01*
X45026296Y29007812D01*
X44971296Y29226083D01*
X44902969Y29376509D01*
X44863235Y29512867D01*
X44858300Y29582871D01*
X44858300Y39185901D01*
X44878513Y39326486D01*
X44937514Y39455681D01*
X45030524Y39563020D01*
X45150008Y39639807D01*
X45286285Y39679822D01*
X45357300Y39684901D01*
X45871632Y39684901D01*
X45871636Y39684901D01*
X45991018Y39695514D01*
X46186649Y39751491D01*
X46352566Y39838159D01*
X46486531Y39885333D01*
X46628362Y39892853D01*
X46766566Y39860111D01*
X46814630Y39838161D01*
X46873047Y39807647D01*
X46980542Y39751495D01*
X46980546Y39751494D01*
X46980551Y39751491D01*
X47176182Y39695514D01*
X47295563Y39684900D01*
X47295564Y39684901D01*
X47295565Y39684900D01*
X47613802Y39684901D01*
X48411636Y39684901D01*
X48531018Y39695514D01*
X48726649Y39751491D01*
X48892566Y39838159D01*
X49026531Y39885333D01*
X49168362Y39892853D01*
X49306566Y39860111D01*
X49354630Y39838161D01*
X49413047Y39807647D01*
X49520542Y39751495D01*
X49520546Y39751494D01*
X49520551Y39751491D01*
X49716182Y39695514D01*
X49835563Y39684900D01*
X49835564Y39684901D01*
X49835565Y39684900D01*
X50153322Y39684901D01*
X50951636Y39684901D01*
X51071018Y39695514D01*
X51266649Y39751491D01*
X51447007Y39845702D01*
X51594444Y39965921D01*
X51604708Y39974290D01*
X51604710Y39974292D01*
X51663601Y40046516D01*
X51733298Y40131993D01*
X51827509Y40312351D01*
X51883486Y40507982D01*
X51894100Y40627363D01*
X51894100Y41873333D01*
X51894100Y42912589D01*
X51914313Y43053173D01*
X51973314Y43182368D01*
X52066324Y43289707D01*
X52185808Y43366494D01*
X52322085Y43406509D01*
X52464115Y43406509D01*
X52600392Y43366494D01*
X52708437Y43299322D01*
X52779593Y43241302D01*
X52959951Y43147091D01*
X53155582Y43091114D01*
X53274963Y43080500D01*
X53274964Y43080501D01*
X53274965Y43080500D01*
X53593962Y43080501D01*
X54391036Y43080501D01*
X54510418Y43091114D01*
X54706049Y43147091D01*
X54886407Y43241302D01*
X55044109Y43369891D01*
X55172698Y43527593D01*
X55266909Y43707951D01*
X55322886Y43903582D01*
X55333500Y44022963D01*
X55333499Y45639036D01*
X55322886Y45758418D01*
X55266909Y45954049D01*
X55172698Y46134407D01*
X55141913Y46172162D01*
X55044110Y46292109D01*
X55044108Y46292111D01*
X54886410Y46420696D01*
X54886408Y46420697D01*
X54886407Y46420698D01*
X54826800Y46451834D01*
X54727463Y46503724D01*
X54612213Y46586731D01*
X54525018Y46698845D01*
X54472940Y46830983D01*
X54459500Y46946017D01*
X54459500Y47761000D01*
X54479713Y47901585D01*
X54538714Y48030780D01*
X54631724Y48138119D01*
X54751208Y48214906D01*
X54887485Y48254921D01*
X54958500Y48260000D01*
X59063500Y48260000D01*
X59204085Y48239787D01*
G37*
G04 #@! TD.AperFunction*
G04 #@! TA.AperFunction,Conductor*
G36*
X15401436Y53978287D02*
G01*
X15530631Y53919286D01*
X15637970Y53826276D01*
X15714757Y53706792D01*
X15754772Y53570515D01*
X15754772Y53428485D01*
X15744726Y53377578D01*
X15708904Y53235412D01*
X15708904Y53235408D01*
X15698500Y53103221D01*
X15698501Y52274781D01*
X15698501Y52274782D01*
X15708903Y52142593D01*
X15708903Y52142590D01*
X15708904Y52142588D01*
X15763903Y51924319D01*
X15763905Y51924315D01*
X15777056Y51895361D01*
X15816791Y51759003D01*
X15816500Y51616973D01*
X15777056Y51482639D01*
X15763905Y51453687D01*
X15763903Y51453683D01*
X15763904Y51453683D01*
X15708904Y51235412D01*
X15701536Y51141801D01*
X15698500Y51103221D01*
X15698501Y50274781D01*
X15698501Y50274782D01*
X15708903Y50142593D01*
X15708904Y50142585D01*
X15713373Y50124853D01*
X15728500Y50002920D01*
X15728500Y48668703D01*
X15708287Y48528118D01*
X15649286Y48398923D01*
X15556276Y48291584D01*
X15436792Y48214797D01*
X15431064Y48212224D01*
X15416762Y48205910D01*
X15416761Y48205909D01*
X15240861Y48085414D01*
X15240856Y48085410D01*
X15090090Y47934644D01*
X15090086Y47934639D01*
X14969592Y47758740D01*
X14883468Y47563686D01*
X14883467Y47563682D01*
X14864675Y47483787D01*
X14834651Y47356130D01*
X14831028Y47303948D01*
X14801132Y47165104D01*
X14733327Y47040304D01*
X14633108Y46939662D01*
X14508595Y46871331D01*
X14369875Y46840848D01*
X14333227Y46839500D01*
X13476873Y46839500D01*
X13336288Y46859713D01*
X13207093Y46918714D01*
X13099754Y47011724D01*
X13022967Y47131208D01*
X12982952Y47267485D01*
X12979411Y47299346D01*
X12979049Y47303947D01*
X12969096Y47430411D01*
X12914096Y47648683D01*
X12864106Y47758740D01*
X12821008Y47853625D01*
X12692820Y48038653D01*
X12692812Y48038662D01*
X12533661Y48197813D01*
X12533652Y48197821D01*
X12348624Y48326009D01*
X12143683Y48419096D01*
X11925415Y48474095D01*
X11925411Y48474096D01*
X11793220Y48484500D01*
X11793216Y48484500D01*
X10739784Y48484500D01*
X10739780Y48484500D01*
X10660926Y48478294D01*
X10607589Y48474096D01*
X10607587Y48474096D01*
X10607579Y48474095D01*
X10589316Y48471097D01*
X10447314Y48468274D01*
X10310269Y48505573D01*
X10189283Y48579971D01*
X10094159Y48685440D01*
X10032601Y48813438D01*
X10009599Y48953593D01*
X10009500Y48963509D01*
X10009500Y51209166D01*
X10029713Y51349751D01*
X10088714Y51478946D01*
X10109017Y51508188D01*
X10196226Y51624685D01*
X10333367Y51875839D01*
X10433369Y52143954D01*
X10494196Y52423572D01*
X10509500Y52637552D01*
X10509500Y53280448D01*
X10496379Y53463905D01*
X10506512Y53605571D01*
X10556147Y53738646D01*
X10641262Y53852347D01*
X10754964Y53937462D01*
X10888039Y53987096D01*
X10994108Y53998500D01*
X15260851Y53998500D01*
X15401436Y53978287D01*
G37*
G04 #@! TD.AperFunction*
G04 #@! TA.AperFunction,Conductor*
G36*
X33181436Y53978287D02*
G01*
X33310631Y53919286D01*
X33417970Y53826276D01*
X33494757Y53706792D01*
X33534772Y53570515D01*
X33534772Y53428485D01*
X33524726Y53377578D01*
X33488904Y53235412D01*
X33488904Y53235408D01*
X33478500Y53103221D01*
X33478501Y52274781D01*
X33478501Y52274782D01*
X33488903Y52142593D01*
X33488903Y52142590D01*
X33488904Y52142588D01*
X33543903Y51924319D01*
X33543905Y51924315D01*
X33557056Y51895361D01*
X33596791Y51759003D01*
X33596500Y51616973D01*
X33557056Y51482639D01*
X33543905Y51453687D01*
X33543903Y51453683D01*
X33543904Y51453683D01*
X33488904Y51235412D01*
X33481536Y51141801D01*
X33478500Y51103221D01*
X33478500Y51044168D01*
X33458287Y50903583D01*
X33399286Y50774388D01*
X33388258Y50757955D01*
X33369967Y50731834D01*
X33369964Y50731829D01*
X33349557Y50688066D01*
X33339506Y50668758D01*
X33315356Y50626928D01*
X33315350Y50626915D01*
X33298835Y50581540D01*
X33290504Y50561426D01*
X33270097Y50517665D01*
X33270095Y50517659D01*
X33257597Y50471016D01*
X33251052Y50450258D01*
X33234536Y50404880D01*
X33234532Y50404864D01*
X33226146Y50357308D01*
X33221435Y50336060D01*
X33208937Y50289415D01*
X33204728Y50241302D01*
X33201886Y50219717D01*
X33193500Y50172159D01*
X33193500Y48698703D01*
X33173287Y48558118D01*
X33114286Y48428923D01*
X33021276Y48321584D01*
X32901792Y48244797D01*
X32896064Y48242224D01*
X32881762Y48235910D01*
X32881761Y48235909D01*
X32705861Y48115414D01*
X32705856Y48115410D01*
X32555090Y47964644D01*
X32555086Y47964639D01*
X32434592Y47788740D01*
X32348468Y47593686D01*
X32348467Y47593682D01*
X32299649Y47386123D01*
X32293946Y47303947D01*
X32264047Y47165100D01*
X32196241Y47040300D01*
X32096022Y46939659D01*
X31971508Y46871329D01*
X31832787Y46840847D01*
X31796144Y46839500D01*
X31256873Y46839500D01*
X31116288Y46859713D01*
X30987093Y46918714D01*
X30879754Y47011724D01*
X30802967Y47131208D01*
X30762952Y47267485D01*
X30759411Y47299346D01*
X30759049Y47303947D01*
X30749096Y47430411D01*
X30694096Y47648683D01*
X30644106Y47758740D01*
X30601008Y47853625D01*
X30472820Y48038653D01*
X30472812Y48038662D01*
X30313661Y48197813D01*
X30313652Y48197821D01*
X30128624Y48326009D01*
X29923683Y48419096D01*
X29705415Y48474095D01*
X29705411Y48474096D01*
X29573220Y48484500D01*
X29573216Y48484500D01*
X28519784Y48484500D01*
X28519780Y48484500D01*
X28387574Y48474095D01*
X28369313Y48471097D01*
X28227311Y48468275D01*
X28090266Y48505574D01*
X27969281Y48579972D01*
X27874156Y48685442D01*
X27812600Y48813440D01*
X27789597Y48953595D01*
X27789499Y48963509D01*
X27789499Y49719376D01*
X27789499Y51209173D01*
X27809712Y51349751D01*
X27868713Y51478946D01*
X27888998Y51508163D01*
X27976226Y51624685D01*
X28113367Y51875839D01*
X28213369Y52143954D01*
X28274196Y52423572D01*
X28289500Y52637552D01*
X28289500Y53280448D01*
X28276379Y53463905D01*
X28286512Y53605571D01*
X28336147Y53738646D01*
X28421262Y53852347D01*
X28534964Y53937462D01*
X28668039Y53987096D01*
X28774108Y53998500D01*
X33040851Y53998500D01*
X33181436Y53978287D01*
G37*
G04 #@! TD.AperFunction*
G04 #@! TA.AperFunction,Conductor*
G36*
X21287085Y76560287D02*
G01*
X21416280Y76501286D01*
X21523619Y76408276D01*
X21600406Y76288792D01*
X21640421Y76152515D01*
X21645500Y76081500D01*
X21645500Y73808067D01*
X21645499Y67948821D01*
X21645500Y67948809D01*
X21645500Y66751668D01*
X21643582Y66720777D01*
X21641643Y66705224D01*
X21641643Y66705221D01*
X21645500Y66611966D01*
X21645500Y66580919D01*
X21645501Y66552967D01*
X21645501Y66552966D01*
X21649538Y66507543D01*
X21650304Y66495768D01*
X21651917Y66456781D01*
X21652147Y66454938D01*
X21656692Y66430465D01*
X21660035Y66405508D01*
X21660890Y66395187D01*
X21660891Y66395180D01*
X21660892Y66395179D01*
X21683801Y66304712D01*
X21702951Y66213386D01*
X21708648Y66198784D01*
X21718084Y66169329D01*
X21721933Y66154128D01*
X21759420Y66068665D01*
X21793341Y65981731D01*
X21793345Y65981724D01*
X21801371Y65968254D01*
X21815530Y65940748D01*
X21821824Y65926399D01*
X21821826Y65926395D01*
X21872861Y65848278D01*
X21920628Y65768114D01*
X21920637Y65768102D01*
X21930768Y65756140D01*
X21949265Y65731333D01*
X21957836Y65718215D01*
X22021034Y65649564D01*
X22041100Y65625872D01*
X22063050Y65603922D01*
X22126252Y65535265D01*
X22126259Y65535259D01*
X22138629Y65525631D01*
X22161820Y65505152D01*
X22592138Y65074834D01*
X22979901Y64687071D01*
X23065017Y64573370D01*
X23114651Y64440295D01*
X23124784Y64298627D01*
X23094593Y64159842D01*
X23026525Y64035185D01*
X22926095Y63934755D01*
X22866203Y63896265D01*
X22664693Y63786231D01*
X22664682Y63786224D01*
X22435610Y63614744D01*
X22316518Y63495652D01*
X22202817Y63410537D01*
X22069741Y63360903D01*
X21963673Y63349500D01*
X21574383Y63349500D01*
X21452455Y63364625D01*
X21438686Y63368095D01*
X21438683Y63368096D01*
X21315427Y63399154D01*
X21220414Y63423096D01*
X21088221Y63433500D01*
X21088217Y63433500D01*
X20500622Y63433500D01*
X20059781Y63433499D01*
X19927593Y63423097D01*
X19927588Y63423096D01*
X19709316Y63368096D01*
X19504375Y63275009D01*
X19319347Y63146821D01*
X19319338Y63146813D01*
X19160187Y62987662D01*
X19160179Y62987653D01*
X19031991Y62802625D01*
X18951567Y62625561D01*
X18938904Y62597683D01*
X18883904Y62379412D01*
X18876536Y62285801D01*
X18873500Y62247221D01*
X18873501Y61468781D01*
X18873501Y61468782D01*
X18883903Y61336593D01*
X18883903Y61336590D01*
X18883904Y61336588D01*
X18918188Y61200529D01*
X18938904Y61118317D01*
X19031991Y60913376D01*
X19160179Y60728348D01*
X19160187Y60728339D01*
X19319338Y60569188D01*
X19319347Y60569180D01*
X19504375Y60440992D01*
X19572688Y60409964D01*
X19709317Y60347904D01*
X19927588Y60292904D01*
X20059783Y60282500D01*
X21088216Y60282501D01*
X21088219Y60282501D01*
X21132281Y60285969D01*
X21220412Y60292904D01*
X21381024Y60333376D01*
X21502950Y60348500D01*
X21963673Y60348500D01*
X22104258Y60328287D01*
X22233453Y60269286D01*
X22316518Y60202348D01*
X22435605Y60083261D01*
X22435608Y60083259D01*
X22435610Y60083257D01*
X22479000Y60050776D01*
X22664685Y59911774D01*
X22915839Y59774633D01*
X22991407Y59746448D01*
X22997867Y59744038D01*
X23122524Y59675970D01*
X23222954Y59575539D01*
X23291022Y59450882D01*
X23321213Y59312098D01*
X23311080Y59170429D01*
X23261446Y59037354D01*
X23176330Y58923653D01*
X23062629Y58838538D01*
X22929554Y58788904D01*
X22823484Y58777500D01*
X17719220Y58777500D01*
X17578635Y58797713D01*
X17449440Y58856714D01*
X17366374Y58923654D01*
X15235654Y61054375D01*
X15150538Y61168076D01*
X15100904Y61301151D01*
X15089500Y61407221D01*
X15089500Y63927098D01*
X15091418Y63957990D01*
X15093357Y63973547D01*
X15089500Y64066794D01*
X15089500Y64097830D01*
X15086936Y64128774D01*
X15083080Y64221998D01*
X15083080Y64222004D01*
X15079862Y64237348D01*
X15075402Y64267965D01*
X15074108Y64283588D01*
X15051196Y64374065D01*
X15032049Y64465381D01*
X15026350Y64479984D01*
X15016912Y64509445D01*
X15013063Y64524648D01*
X14975573Y64610116D01*
X14941655Y64697041D01*
X14933631Y64710507D01*
X14919468Y64738023D01*
X14913173Y64752374D01*
X14882930Y64798665D01*
X14862135Y64830495D01*
X14814368Y64910657D01*
X14814366Y64910661D01*
X14811245Y64914346D01*
X14804236Y64922622D01*
X14785730Y64947441D01*
X14777166Y64960550D01*
X14777161Y64960555D01*
X14713955Y65029216D01*
X14693904Y65052890D01*
X14693901Y65052893D01*
X14671960Y65074834D01*
X14608744Y65143505D01*
X14608743Y65143506D01*
X14608742Y65143507D01*
X14596360Y65153144D01*
X14573174Y65173620D01*
X11833615Y67913180D01*
X11813136Y67936371D01*
X11803508Y67948741D01*
X11803502Y67948748D01*
X11734845Y68011950D01*
X11712895Y68033900D01*
X11689203Y68053966D01*
X11620552Y68117164D01*
X11607434Y68125735D01*
X11582627Y68144232D01*
X11570665Y68154363D01*
X11570653Y68154372D01*
X11490489Y68202139D01*
X11412372Y68253174D01*
X11412368Y68253176D01*
X11398019Y68259470D01*
X11370513Y68273629D01*
X11357043Y68281655D01*
X11357036Y68281659D01*
X11270102Y68315580D01*
X11184639Y68353067D01*
X11169438Y68356916D01*
X11139983Y68366352D01*
X11125381Y68372049D01*
X11125380Y68372050D01*
X11125378Y68372050D01*
X11100668Y68377231D01*
X11034055Y68391199D01*
X10983022Y68404122D01*
X10943595Y68414107D01*
X10943582Y68414109D01*
X10927967Y68415403D01*
X10897348Y68419864D01*
X10882006Y68423081D01*
X10788757Y68426938D01*
X10757839Y68429500D01*
X10757834Y68429500D01*
X10726802Y68429500D01*
X10680428Y68431418D01*
X10633548Y68433357D01*
X10633541Y68433357D01*
X10617988Y68431418D01*
X10587097Y68429500D01*
X10476500Y68429500D01*
X10335915Y68449713D01*
X10206720Y68508714D01*
X10099381Y68601724D01*
X10022594Y68721208D01*
X9982579Y68857485D01*
X9977500Y68928500D01*
X9977500Y71225700D01*
X9977500Y73681067D01*
X9977499Y73681074D01*
X9977499Y75052036D01*
X9966886Y75171418D01*
X9910909Y75367049D01*
X9816698Y75547407D01*
X9816695Y75547411D01*
X9688110Y75705109D01*
X9670215Y75723004D01*
X9672605Y75725395D01*
X9604608Y75799279D01*
X9541766Y75926651D01*
X9517355Y76066567D01*
X9533352Y76207694D01*
X9588461Y76338597D01*
X9678218Y76448671D01*
X9795350Y76529000D01*
X9930368Y76573075D01*
X10016132Y76580500D01*
X21146500Y76580500D01*
X21287085Y76560287D01*
G37*
G04 #@! TD.AperFunction*
G04 #@! TD*
M02*
