G04 #@! TF.GenerationSoftware,KiCad,Pcbnew,7.0.7*
G04 #@! TF.CreationDate,2024-06-01T12:12:09+01:00*
G04 #@! TF.ProjectId,WindlassControl,57696e64-6c61-4737-9343-6f6e74726f6c,rev?*
G04 #@! TF.SameCoordinates,PX63add28PY7483a30*
G04 #@! TF.FileFunction,Copper,L2,Bot*
G04 #@! TF.FilePolarity,Positive*
%FSLAX46Y46*%
G04 Gerber Fmt 4.6, Leading zero omitted, Abs format (unit mm)*
G04 Created by KiCad (PCBNEW 7.0.7) date 2024-06-01 12:12:09*
%MOMM*%
%LPD*%
G01*
G04 APERTURE LIST*
G04 Aperture macros list*
%AMRoundRect*
0 Rectangle with rounded corners*
0 $1 Rounding radius*
0 $2 $3 $4 $5 $6 $7 $8 $9 X,Y pos of 4 corners*
0 Add a 4 corners polygon primitive as box body*
4,1,4,$2,$3,$4,$5,$6,$7,$8,$9,$2,$3,0*
0 Add four circle primitives for the rounded corners*
1,1,$1+$1,$2,$3*
1,1,$1+$1,$4,$5*
1,1,$1+$1,$6,$7*
1,1,$1+$1,$8,$9*
0 Add four rect primitives between the rounded corners*
20,1,$1+$1,$2,$3,$4,$5,0*
20,1,$1+$1,$4,$5,$6,$7,0*
20,1,$1+$1,$6,$7,$8,$9,0*
20,1,$1+$1,$8,$9,$2,$3,0*%
G04 Aperture macros list end*
G04 #@! TA.AperFunction,ComponentPad*
%ADD10C,2.500000*%
G04 #@! TD*
G04 #@! TA.AperFunction,ComponentPad*
%ADD11RoundRect,0.250000X-1.330000X-1.850000X1.330000X-1.850000X1.330000X1.850000X-1.330000X1.850000X0*%
G04 #@! TD*
G04 #@! TA.AperFunction,ComponentPad*
%ADD12O,3.160000X4.200000*%
G04 #@! TD*
G04 #@! TA.AperFunction,ComponentPad*
%ADD13O,2.000000X2.500000*%
G04 #@! TD*
G04 #@! TA.AperFunction,ComponentPad*
%ADD14RoundRect,0.250000X1.330000X1.850000X-1.330000X1.850000X-1.330000X-1.850000X1.330000X-1.850000X0*%
G04 #@! TD*
G04 #@! TA.AperFunction,ViaPad*
%ADD15C,2.000000*%
G04 #@! TD*
G04 #@! TA.AperFunction,Conductor*
%ADD16C,1.000000*%
G04 #@! TD*
G04 #@! TA.AperFunction,Conductor*
%ADD17C,2.000000*%
G04 #@! TD*
G04 #@! TA.AperFunction,Conductor*
%ADD18C,0.700000*%
G04 #@! TD*
G04 APERTURE END LIST*
D10*
G04 #@! TO.P,U4,1,nc*
G04 #@! TO.N,unconnected-(U4-nc-Pad1)*
X35749000Y28829000D03*
G04 #@! TO.P,U4,2,no*
G04 #@! TO.N,OP1*
X23749000Y28829000D03*
G04 #@! TO.P,U4,3,coil+*
G04 #@! TO.N,Net-(D2-A)*
X35749000Y40829000D03*
G04 #@! TO.P,U4,4,sw*
G04 #@! TO.N,+12V*
X29749000Y42829000D03*
G04 #@! TO.P,U4,5,c+*
X23749000Y40829000D03*
G04 #@! TD*
D11*
G04 #@! TO.P,CON2,1,Pin_1*
G04 #@! TO.N,+12V*
X31219000Y8919000D03*
D12*
G04 #@! TO.P,CON2,2,Pin_2*
G04 #@! TO.N,GND*
X35179000Y8919000D03*
G04 #@! TD*
D13*
G04 #@! TO.P,U1,1*
G04 #@! TO.N,Net-(R1-Pad2)*
X26289000Y61849000D03*
G04 #@! TO.P,U1,2*
G04 #@! TO.N,Net-(D1-A)*
X23749000Y61849000D03*
G04 #@! TO.P,U1,3*
G04 #@! TO.N,Net-(R2-Pad1)*
X23749000Y52959000D03*
G04 #@! TO.P,U1,4*
G04 #@! TO.N,+12V*
X26289000Y52959000D03*
G04 #@! TD*
D14*
G04 #@! TO.P,CON1,1,Pin_1*
G04 #@! TO.N,OP1*
X20014000Y9369000D03*
D12*
G04 #@! TO.P,CON1,2,Pin_2*
G04 #@! TO.N,OP2*
X16054000Y9369000D03*
G04 #@! TD*
D13*
G04 #@! TO.P,U3,1*
G04 #@! TO.N,Net-(R3-Pad2)*
X8509000Y61849000D03*
G04 #@! TO.P,U3,2*
G04 #@! TO.N,Net-(D3-A)*
X5969000Y61849000D03*
G04 #@! TO.P,U3,3*
G04 #@! TO.N,Net-(R4-Pad1)*
X5969000Y52959000D03*
G04 #@! TO.P,U3,4*
G04 #@! TO.N,+12V*
X8509000Y52959000D03*
G04 #@! TD*
D10*
G04 #@! TO.P,U7,1,nc*
G04 #@! TO.N,unconnected-(U7-nc-Pad1)*
X17907000Y28829000D03*
G04 #@! TO.P,U7,2,no*
G04 #@! TO.N,OP2*
X5907000Y28829000D03*
G04 #@! TO.P,U7,3,coil+*
G04 #@! TO.N,Net-(D4-A)*
X17907000Y40829000D03*
G04 #@! TO.P,U7,4,sw*
G04 #@! TO.N,+12V*
X11907000Y42829000D03*
G04 #@! TO.P,U7,5,c+*
X5907000Y40829000D03*
G04 #@! TD*
D15*
G04 #@! TO.N,GND*
X56515000Y41503600D03*
G04 #@! TO.N,+12V*
X31877000Y17018000D03*
G04 #@! TO.N,GND*
X13335000Y51943000D03*
X16764000Y61214000D03*
X2540000Y56769000D03*
X35306000Y19939000D03*
X30353000Y51816000D03*
G04 #@! TO.N,Net-(D2-A)*
X38862000Y45339000D03*
G04 #@! TO.N,Net-(D4-A)*
X20701000Y45466000D03*
G04 #@! TD*
D16*
G04 #@! TO.N,GND*
X41529000Y47752000D02*
X41529000Y35052000D01*
X41529000Y35052000D02*
X41529000Y26162000D01*
X56515000Y41503600D02*
X47980600Y41503600D01*
X47980600Y41503600D02*
X41529000Y35052000D01*
X30353000Y51816000D02*
X30480000Y51943000D01*
X30480000Y51943000D02*
X38354000Y51943000D01*
X38354000Y51943000D02*
X42037000Y48260000D01*
X42037000Y48260000D02*
X41529000Y47752000D01*
X41529000Y26162000D02*
X35306000Y19939000D01*
G04 #@! TO.N,+12V*
X26289000Y52959000D02*
X26289000Y51816000D01*
X26289000Y51816000D02*
X23749000Y49276000D01*
D17*
X23749000Y36322000D02*
X23749000Y40829000D01*
X23622000Y36195000D02*
X14732000Y36195000D01*
D16*
X31877000Y17018000D02*
X30003000Y17018000D01*
X23749000Y49276000D02*
X23749000Y40829000D01*
X8509000Y50927000D02*
X5842000Y48260000D01*
D17*
X11557000Y39370000D02*
X11907000Y39720000D01*
X11907000Y39720000D02*
X11907000Y42829000D01*
X29749000Y36195000D02*
X23622000Y36195000D01*
D16*
X5842000Y48260000D02*
X5907000Y48195000D01*
D17*
X29749000Y10389000D02*
X29749000Y16764000D01*
X23622000Y36195000D02*
X23749000Y36322000D01*
D16*
X30003000Y17018000D02*
X29749000Y16764000D01*
D17*
X11557000Y39370000D02*
X10098000Y40829000D01*
D16*
X5907000Y48195000D02*
X5907000Y40829000D01*
D17*
X31219000Y8919000D02*
X29749000Y10389000D01*
X10098000Y40829000D02*
X5907000Y40829000D01*
D16*
X8509000Y52959000D02*
X8509000Y50927000D01*
D17*
X29749000Y16764000D02*
X29749000Y36195000D01*
X29749000Y36195000D02*
X29749000Y42829000D01*
X14732000Y36195000D02*
X11557000Y39370000D01*
D16*
G04 #@! TO.N,GND*
X35306000Y19939000D02*
X35306000Y16891000D01*
X30353000Y51973427D02*
X29337000Y52989427D01*
X13335000Y54356000D02*
X13335000Y51943000D01*
X15621000Y56642000D02*
X13335000Y54356000D01*
X27432000Y56642000D02*
X15621000Y56642000D01*
X35306000Y16891000D02*
X35179000Y16764000D01*
X13335000Y57785000D02*
X13335000Y56515000D01*
X30353000Y51816000D02*
X30353000Y51973427D01*
X13081000Y56769000D02*
X13335000Y56515000D01*
X29337000Y52989427D02*
X29337000Y54737000D01*
X2540000Y56769000D02*
X13081000Y56769000D01*
X16764000Y61214000D02*
X13335000Y57785000D01*
X13335000Y56515000D02*
X13335000Y51943000D01*
X35179000Y16764000D02*
X35179000Y8919000D01*
X29337000Y54737000D02*
X27432000Y56642000D01*
D17*
G04 #@! TO.N,OP1*
X23749000Y21082000D02*
X23749000Y28829000D01*
X19939000Y17272000D02*
X23749000Y21082000D01*
D16*
X20014000Y9369000D02*
X19939000Y9444000D01*
D17*
X19939000Y9444000D02*
X19939000Y17272000D01*
D16*
X21209000Y10564000D02*
X20014000Y9369000D01*
D17*
G04 #@! TO.N,OP2*
X5907000Y23433000D02*
X5715000Y23241000D01*
X5715000Y23241000D02*
X16054000Y12902000D01*
X5907000Y28829000D02*
X5907000Y23433000D01*
X16054000Y12902000D02*
X16054000Y9369000D01*
D16*
G04 #@! TO.N,Net-(D2-A)*
X38862000Y45339000D02*
X38862000Y43942000D01*
X38862000Y43942000D02*
X35749000Y40829000D01*
D18*
G04 #@! TO.N,Net-(D4-A)*
X20701000Y45466000D02*
X20701000Y43623000D01*
X20701000Y43623000D02*
X17907000Y40829000D01*
G04 #@! TD*
G04 #@! TA.AperFunction,Conductor*
G04 #@! TO.N,GND*
G36*
X36725585Y79862287D02*
G01*
X36854780Y79803286D01*
X36962119Y79710276D01*
X37038906Y79590792D01*
X37078921Y79454515D01*
X37084000Y79383500D01*
X37084000Y48260000D01*
X38237012Y48260000D01*
X38377597Y48239787D01*
X38506792Y48180786D01*
X38614131Y48087776D01*
X38690918Y47968292D01*
X38730933Y47832015D01*
X38730933Y47689985D01*
X38690918Y47553708D01*
X38614131Y47434224D01*
X38506792Y47341214D01*
X38377597Y47282213D01*
X38343083Y47273404D01*
X38296955Y47263370D01*
X38028838Y47163367D01*
X37777687Y47026228D01*
X37777682Y47026224D01*
X37548607Y46854742D01*
X37346258Y46652393D01*
X37174776Y46423318D01*
X37174772Y46423313D01*
X37037633Y46172162D01*
X36937629Y45904044D01*
X36876805Y45624437D01*
X36876804Y45624431D01*
X36876804Y45624428D01*
X36856390Y45339000D01*
X36875984Y45065033D01*
X36876805Y45053564D01*
X36937629Y44773958D01*
X36997873Y44612440D01*
X37028064Y44473656D01*
X37017931Y44331988D01*
X36968297Y44198913D01*
X36883182Y44085211D01*
X36883181Y44085211D01*
X36024452Y43226482D01*
X35910751Y43141366D01*
X35777676Y43091732D01*
X35704245Y43081397D01*
X35454628Y43065035D01*
X35454612Y43065033D01*
X35165282Y43007482D01*
X35165274Y43007480D01*
X34885925Y42912654D01*
X34885922Y42912652D01*
X34621334Y42782171D01*
X34376042Y42618273D01*
X34154241Y42423759D01*
X33959727Y42201958D01*
X33795829Y41956666D01*
X33665348Y41692078D01*
X33665346Y41692075D01*
X33570520Y41412726D01*
X33570518Y41412718D01*
X33512967Y41123388D01*
X33512966Y41123386D01*
X33493671Y40829001D01*
X33512966Y40534615D01*
X33512967Y40534613D01*
X33570518Y40245283D01*
X33570520Y40245275D01*
X33665348Y39965921D01*
X33795824Y39701341D01*
X33795827Y39701335D01*
X33959724Y39456047D01*
X33959727Y39456043D01*
X34154241Y39234242D01*
X34376042Y39039728D01*
X34376046Y39039725D01*
X34621334Y38875828D01*
X34621340Y38875825D01*
X34885920Y38745349D01*
X34885923Y38745348D01*
X35165278Y38650519D01*
X35454613Y38592968D01*
X35454614Y38592967D01*
X35454615Y38592967D01*
X35454620Y38592966D01*
X35749000Y38573671D01*
X36043380Y38592966D01*
X36332722Y38650519D01*
X36612077Y38745348D01*
X36876665Y38875828D01*
X37121957Y39039727D01*
X37343758Y39234242D01*
X37538273Y39456043D01*
X37702172Y39701335D01*
X37832652Y39965923D01*
X37927481Y40245278D01*
X37985034Y40534620D01*
X38001395Y40784251D01*
X38030760Y40923207D01*
X38098085Y41048267D01*
X38146474Y41104448D01*
X39846188Y42804162D01*
X39869371Y42824633D01*
X39881744Y42834262D01*
X39944949Y42902922D01*
X39966902Y42924874D01*
X39986966Y42948565D01*
X40050164Y43017215D01*
X40058735Y43030336D01*
X40077233Y43055143D01*
X40087366Y43067106D01*
X40135136Y43147276D01*
X40186173Y43225393D01*
X40192471Y43239754D01*
X40206625Y43267250D01*
X40214656Y43280727D01*
X40248580Y43367668D01*
X40286063Y43453119D01*
X40289911Y43468319D01*
X40299347Y43497775D01*
X40305050Y43512386D01*
X40324202Y43603726D01*
X40347108Y43694179D01*
X40348402Y43709810D01*
X40352860Y43740405D01*
X40356081Y43755763D01*
X40359937Y43849010D01*
X40362329Y43877880D01*
X40394085Y44016311D01*
X40460151Y44135695D01*
X40549226Y44254685D01*
X40686367Y44505839D01*
X40786369Y44773954D01*
X40788157Y44782171D01*
X40837169Y45007480D01*
X40847196Y45053572D01*
X40867610Y45339000D01*
X40847196Y45624428D01*
X40819567Y45751437D01*
X40786370Y45904044D01*
X40739000Y46031046D01*
X40686367Y46172161D01*
X40549226Y46423315D01*
X40446333Y46560763D01*
X40377741Y46652393D01*
X40175392Y46854742D01*
X40037946Y46957632D01*
X39946315Y47026226D01*
X39946313Y47026227D01*
X39946312Y47026228D01*
X39695161Y47163367D01*
X39427044Y47263370D01*
X39380917Y47273404D01*
X39247842Y47323038D01*
X39134141Y47408154D01*
X39049026Y47521855D01*
X38999392Y47654930D01*
X38989259Y47796599D01*
X39019450Y47935383D01*
X39087518Y48060040D01*
X39187949Y48160470D01*
X39312606Y48228538D01*
X39451390Y48258729D01*
X39486988Y48260000D01*
X59063500Y48260000D01*
X59204085Y48239787D01*
X59333280Y48180786D01*
X59440619Y48087776D01*
X59517406Y47968292D01*
X59557421Y47832015D01*
X59562500Y47761000D01*
X59562500Y512570D01*
X59560362Y479962D01*
X59554807Y437775D01*
X59516413Y301033D01*
X59441050Y180646D01*
X59334822Y86369D01*
X59206337Y25838D01*
X59125229Y8194D01*
X59098151Y4628D01*
X59083031Y2638D01*
X59050433Y500D01*
X512567Y500D01*
X479966Y2638D01*
X459671Y5310D01*
X437772Y8193D01*
X301030Y46588D01*
X180644Y121952D01*
X86366Y228180D01*
X25836Y356666D01*
X8190Y437789D01*
X2635Y479979D01*
X500Y512575D01*
X500Y28829000D01*
X3651671Y28829000D01*
X3670966Y28534615D01*
X3670967Y28534613D01*
X3728518Y28245283D01*
X3728520Y28245275D01*
X3823347Y27965924D01*
X3855040Y27901658D01*
X3899090Y27766631D01*
X3906500Y27680956D01*
X3906500Y24205155D01*
X3886287Y24064570D01*
X3861408Y23997867D01*
X3835846Y23941895D01*
X3835844Y23941888D01*
X3755226Y23667328D01*
X3755225Y23667323D01*
X3755225Y23667322D01*
X3714500Y23384079D01*
X3714500Y23097921D01*
X3755225Y22814678D01*
X3755226Y22814673D01*
X3835844Y22540113D01*
X3835844Y22540112D01*
X3954720Y22279809D01*
X4109426Y22039082D01*
X4296817Y21822823D01*
X4296820Y21822820D01*
X4344220Y21781748D01*
X4357239Y21769627D01*
X9291417Y16835449D01*
X13907346Y12219520D01*
X13992462Y12105819D01*
X14042096Y11972744D01*
X14053500Y11866674D01*
X14053500Y11696572D01*
X14033287Y11555987D01*
X13974286Y11426792D01*
X13965241Y11413566D01*
X13788219Y11134625D01*
X13665099Y10872978D01*
X13649968Y10840824D01*
X13649965Y10840817D01*
X13649965Y10840815D01*
X13549628Y10532011D01*
X13549627Y10532006D01*
X13488786Y10213067D01*
X13488784Y10213056D01*
X13473500Y9970102D01*
X13473500Y8767898D01*
X13488784Y8524945D01*
X13488786Y8524934D01*
X13549627Y8205995D01*
X13549629Y8205987D01*
X13649968Y7897176D01*
X13719094Y7750277D01*
X13788217Y7603382D01*
X13788219Y7603379D01*
X13788220Y7603377D01*
X13962204Y7329221D01*
X14169177Y7079034D01*
X14405875Y6856759D01*
X14668565Y6665904D01*
X14668567Y6665903D01*
X14668570Y6665901D01*
X14953096Y6509481D01*
X14953100Y6509480D01*
X14953104Y6509477D01*
X15255005Y6389946D01*
X15569506Y6309196D01*
X15622452Y6302508D01*
X15891636Y6268501D01*
X15891646Y6268501D01*
X15891649Y6268500D01*
X15891652Y6268500D01*
X16216348Y6268500D01*
X16216351Y6268500D01*
X16216354Y6268501D01*
X16216363Y6268501D01*
X16402076Y6291963D01*
X16538494Y6309196D01*
X16852995Y6389946D01*
X17154896Y6509477D01*
X17326106Y6603601D01*
X17459037Y6653614D01*
X17600676Y6664151D01*
X17739546Y6634357D01*
X17864397Y6566646D01*
X17875974Y6557517D01*
X18064375Y6426992D01*
X18132688Y6395964D01*
X18269317Y6333904D01*
X18487588Y6278904D01*
X18619783Y6268500D01*
X21408216Y6268501D01*
X21408219Y6268501D01*
X21452281Y6271969D01*
X21540412Y6278904D01*
X21758683Y6333904D01*
X21963626Y6426993D01*
X22148654Y6555181D01*
X22307819Y6714346D01*
X22436007Y6899374D01*
X22529096Y7104317D01*
X22584096Y7322588D01*
X22594500Y7454783D01*
X22594499Y9892993D01*
X22614712Y10033576D01*
X22628636Y10074384D01*
X22640025Y10103572D01*
X22652049Y10134386D01*
X22703080Y10377763D01*
X22713357Y10626221D01*
X22682598Y10872981D01*
X22615242Y11099225D01*
X22594503Y11239732D01*
X22594499Y11241605D01*
X22594499Y11283219D01*
X22584096Y11415407D01*
X22584096Y11415412D01*
X22529096Y11633683D01*
X22482551Y11736155D01*
X22436008Y11838625D01*
X22307820Y12023653D01*
X22307812Y12023662D01*
X22148661Y12182813D01*
X22131452Y12197180D01*
X22132844Y12198849D01*
X22050275Y12275568D01*
X21977677Y12397643D01*
X21942413Y12535226D01*
X21939500Y12589068D01*
X21939500Y16236674D01*
X21959713Y16377259D01*
X22018714Y16506454D01*
X22085654Y16589520D01*
X23598448Y18102313D01*
X25214089Y19717954D01*
X25214089Y19717955D01*
X25226611Y19730476D01*
X25226623Y19730490D01*
X25264731Y19768597D01*
X25264731Y19768598D01*
X25264739Y19768605D01*
X25302319Y19818808D01*
X25313497Y19832679D01*
X25354574Y19880083D01*
X25388484Y19932851D01*
X25398647Y19947486D01*
X25436226Y19997685D01*
X25466276Y20052720D01*
X25475367Y20068042D01*
X25476484Y20069781D01*
X25509282Y20120814D01*
X25535342Y20177881D01*
X25543299Y20193776D01*
X25573367Y20248839D01*
X25595293Y20307626D01*
X25602092Y20324041D01*
X25628156Y20381112D01*
X25645826Y20441293D01*
X25651442Y20458168D01*
X25673369Y20516954D01*
X25686703Y20578258D01*
X25691104Y20595496D01*
X25708776Y20655678D01*
X25717703Y20717775D01*
X25720857Y20735259D01*
X25734196Y20796572D01*
X25738669Y20859140D01*
X25740574Y20876847D01*
X25749499Y20938912D01*
X25749500Y20938924D01*
X25749500Y27680956D01*
X25769713Y27821541D01*
X25800960Y27901658D01*
X25832652Y27965924D01*
X25927481Y28245278D01*
X25985034Y28534620D01*
X26004329Y28829000D01*
X25985034Y29123380D01*
X25927481Y29412722D01*
X25832652Y29692077D01*
X25702172Y29956664D01*
X25538273Y30201957D01*
X25343758Y30423758D01*
X25343755Y30423760D01*
X25343754Y30423762D01*
X25121957Y30618273D01*
X25121953Y30618276D01*
X24876665Y30782173D01*
X24876659Y30782176D01*
X24612079Y30912652D01*
X24332725Y31007480D01*
X24332724Y31007481D01*
X24332722Y31007481D01*
X24332717Y31007482D01*
X24043387Y31065033D01*
X24043385Y31065034D01*
X23749000Y31084329D01*
X23454614Y31065034D01*
X23454612Y31065033D01*
X23165282Y31007482D01*
X23165274Y31007480D01*
X22885925Y30912654D01*
X22885922Y30912652D01*
X22621334Y30782171D01*
X22376042Y30618273D01*
X22154241Y30423759D01*
X21959727Y30201958D01*
X21795829Y29956666D01*
X21665348Y29692078D01*
X21665346Y29692075D01*
X21570520Y29412726D01*
X21570518Y29412718D01*
X21512967Y29123388D01*
X21512966Y29123386D01*
X21493671Y28829000D01*
X21512966Y28534615D01*
X21512967Y28534613D01*
X21570518Y28245283D01*
X21570520Y28245275D01*
X21665347Y27965924D01*
X21697040Y27901658D01*
X21741090Y27766631D01*
X21748500Y27680956D01*
X21748500Y22117328D01*
X21728287Y21976743D01*
X21669286Y21847548D01*
X21602346Y21764482D01*
X18423265Y18585402D01*
X18385670Y18535182D01*
X18374498Y18521319D01*
X18333430Y18473924D01*
X18333425Y18473916D01*
X18299511Y18421146D01*
X18289354Y18406517D01*
X18251775Y18356318D01*
X18251772Y18356313D01*
X18221713Y18301266D01*
X18212628Y18285955D01*
X18178717Y18233187D01*
X18152660Y18176131D01*
X18144690Y18160209D01*
X18114634Y18105166D01*
X18114630Y18105157D01*
X18092712Y18046393D01*
X18085897Y18029940D01*
X18059849Y17972903D01*
X18059840Y17972877D01*
X18042172Y17912710D01*
X18036550Y17895817D01*
X18014635Y17837058D01*
X18014627Y17837034D01*
X18001296Y17775751D01*
X17996892Y17758496D01*
X17979225Y17698323D01*
X17970300Y17636257D01*
X17967138Y17618731D01*
X17953803Y17557428D01*
X17949329Y17494865D01*
X17947424Y17477152D01*
X17938500Y17415082D01*
X17938500Y15051326D01*
X17918287Y14910741D01*
X17859286Y14781546D01*
X17766276Y14674207D01*
X17646792Y14597420D01*
X17510515Y14557405D01*
X17368485Y14557405D01*
X17232208Y14597420D01*
X17112724Y14674207D01*
X17086654Y14698480D01*
X8053654Y23731480D01*
X7968538Y23845181D01*
X7918904Y23978256D01*
X7907500Y24084326D01*
X7907500Y27680956D01*
X7927713Y27821541D01*
X7958960Y27901658D01*
X7990652Y27965924D01*
X8085481Y28245278D01*
X8143034Y28534620D01*
X8162329Y28829000D01*
X8162329Y28829001D01*
X15651671Y28829001D01*
X15670966Y28534615D01*
X15670967Y28534613D01*
X15728518Y28245283D01*
X15728520Y28245275D01*
X15823348Y27965921D01*
X15953824Y27701341D01*
X15953827Y27701335D01*
X16117724Y27456047D01*
X16117727Y27456043D01*
X16312241Y27234242D01*
X16534042Y27039728D01*
X16534046Y27039725D01*
X16779334Y26875828D01*
X16779340Y26875825D01*
X17043920Y26745349D01*
X17043923Y26745348D01*
X17323278Y26650519D01*
X17612613Y26592968D01*
X17612614Y26592967D01*
X17612615Y26592967D01*
X17612620Y26592966D01*
X17907000Y26573671D01*
X18201380Y26592966D01*
X18490722Y26650519D01*
X18770077Y26745348D01*
X19034665Y26875828D01*
X19279957Y27039727D01*
X19501758Y27234242D01*
X19696273Y27456043D01*
X19860172Y27701335D01*
X19990652Y27965923D01*
X20085481Y28245278D01*
X20143034Y28534620D01*
X20162329Y28829000D01*
X20143034Y29123380D01*
X20085481Y29412722D01*
X19990652Y29692077D01*
X19860172Y29956664D01*
X19696273Y30201957D01*
X19501758Y30423758D01*
X19501755Y30423760D01*
X19501754Y30423762D01*
X19279957Y30618273D01*
X19279953Y30618276D01*
X19034665Y30782173D01*
X19034659Y30782176D01*
X18770079Y30912652D01*
X18490725Y31007480D01*
X18490724Y31007481D01*
X18490722Y31007481D01*
X18490717Y31007482D01*
X18201387Y31065033D01*
X18201385Y31065034D01*
X17907000Y31084329D01*
X17612614Y31065034D01*
X17612612Y31065033D01*
X17323282Y31007482D01*
X17323274Y31007480D01*
X17043925Y30912654D01*
X17043922Y30912652D01*
X16779334Y30782171D01*
X16534042Y30618273D01*
X16312241Y30423759D01*
X16117727Y30201958D01*
X15953829Y29956666D01*
X15823348Y29692078D01*
X15823346Y29692075D01*
X15728520Y29412726D01*
X15728518Y29412718D01*
X15670967Y29123388D01*
X15670966Y29123386D01*
X15651671Y28829001D01*
X8162329Y28829001D01*
X8143034Y29123380D01*
X8085481Y29412722D01*
X7990652Y29692077D01*
X7860172Y29956664D01*
X7696273Y30201957D01*
X7501758Y30423758D01*
X7501755Y30423760D01*
X7501754Y30423762D01*
X7279957Y30618273D01*
X7279953Y30618276D01*
X7034665Y30782173D01*
X7034659Y30782176D01*
X6770079Y30912652D01*
X6490725Y31007480D01*
X6490724Y31007481D01*
X6490722Y31007481D01*
X6490717Y31007482D01*
X6201387Y31065033D01*
X6201385Y31065034D01*
X5907000Y31084329D01*
X5612614Y31065034D01*
X5612612Y31065033D01*
X5323282Y31007482D01*
X5323274Y31007480D01*
X5043925Y30912654D01*
X5043922Y30912652D01*
X4779334Y30782171D01*
X4534042Y30618273D01*
X4312241Y30423759D01*
X4117727Y30201958D01*
X3953829Y29956666D01*
X3823348Y29692078D01*
X3823346Y29692075D01*
X3728520Y29412726D01*
X3728518Y29412718D01*
X3670967Y29123388D01*
X3670966Y29123386D01*
X3651671Y28829000D01*
X500Y28829000D01*
X500Y40829000D01*
X3651671Y40829000D01*
X3670966Y40534615D01*
X3670967Y40534613D01*
X3728518Y40245283D01*
X3728520Y40245275D01*
X3823348Y39965921D01*
X3953824Y39701341D01*
X3953827Y39701335D01*
X4117724Y39456047D01*
X4117727Y39456043D01*
X4312241Y39234242D01*
X4534042Y39039728D01*
X4534046Y39039725D01*
X4779334Y38875828D01*
X4779340Y38875825D01*
X5043920Y38745349D01*
X5043923Y38745348D01*
X5323278Y38650519D01*
X5612613Y38592968D01*
X5612614Y38592967D01*
X5612615Y38592967D01*
X5612620Y38592966D01*
X5907000Y38573671D01*
X6201380Y38592966D01*
X6490722Y38650519D01*
X6770077Y38745348D01*
X6834342Y38777041D01*
X6969369Y38821090D01*
X7055044Y38828500D01*
X9062674Y38828500D01*
X9203259Y38808287D01*
X9332454Y38749286D01*
X9415520Y38682346D01*
X10085617Y38012249D01*
X10097743Y37999224D01*
X10124991Y37967779D01*
X10138820Y37951820D01*
X10186214Y37910753D01*
X10199252Y37898613D01*
X13216261Y34881605D01*
X13418605Y34679261D01*
X13468817Y34641673D01*
X13482662Y34630516D01*
X13530082Y34589426D01*
X13582857Y34555510D01*
X13597481Y34545356D01*
X13647685Y34507774D01*
X13702729Y34477718D01*
X13718017Y34468648D01*
X13770813Y34434718D01*
X13827882Y34408656D01*
X13843792Y34400691D01*
X13898839Y34370633D01*
X13957613Y34348712D01*
X13974056Y34341901D01*
X14031111Y34315844D01*
X14031115Y34315843D01*
X14031117Y34315842D01*
X14040514Y34313083D01*
X14091306Y34298170D01*
X14108167Y34292558D01*
X14166954Y34270631D01*
X14228264Y34257295D01*
X14245506Y34252894D01*
X14305678Y34235225D01*
X14367766Y34226299D01*
X14385263Y34223142D01*
X14446572Y34209804D01*
X14497843Y34206138D01*
X14509127Y34205330D01*
X14526841Y34203426D01*
X14588921Y34194500D01*
X14660552Y34194500D01*
X23478921Y34194500D01*
X23550552Y34194500D01*
X27249500Y34194500D01*
X27390085Y34174287D01*
X27519280Y34115286D01*
X27626619Y34022276D01*
X27703406Y33902792D01*
X27743421Y33766515D01*
X27748500Y33695500D01*
X27748500Y10245921D01*
X27757424Y10183844D01*
X27759328Y10166139D01*
X27763804Y10103567D01*
X27777139Y10042264D01*
X27780301Y10024737D01*
X27789224Y9962679D01*
X27806892Y9902508D01*
X27811298Y9885247D01*
X27824631Y9823952D01*
X27824634Y9823943D01*
X27846552Y9765178D01*
X27852176Y9748281D01*
X27869844Y9688112D01*
X27895908Y9631038D01*
X27902706Y9614626D01*
X27924633Y9555839D01*
X27954696Y9500782D01*
X27962655Y9484883D01*
X27988718Y9427813D01*
X28022640Y9375029D01*
X28031720Y9359725D01*
X28061771Y9304691D01*
X28061776Y9304682D01*
X28099358Y9254479D01*
X28109512Y9239854D01*
X28143426Y9187083D01*
X28184506Y9139674D01*
X28195663Y9125830D01*
X28233261Y9075605D01*
X28283912Y9024954D01*
X28492345Y8816521D01*
X28492346Y8816520D01*
X28577462Y8702819D01*
X28627096Y8569744D01*
X28638500Y8463674D01*
X28638501Y7004781D01*
X28648903Y6872594D01*
X28648904Y6872589D01*
X28703904Y6654317D01*
X28796991Y6449376D01*
X28925179Y6264348D01*
X28925187Y6264339D01*
X29084338Y6105188D01*
X29084347Y6105180D01*
X29269375Y5976992D01*
X29337688Y5945964D01*
X29474317Y5883904D01*
X29692588Y5828904D01*
X29824783Y5818500D01*
X32613216Y5818501D01*
X32613219Y5818501D01*
X32657281Y5821969D01*
X32745412Y5828904D01*
X32963683Y5883904D01*
X33168626Y5976993D01*
X33353654Y6105181D01*
X33512819Y6264346D01*
X33641007Y6449374D01*
X33734096Y6654317D01*
X33789096Y6872588D01*
X33799500Y7004783D01*
X33799499Y10833216D01*
X33789096Y10965412D01*
X33734096Y11183683D01*
X33687551Y11286155D01*
X33641008Y11388625D01*
X33512820Y11573653D01*
X33512812Y11573662D01*
X33353661Y11732813D01*
X33353652Y11732821D01*
X33168624Y11861009D01*
X33031997Y11923067D01*
X32963683Y11954096D01*
X32745412Y12009096D01*
X32649176Y12016670D01*
X32613221Y12019500D01*
X32613217Y12019500D01*
X32248500Y12019500D01*
X32107915Y12039713D01*
X31978720Y12098714D01*
X31871381Y12191724D01*
X31794594Y12311208D01*
X31754579Y12447485D01*
X31749500Y12518500D01*
X31749500Y14541048D01*
X31769713Y14681633D01*
X31828714Y14810828D01*
X31921724Y14918167D01*
X32041208Y14994954D01*
X32145745Y15025650D01*
X32145013Y15029015D01*
X32442043Y15093630D01*
X32442046Y15093631D01*
X32710161Y15193633D01*
X32961315Y15330774D01*
X33190395Y15502261D01*
X33392739Y15704605D01*
X33564226Y15933685D01*
X33701367Y16184839D01*
X33801369Y16452954D01*
X33862196Y16732572D01*
X33882610Y17018000D01*
X33862196Y17303428D01*
X33806942Y17557428D01*
X33801370Y17583044D01*
X33735929Y17758496D01*
X33701367Y17851161D01*
X33564226Y18102315D01*
X33421142Y18293453D01*
X33392741Y18331393D01*
X33190392Y18533742D01*
X33052947Y18636632D01*
X32961315Y18705226D01*
X32961313Y18705227D01*
X32961312Y18705228D01*
X32710161Y18842367D01*
X32442043Y18942371D01*
X32145013Y19006985D01*
X32145743Y19010344D01*
X32041101Y19041095D01*
X31921636Y19117911D01*
X31828651Y19225272D01*
X31769680Y19354481D01*
X31749500Y19494953D01*
X31749500Y28829001D01*
X33493671Y28829001D01*
X33512966Y28534615D01*
X33512967Y28534613D01*
X33570518Y28245283D01*
X33570520Y28245275D01*
X33665348Y27965921D01*
X33795824Y27701341D01*
X33795827Y27701335D01*
X33959724Y27456047D01*
X33959727Y27456043D01*
X34154241Y27234242D01*
X34376042Y27039728D01*
X34376046Y27039725D01*
X34621334Y26875828D01*
X34621340Y26875825D01*
X34885920Y26745349D01*
X34885923Y26745348D01*
X35165278Y26650519D01*
X35454613Y26592968D01*
X35454614Y26592967D01*
X35454615Y26592967D01*
X35454620Y26592966D01*
X35749000Y26573671D01*
X36043380Y26592966D01*
X36332722Y26650519D01*
X36612077Y26745348D01*
X36876665Y26875828D01*
X37121957Y27039727D01*
X37343758Y27234242D01*
X37538273Y27456043D01*
X37702172Y27701335D01*
X37832652Y27965923D01*
X37927481Y28245278D01*
X37985034Y28534620D01*
X38004329Y28829000D01*
X37985034Y29123380D01*
X37927481Y29412722D01*
X37832652Y29692077D01*
X37702172Y29956664D01*
X37538273Y30201957D01*
X37343758Y30423758D01*
X37343755Y30423760D01*
X37343754Y30423762D01*
X37121957Y30618273D01*
X37121953Y30618276D01*
X36876665Y30782173D01*
X36876659Y30782176D01*
X36612079Y30912652D01*
X36332725Y31007480D01*
X36332724Y31007481D01*
X36332722Y31007481D01*
X36332717Y31007482D01*
X36043387Y31065033D01*
X36043385Y31065034D01*
X35749000Y31084329D01*
X35454614Y31065034D01*
X35454612Y31065033D01*
X35165282Y31007482D01*
X35165274Y31007480D01*
X34885925Y30912654D01*
X34885922Y30912652D01*
X34621334Y30782171D01*
X34376042Y30618273D01*
X34154241Y30423759D01*
X33959727Y30201958D01*
X33795829Y29956666D01*
X33665348Y29692078D01*
X33665346Y29692075D01*
X33570520Y29412726D01*
X33570518Y29412718D01*
X33512967Y29123388D01*
X33512966Y29123386D01*
X33493671Y28829001D01*
X31749500Y28829001D01*
X31749500Y36114635D01*
X31750136Y36132438D01*
X31751618Y36153170D01*
X31754610Y36195000D01*
X31751780Y36234559D01*
X31750136Y36257563D01*
X31749500Y36275367D01*
X31749500Y41680956D01*
X31769713Y41821541D01*
X31800960Y41901658D01*
X31832652Y41965924D01*
X31912775Y42201957D01*
X31927481Y42245278D01*
X31985034Y42534620D01*
X32004329Y42829000D01*
X31985034Y43123380D01*
X31927481Y43412722D01*
X31832652Y43692077D01*
X31702172Y43956664D01*
X31538273Y44201957D01*
X31343758Y44423758D01*
X31343755Y44423760D01*
X31343754Y44423762D01*
X31121957Y44618273D01*
X31121953Y44618276D01*
X30876665Y44782173D01*
X30876659Y44782176D01*
X30612079Y44912652D01*
X30332725Y45007480D01*
X30332724Y45007481D01*
X30332722Y45007481D01*
X30332717Y45007482D01*
X30043387Y45065033D01*
X30043385Y45065034D01*
X29798063Y45081114D01*
X29749000Y45084329D01*
X29748999Y45084329D01*
X29454614Y45065034D01*
X29454612Y45065033D01*
X29165282Y45007482D01*
X29165274Y45007480D01*
X28885925Y44912654D01*
X28885922Y44912652D01*
X28621334Y44782171D01*
X28376042Y44618273D01*
X28154241Y44423759D01*
X27959727Y44201958D01*
X27795829Y43956666D01*
X27665348Y43692078D01*
X27665346Y43692075D01*
X27570520Y43412726D01*
X27570518Y43412718D01*
X27512967Y43123388D01*
X27512966Y43123386D01*
X27493671Y42829001D01*
X27512966Y42534615D01*
X27512967Y42534613D01*
X27570518Y42245283D01*
X27570520Y42245275D01*
X27665347Y41965924D01*
X27697040Y41901658D01*
X27741090Y41766631D01*
X27748500Y41680956D01*
X27748500Y38694500D01*
X27728287Y38553915D01*
X27669286Y38424720D01*
X27576276Y38317381D01*
X27456792Y38240594D01*
X27320515Y38200579D01*
X27249500Y38195500D01*
X26248500Y38195500D01*
X26107915Y38215713D01*
X25978720Y38274714D01*
X25871381Y38367724D01*
X25794594Y38487208D01*
X25754579Y38623485D01*
X25749500Y38694499D01*
X25749499Y39680954D01*
X25769712Y39821539D01*
X25800960Y39901659D01*
X25832652Y39965923D01*
X25927481Y40245278D01*
X25985034Y40534620D01*
X26004329Y40829000D01*
X25985034Y41123380D01*
X25927481Y41412722D01*
X25832652Y41692077D01*
X25702172Y41956664D01*
X25538273Y42201957D01*
X25373332Y42390036D01*
X25295836Y42509059D01*
X25255011Y42645095D01*
X25249500Y42719049D01*
X25249500Y48447782D01*
X25269713Y48588367D01*
X25328714Y48717562D01*
X25395650Y48800624D01*
X27273175Y50678150D01*
X27296367Y50698630D01*
X27308744Y50708262D01*
X27371960Y50776934D01*
X27393901Y50798874D01*
X27413955Y50822553D01*
X27477164Y50891215D01*
X27485735Y50904336D01*
X27504233Y50929143D01*
X27514366Y50941106D01*
X27514369Y50941111D01*
X27562134Y51021272D01*
X27589975Y51063886D01*
X27613173Y51099393D01*
X27619470Y51113750D01*
X27633636Y51141269D01*
X27641655Y51154726D01*
X27653400Y51184827D01*
X27723330Y51308443D01*
X27765417Y51356284D01*
X27804739Y51395605D01*
X27976226Y51624685D01*
X28113367Y51875839D01*
X28213369Y52143954D01*
X28274196Y52423572D01*
X28289500Y52637552D01*
X28289500Y53280448D01*
X28274196Y53494428D01*
X28269968Y53513862D01*
X28213370Y53774044D01*
X28184535Y53851352D01*
X28113367Y54042161D01*
X27976226Y54293315D01*
X27873333Y54430764D01*
X27804741Y54522393D01*
X27602392Y54724742D01*
X27400622Y54875784D01*
X27373315Y54896226D01*
X27373313Y54896227D01*
X27373312Y54896228D01*
X27122161Y55033367D01*
X26854043Y55133371D01*
X26574436Y55194195D01*
X26574430Y55194196D01*
X26574428Y55194196D01*
X26289000Y55214610D01*
X26288999Y55214610D01*
X26241282Y55211198D01*
X26003572Y55194196D01*
X26003569Y55194196D01*
X26003563Y55194195D01*
X25723956Y55133371D01*
X25455840Y55033368D01*
X25258146Y54925418D01*
X25125071Y54875784D01*
X24983402Y54865651D01*
X24844618Y54895842D01*
X24779854Y54925418D01*
X24582159Y55033368D01*
X24314043Y55133371D01*
X24034436Y55194195D01*
X24034430Y55194196D01*
X24034428Y55194196D01*
X23749000Y55214610D01*
X23463572Y55194196D01*
X23463569Y55194196D01*
X23463563Y55194195D01*
X23183956Y55133371D01*
X22915838Y55033367D01*
X22664687Y54896228D01*
X22664682Y54896224D01*
X22435607Y54724742D01*
X22233258Y54522393D01*
X22061776Y54293318D01*
X22061772Y54293313D01*
X21924633Y54042162D01*
X21824629Y53774044D01*
X21763805Y53494437D01*
X21748500Y53280447D01*
X21748500Y52637553D01*
X21763805Y52423564D01*
X21824629Y52143957D01*
X21924632Y51875839D01*
X21924633Y51875839D01*
X22061774Y51624685D01*
X22130368Y51533054D01*
X22233258Y51395608D01*
X22435607Y51193259D01*
X22608430Y51063886D01*
X22708861Y50963456D01*
X22776929Y50838799D01*
X22807121Y50700015D01*
X22796989Y50558346D01*
X22747354Y50425271D01*
X22676531Y50326465D01*
X22666057Y50315087D01*
X22644102Y50293131D01*
X22644098Y50293126D01*
X22624032Y50269436D01*
X22624033Y50269436D01*
X22560837Y50200787D01*
X22560827Y50200774D01*
X22552253Y50187652D01*
X22533773Y50162868D01*
X22523643Y50150906D01*
X22523629Y50150887D01*
X22475859Y50070719D01*
X22424825Y49992606D01*
X22424824Y49992605D01*
X22418526Y49978246D01*
X22404373Y49950751D01*
X22396350Y49937287D01*
X22396343Y49937272D01*
X22362419Y49850334D01*
X22324936Y49764881D01*
X22321085Y49749675D01*
X22311649Y49720218D01*
X22305951Y49705617D01*
X22305950Y49705613D01*
X22297497Y49665300D01*
X22286801Y49614289D01*
X22271461Y49553715D01*
X22263891Y49523819D01*
X22263890Y49523812D01*
X22262595Y49508190D01*
X22258136Y49477587D01*
X22254919Y49462243D01*
X22254919Y49462241D01*
X22251062Y49368993D01*
X22248500Y49338072D01*
X22248500Y49307035D01*
X22244643Y49213782D01*
X22244643Y49213766D01*
X22246582Y49198207D01*
X22248499Y49167326D01*
X22248499Y47740600D01*
X22228286Y47600015D01*
X22169285Y47470820D01*
X22076275Y47363481D01*
X21956791Y47286694D01*
X21820514Y47246679D01*
X21678484Y47246679D01*
X21550863Y47284150D01*
X21550859Y47284139D01*
X21550705Y47284197D01*
X21542219Y47286688D01*
X21534168Y47290365D01*
X21266043Y47390371D01*
X20986436Y47451195D01*
X20986430Y47451196D01*
X20986428Y47451196D01*
X20701000Y47471610D01*
X20415572Y47451196D01*
X20415569Y47451196D01*
X20415563Y47451195D01*
X20135956Y47390371D01*
X19867838Y47290367D01*
X19616687Y47153228D01*
X19616682Y47153224D01*
X19387607Y46981742D01*
X19185258Y46779393D01*
X19013776Y46550318D01*
X19013772Y46550313D01*
X18876633Y46299162D01*
X18776629Y46031044D01*
X18715805Y45751437D01*
X18695390Y45466000D01*
X18715805Y45180564D01*
X18776629Y44900957D01*
X18876632Y44632840D01*
X18876633Y44632839D01*
X18990800Y44423758D01*
X19022315Y44366044D01*
X19019415Y44364461D01*
X19065088Y44264436D01*
X19085292Y44123850D01*
X19065070Y43983267D01*
X19006061Y43854075D01*
X18939138Y43771035D01*
X18391057Y43222954D01*
X18277356Y43137838D01*
X18144281Y43088204D01*
X18005576Y43077868D01*
X17907001Y43084329D01*
X17907000Y43084329D01*
X17864945Y43081573D01*
X17612614Y43065034D01*
X17612612Y43065033D01*
X17323282Y43007482D01*
X17323274Y43007480D01*
X17043925Y42912654D01*
X17043922Y42912652D01*
X16779334Y42782171D01*
X16534042Y42618273D01*
X16312241Y42423759D01*
X16117727Y42201958D01*
X15953829Y41956666D01*
X15823348Y41692078D01*
X15823346Y41692075D01*
X15728520Y41412726D01*
X15728518Y41412718D01*
X15670967Y41123388D01*
X15670966Y41123386D01*
X15651671Y40829001D01*
X15670966Y40534615D01*
X15670967Y40534613D01*
X15728518Y40245283D01*
X15728520Y40245275D01*
X15823348Y39965921D01*
X15953824Y39701341D01*
X15953827Y39701335D01*
X16117724Y39456047D01*
X16117727Y39456043D01*
X16312241Y39234242D01*
X16499902Y39069668D01*
X16592272Y38961778D01*
X16650504Y38832234D01*
X16669880Y38691531D01*
X16648831Y38551070D01*
X16589062Y38422228D01*
X16495415Y38315444D01*
X16375477Y38239368D01*
X16238964Y38200165D01*
X16170889Y38195500D01*
X15767326Y38195500D01*
X15626741Y38215713D01*
X15497546Y38274714D01*
X15414480Y38341654D01*
X14053654Y39702480D01*
X13968538Y39816181D01*
X13918904Y39949256D01*
X13907500Y40055326D01*
X13907500Y41680956D01*
X13927713Y41821541D01*
X13958960Y41901658D01*
X13990652Y41965924D01*
X14070775Y42201957D01*
X14085481Y42245278D01*
X14143034Y42534620D01*
X14162329Y42829000D01*
X14143034Y43123380D01*
X14085481Y43412722D01*
X13990652Y43692077D01*
X13860172Y43956664D01*
X13696273Y44201957D01*
X13501758Y44423758D01*
X13501755Y44423760D01*
X13501754Y44423762D01*
X13279957Y44618273D01*
X13279953Y44618276D01*
X13034665Y44782173D01*
X13034659Y44782176D01*
X12770079Y44912652D01*
X12490725Y45007480D01*
X12490724Y45007481D01*
X12490722Y45007481D01*
X12490717Y45007482D01*
X12201387Y45065033D01*
X12201385Y45065034D01*
X11956063Y45081114D01*
X11907000Y45084329D01*
X11906999Y45084329D01*
X11612614Y45065034D01*
X11612612Y45065033D01*
X11323282Y45007482D01*
X11323274Y45007480D01*
X11043925Y44912654D01*
X11043922Y44912652D01*
X10779334Y44782171D01*
X10534042Y44618273D01*
X10312241Y44423759D01*
X10117727Y44201958D01*
X9953829Y43956666D01*
X9823348Y43692078D01*
X9823346Y43692075D01*
X9728520Y43412726D01*
X9728517Y43412716D01*
X9692403Y43231152D01*
X9645152Y43097212D01*
X9562080Y42982009D01*
X9449917Y42894877D01*
X9317749Y42842875D01*
X9202991Y42829500D01*
X7906500Y42829500D01*
X7765915Y42849713D01*
X7636720Y42908714D01*
X7529381Y43001724D01*
X7452594Y43121208D01*
X7412579Y43257485D01*
X7407500Y43328500D01*
X7407500Y47496782D01*
X7427713Y47637367D01*
X7486714Y47766562D01*
X7553650Y47849624D01*
X9493175Y49789150D01*
X9516367Y49809630D01*
X9528744Y49819262D01*
X9591960Y49887934D01*
X9613902Y49909875D01*
X9633957Y49933555D01*
X9697164Y50002215D01*
X9705735Y50015336D01*
X9724233Y50040143D01*
X9734366Y50052106D01*
X9782136Y50132276D01*
X9833173Y50210393D01*
X9839471Y50224754D01*
X9853625Y50252250D01*
X9861656Y50265727D01*
X9895580Y50352668D01*
X9933063Y50438119D01*
X9936911Y50453319D01*
X9946347Y50482775D01*
X9952050Y50497386D01*
X9971202Y50588726D01*
X9994108Y50679179D01*
X9995402Y50694810D01*
X9999860Y50725405D01*
X10003081Y50740763D01*
X10006937Y50834010D01*
X10009500Y50864933D01*
X10009500Y50895965D01*
X10013357Y50989221D01*
X10011417Y51004778D01*
X10009500Y51035668D01*
X10009500Y51209166D01*
X10029713Y51349751D01*
X10088714Y51478946D01*
X10109017Y51508188D01*
X10196226Y51624685D01*
X10333367Y51875839D01*
X10433369Y52143954D01*
X10494196Y52423572D01*
X10509500Y52637552D01*
X10509500Y53280448D01*
X10494196Y53494428D01*
X10489968Y53513862D01*
X10433370Y53774044D01*
X10404535Y53851352D01*
X10333367Y54042161D01*
X10196226Y54293315D01*
X10093333Y54430764D01*
X10024741Y54522393D01*
X9822392Y54724742D01*
X9620622Y54875784D01*
X9593315Y54896226D01*
X9593313Y54896227D01*
X9593312Y54896228D01*
X9342161Y55033367D01*
X9074043Y55133371D01*
X8794436Y55194195D01*
X8794430Y55194196D01*
X8794428Y55194196D01*
X8509000Y55214610D01*
X8223572Y55194196D01*
X8223569Y55194196D01*
X8223563Y55194195D01*
X7943956Y55133371D01*
X7675840Y55033368D01*
X7478146Y54925418D01*
X7345071Y54875784D01*
X7203402Y54865651D01*
X7064618Y54895842D01*
X6999854Y54925418D01*
X6802159Y55033368D01*
X6534043Y55133371D01*
X6254436Y55194195D01*
X6254430Y55194196D01*
X6254428Y55194196D01*
X5969000Y55214610D01*
X5968999Y55214610D01*
X5921282Y55211198D01*
X5683572Y55194196D01*
X5683569Y55194196D01*
X5683563Y55194195D01*
X5403956Y55133371D01*
X5135838Y55033367D01*
X4884687Y54896228D01*
X4884682Y54896224D01*
X4655607Y54724742D01*
X4453258Y54522393D01*
X4281776Y54293318D01*
X4281772Y54293313D01*
X4144633Y54042162D01*
X4044629Y53774044D01*
X3983805Y53494437D01*
X3968500Y53280447D01*
X3968500Y52637553D01*
X3983805Y52423564D01*
X4044629Y52143957D01*
X4144632Y51875839D01*
X4144633Y51875839D01*
X4281774Y51624685D01*
X4350368Y51533053D01*
X4453258Y51395608D01*
X4655607Y51193259D01*
X4725058Y51141269D01*
X4884685Y51021774D01*
X5135839Y50884633D01*
X5288735Y50827606D01*
X5413386Y50759541D01*
X5513817Y50659111D01*
X5581885Y50534455D01*
X5612076Y50395670D01*
X5601945Y50254002D01*
X5552311Y50120927D01*
X5467196Y50007225D01*
X5467194Y50007224D01*
X4798727Y49338758D01*
X4798718Y49338746D01*
X4693064Y49233092D01*
X4662883Y49190821D01*
X4650216Y49174546D01*
X4616634Y49134895D01*
X4616633Y49134894D01*
X4590039Y49090265D01*
X4578764Y49073008D01*
X4548573Y49030721D01*
X4548566Y49030709D01*
X4525752Y48984042D01*
X4515938Y48965906D01*
X4489347Y48921280D01*
X4489340Y48921266D01*
X4470458Y48872878D01*
X4462178Y48854001D01*
X4439356Y48807314D01*
X4424527Y48757507D01*
X4417831Y48738004D01*
X4398951Y48689616D01*
X4398949Y48689610D01*
X4388287Y48638769D01*
X4383227Y48618786D01*
X4368402Y48568987D01*
X4368401Y48568983D01*
X4361974Y48517424D01*
X4358579Y48497079D01*
X4347918Y48446233D01*
X4347917Y48446227D01*
X4345770Y48394324D01*
X4344068Y48373777D01*
X4337643Y48322225D01*
X4337643Y48322222D01*
X4339789Y48270314D01*
X4339789Y48249689D01*
X4337642Y48197788D01*
X4337643Y48197777D01*
X4344068Y48146224D01*
X4345770Y48125677D01*
X4347917Y48073772D01*
X4347918Y48073765D01*
X4358578Y48022928D01*
X4361972Y48002584D01*
X4368399Y47951024D01*
X4368401Y47951017D01*
X4383229Y47901207D01*
X4388288Y47881228D01*
X4393629Y47855761D01*
X4395874Y47845057D01*
X4406500Y47742632D01*
X4406500Y42719049D01*
X4386287Y42578464D01*
X4327286Y42449269D01*
X4282667Y42390034D01*
X4117727Y42201958D01*
X3953829Y41956666D01*
X3823348Y41692078D01*
X3823346Y41692075D01*
X3728520Y41412726D01*
X3728518Y41412718D01*
X3670967Y41123388D01*
X3670966Y41123386D01*
X3651671Y40829000D01*
X500Y40829000D01*
X500Y61527553D01*
X3968500Y61527553D01*
X3983805Y61313564D01*
X4044629Y61033957D01*
X4144633Y60765840D01*
X4144633Y60765839D01*
X4281774Y60514685D01*
X4350368Y60423054D01*
X4453258Y60285608D01*
X4655607Y60083259D01*
X4699000Y60050776D01*
X4884685Y59911774D01*
X5135839Y59774633D01*
X5326648Y59703465D01*
X5403956Y59674630D01*
X5664138Y59618032D01*
X5683572Y59613804D01*
X5969000Y59593390D01*
X6254428Y59613804D01*
X6374048Y59639826D01*
X6534043Y59674630D01*
X6534046Y59674631D01*
X6802161Y59774633D01*
X6999856Y59882584D01*
X7132928Y59932217D01*
X7274596Y59942350D01*
X7413380Y59912160D01*
X7478140Y59882585D01*
X7675839Y59774633D01*
X7866648Y59703465D01*
X7943956Y59674630D01*
X8204138Y59618032D01*
X8223572Y59613804D01*
X8509000Y59593390D01*
X8794428Y59613804D01*
X8914048Y59639826D01*
X9074043Y59674630D01*
X9074046Y59674631D01*
X9342161Y59774633D01*
X9593315Y59911774D01*
X9822395Y60083261D01*
X10024739Y60285605D01*
X10196226Y60514685D01*
X10333367Y60765839D01*
X10433369Y61033954D01*
X10494196Y61313572D01*
X10509500Y61527552D01*
X10509500Y61527553D01*
X21748500Y61527553D01*
X21763805Y61313564D01*
X21824629Y61033957D01*
X21924633Y60765839D01*
X22061774Y60514685D01*
X22130368Y60423053D01*
X22233258Y60285608D01*
X22435607Y60083259D01*
X22479000Y60050776D01*
X22664685Y59911774D01*
X22915839Y59774633D01*
X23106648Y59703465D01*
X23183956Y59674630D01*
X23444138Y59618032D01*
X23463572Y59613804D01*
X23749000Y59593390D01*
X24034428Y59613804D01*
X24154048Y59639826D01*
X24314043Y59674630D01*
X24314046Y59674631D01*
X24582161Y59774633D01*
X24779856Y59882584D01*
X24912928Y59932217D01*
X25054596Y59942350D01*
X25193380Y59912160D01*
X25258140Y59882585D01*
X25455839Y59774633D01*
X25646648Y59703465D01*
X25723956Y59674630D01*
X25984138Y59618032D01*
X26003572Y59613804D01*
X26289000Y59593390D01*
X26574428Y59613804D01*
X26694048Y59639826D01*
X26854043Y59674630D01*
X26854046Y59674631D01*
X27122161Y59774633D01*
X27373315Y59911774D01*
X27602395Y60083261D01*
X27804739Y60285605D01*
X27976226Y60514685D01*
X28113367Y60765839D01*
X28213369Y61033954D01*
X28274196Y61313572D01*
X28289500Y61527552D01*
X28289500Y62170448D01*
X28274196Y62384428D01*
X28269968Y62403862D01*
X28213370Y62664044D01*
X28184535Y62741352D01*
X28113367Y62932161D01*
X27976226Y63183315D01*
X27873333Y63320764D01*
X27804741Y63412393D01*
X27602392Y63614742D01*
X27400622Y63765784D01*
X27373315Y63786226D01*
X27373313Y63786227D01*
X27373312Y63786228D01*
X27122161Y63923367D01*
X26854043Y64023371D01*
X26574436Y64084195D01*
X26574430Y64084196D01*
X26574428Y64084196D01*
X26289000Y64104610D01*
X26288999Y64104610D01*
X26241282Y64101198D01*
X26003572Y64084196D01*
X26003569Y64084196D01*
X26003563Y64084195D01*
X25723956Y64023371D01*
X25455840Y63923368D01*
X25258146Y63815418D01*
X25125071Y63765784D01*
X24983402Y63755651D01*
X24844618Y63785842D01*
X24779854Y63815418D01*
X24582159Y63923368D01*
X24314043Y64023371D01*
X24034436Y64084195D01*
X24034430Y64084196D01*
X24034428Y64084196D01*
X23749000Y64104610D01*
X23463572Y64084196D01*
X23463569Y64084196D01*
X23463563Y64084195D01*
X23183956Y64023371D01*
X22915838Y63923367D01*
X22664687Y63786228D01*
X22664682Y63786224D01*
X22435607Y63614742D01*
X22233258Y63412393D01*
X22061776Y63183318D01*
X22061772Y63183313D01*
X21924633Y62932162D01*
X21824629Y62664044D01*
X21763805Y62384437D01*
X21748500Y62170447D01*
X21748500Y61527553D01*
X10509500Y61527553D01*
X10509500Y62170448D01*
X10494196Y62384428D01*
X10489968Y62403862D01*
X10433370Y62664044D01*
X10404535Y62741352D01*
X10333367Y62932161D01*
X10196226Y63183315D01*
X10093333Y63320764D01*
X10024741Y63412393D01*
X9822392Y63614742D01*
X9620622Y63765784D01*
X9593315Y63786226D01*
X9593313Y63786227D01*
X9593312Y63786228D01*
X9342161Y63923367D01*
X9074043Y64023371D01*
X8794436Y64084195D01*
X8794430Y64084196D01*
X8794428Y64084196D01*
X8509000Y64104610D01*
X8223572Y64084196D01*
X8223569Y64084196D01*
X8223563Y64084195D01*
X7943956Y64023371D01*
X7675840Y63923368D01*
X7478146Y63815418D01*
X7345071Y63765784D01*
X7203402Y63755651D01*
X7064618Y63785842D01*
X6999854Y63815418D01*
X6802159Y63923368D01*
X6534043Y64023371D01*
X6254436Y64084195D01*
X6254430Y64084196D01*
X6254428Y64084196D01*
X5969000Y64104610D01*
X5968999Y64104610D01*
X5921282Y64101198D01*
X5683572Y64084196D01*
X5683569Y64084196D01*
X5683563Y64084195D01*
X5403956Y64023371D01*
X5135838Y63923367D01*
X4884687Y63786228D01*
X4884682Y63786224D01*
X4655607Y63614742D01*
X4453258Y63412393D01*
X4281776Y63183318D01*
X4281772Y63183313D01*
X4144633Y62932162D01*
X4044629Y62664044D01*
X3983805Y62384437D01*
X3968500Y62170447D01*
X3968500Y61527553D01*
X500Y61527553D01*
X500Y79370428D01*
X2637Y79403028D01*
X8190Y79445209D01*
X46579Y79581953D01*
X121939Y79702342D01*
X228163Y79796623D01*
X356647Y79857159D01*
X437791Y79874810D01*
X479972Y79880363D01*
X512572Y79882500D01*
X36585000Y79882500D01*
X36725585Y79862287D01*
G37*
G04 #@! TD.AperFunction*
G04 #@! TD*
M02*
